<svg width="2145" height="1366" xmlns="http://www.w3.org/2000/svg" xmlns:xlink="http://www.w3.org/1999/xlink" xml:space="preserve" overflow="hidden"><defs><clipPath id="clip0"><rect x="3364" y="1498" width="2145" height="1366"/></clipPath><clipPath id="clip1"><rect x="3364" y="1498" width="2145" height="1366"/></clipPath><clipPath id="clip2"><rect x="3364" y="1502" width="1020" height="1270"/></clipPath><clipPath id="clip3"><rect x="3364" y="1502" width="1020" height="1270"/></clipPath></defs><g clip-path="url(#clip0)" transform="translate(-3364 -1498)"><g clip-path="url(#clip1)"><g clip-path="url(#clip2)"><g clip-path="url(#clip3)"><g><path d="M0 1268.67 1057.22 1268.67 1057.22 0 0 0Z" fill="#FFFFFF" fill-rule="nonzero" fill-opacity="1" transform="matrix(1 0 0 1.00026 3339.2 1503)"/><path d="M125.354 1186.79 1025.51 1186.79 1025.51 43.3462 125.354 43.3462Z" fill="#FFFFFF" fill-rule="nonzero" fill-opacity="1" transform="matrix(1 0 0 1.00026 3339.2 1503)"/><g><path d="M166.27 1186.79 302.657 1186.79 302.657 950 166.27 950Z" fill="#7F7F7F" fill-rule="nonzero" fill-opacity="0.3" transform="matrix(1 0 0 1.00026 3339.2 1503)"/></g><g><path d="M336.755 1186.79 473.14 1186.79 473.14 993.258 336.755 993.258Z" fill="#7F7F7F" fill-rule="nonzero" fill-opacity="0.3" transform="matrix(1 0 0 1.00026 3339.2 1503)"/></g><g><path d="M507.238 1186.79 643.623 1186.79 643.623 1034.05 507.238 1034.05Z" fill="#7F7F7F" fill-rule="nonzero" fill-opacity="0.3" transform="matrix(1 0 0 1.00026 3339.2 1503)"/></g><g><path d="M677.721 1186.79 814.106 1186.79 814.106 1066.27 677.721 1066.27Z" fill="#7F7F7F" fill-rule="nonzero" fill-opacity="0.3" transform="matrix(1 0 0 1.00026 3339.2 1503)"/></g><g><path d="M848.204 1186.79 984.589 1186.79 984.589 1091.1 848.204 1091.1Z" fill="#7F7F7F" fill-rule="nonzero" fill-opacity="0.3" transform="matrix(1 0 0 1.00026 3339.2 1503)"/></g><path d="M0 0 0 10.2786" stroke="#000000" stroke-width="2.34938" stroke-linecap="butt" stroke-linejoin="round" stroke-miterlimit="4" stroke-opacity="1" fill="none" fill-rule="nonzero" transform="matrix(1 0 0 1.00026 3573.67 2690.1)"/><path d="M3.64338 2.43657 8.37427 2.43657 8.37427 18.7721 3.22582 17.7397 3.22582 20.3782 8.34674 21.4106 11.2422 21.4106 11.2422 2.43657 15.9731 2.43657 15.9731 0 3.64338 0 3.64338 2.43657Z" fill="#000000" fill-rule="nonzero" fill-opacity="1" transform="matrix(1 0 0 -1.00026 3564.32 2732.98)"/><path d="M0 0 0 10.2786" stroke="#000000" stroke-width="2.34938" stroke-linecap="butt" stroke-linejoin="round" stroke-miterlimit="4" stroke-opacity="1" fill="none" fill-rule="nonzero" transform="matrix(1 0 0 1.00026 3744.15 2690.1)"/><path d="M5.63485 2.43657 15.7436 2.43657 15.7436 0 2.15207 0 2.15207 2.43657C3.25029 3.57455 4.74773 5.10106 6.64435 7.01603 8.54405 8.93409 9.7371 10.1715 10.2235 10.7282 11.1504 11.7684 11.7974 12.6494 12.1645 13.3713 12.5347 14.0932 12.7197 14.803 12.7197 15.5004 12.7197 16.6384 12.3205 17.5653 11.5221 18.2812 10.7237 19.0001 9.68355 19.3595 8.4018 19.3595 7.49325 19.3595 6.53423 19.202 5.52472 18.8869 4.51828 18.5717 3.44148 18.093 2.29432 17.4506L2.29432 20.3782C3.45984 20.8462 4.54887 21.1995 5.56143 21.4381 6.57704 21.6767 7.5055 21.7961 8.34674 21.7961 10.5646 21.7961 12.3328 21.2408 13.6512 20.1304 14.9697 19.023 15.6289 17.5424 15.6289 15.6886 15.6289 14.8075 15.4637 13.9724 15.1333 13.1832 14.806 12.397 14.2064 11.4685 13.3346 10.3979 13.096 10.1195 12.3358 9.31802 11.054 7.99341 9.77532 6.66881 7.96896 4.81656 5.63485 2.43657Z" fill="#000000" fill-rule="nonzero" fill-opacity="1" transform="matrix(1 0 0 -1.00026 3734.81 2732.98)"/><path d="M0 0 0 10.2786" stroke="#000000" stroke-width="2.34938" stroke-linecap="butt" stroke-linejoin="round" stroke-miterlimit="4" stroke-opacity="1" fill="none" fill-rule="nonzero" transform="matrix(1 0 0 1.00026 3914.63 2690.1)"/><path d="M11.9167 11.545C13.3025 11.2483 14.3839 10.6304 15.1609 9.69121 15.9409 8.75513 16.331 7.59879 16.331 6.2222 16.331 4.11142 15.6045 2.47634 14.1514 1.31694 12.6983 0.160602 10.6334-0.417566 7.95671-0.417566 7.06041-0.417566 6.13653-0.328853 5.18517-0.151425 4.23379 0.0260023 3.25182 0.292144 2.23926 0.646999L2.23926 3.44148C3.04074 2.97344 3.9187 2.62011 4.87314 2.38151 5.83065 2.1429 6.83097 2.02359 7.87411 2.02359 9.68814 2.02359 11.0709 2.38151 12.0222 3.09733 12.9736 3.81316 13.4493 4.85478 13.4493 6.2222 13.4493 7.48559 13.0073 8.47215 12.1232 9.18187 11.2391 9.89463 10.0093 10.251 8.43392 10.251L5.9377 10.251 5.9377 12.6325 8.54864 12.6325C9.97112 12.6325 11.0601 12.917 11.8158 13.486 12.5714 14.055 12.9491 14.8749 12.9491 15.9455 12.9491 17.0437 12.5591 17.8865 11.779 18.4739 11.002 19.0643 9.88701 19.3595 8.43392 19.3595 7.63858 19.3595 6.7866 19.2723 5.87805 19.0979 4.9695 18.9266 3.9707 18.6605 2.88167 18.2995L2.88167 20.8783C3.98294 21.1842 5.01387 21.4137 5.97441 21.5666 6.93495 21.7196 7.84048 21.7961 8.69089 21.7961 10.8904 21.7961 12.6295 21.2959 13.9082 20.2956 15.1899 19.2983 15.8308 17.9493 15.8308 16.2484 15.8308 15.0614 15.4913 14.0596 14.8121 13.2428 14.133 12.426 13.1679 11.8601 11.9167 11.545Z" fill="#000000" fill-rule="nonzero" fill-opacity="1" transform="matrix(1 0 0 -1.00026 3905.29 2732.98)"/><path d="M0 0 0 10.2786" stroke="#000000" stroke-width="2.34938" stroke-linecap="butt" stroke-linejoin="round" stroke-miterlimit="4" stroke-opacity="1" fill="none" fill-rule="nonzero" transform="matrix(1 0 0 1.00026 4085.12 2690.1)"/><path d="M11.0999 18.8869 3.78563 7.45654 11.0999 7.45654 11.0999 18.8869ZM10.3382 21.4106 13.9816 21.4106 13.9816 7.45654 17.0376 7.45654 17.0376 5.04751 13.9816 5.04751 13.9816 0 11.0999 0 11.0999 5.04751 1.43624 5.04751 1.43624 7.84199 10.3382 21.4106Z" fill="#000000" fill-rule="nonzero" fill-opacity="1" transform="matrix(1 0 0 -1.00026 4075.77 2732.98)"/><path d="M0 0 0 10.2786" stroke="#000000" stroke-width="2.34938" stroke-linecap="butt" stroke-linejoin="round" stroke-miterlimit="4" stroke-opacity="1" fill="none" fill-rule="nonzero" transform="matrix(1 0 0 1.00026 4255.6 2690.1)"/><path d="M3.17075 21.4106 14.5414 21.4106 14.5414 18.9694 5.82299 18.9694 5.82299 13.7246C6.24207 13.8684 6.66119 13.9755 7.08028 14.0458 7.50243 14.1162 7.92458 14.1514 8.34674 14.1514 10.7359 14.1514 12.6279 13.4967 14.0229 12.1874 15.4209 10.8782 16.1199 9.10538 16.1199 6.8692 16.1199 4.5657 15.4026 2.7746 13.9678 1.4959 12.5331 0.220255 10.5111-0.417566 7.90164-0.417566 7.00227-0.417566 6.08605-0.341089 5.15305-0.188134 4.22308-0.0351796 3.261 0.194252 2.26679 0.500162L2.26679 3.41395C3.12639 2.94591 4.01506 2.59717 4.93279 2.36774 5.85052 2.13831 6.82024 2.02359 7.84199 2.02359 9.49697 2.02359 10.8063 2.45798 11.7699 3.32677 12.7366 4.19555 13.2199 5.37637 13.2199 6.8692 13.2199 8.35899 12.7366 9.53827 11.7699 10.407 10.8063 11.2789 9.49697 11.7148 7.84199 11.7148 7.06802 11.7148 6.29562 11.6291 5.52472 11.4578 4.75691 11.2865 3.97224 11.0188 3.17075 10.6548L3.17075 21.4106Z" fill="#000000" fill-rule="nonzero" fill-opacity="1" transform="matrix(1 0 0 -1.00026 4246.26 2732.98)"/><g><path d="M125.354 1186.79 1025.51 1186.79" stroke="#B0B0B0" stroke-width="2.34938" stroke-linecap="butt" stroke-linejoin="round" stroke-miterlimit="4" stroke-dasharray="8.69272 3.75902" stroke-opacity="0.6" fill="none" fill-rule="nonzero" transform="matrix(1 0 0 1.00026 3339.2 1503)"/></g><path d="M0 0-10.2786 0" stroke="#000000" stroke-width="2.34938" stroke-linecap="butt" stroke-linejoin="round" stroke-miterlimit="4" stroke-opacity="1" fill="none" fill-rule="nonzero" transform="matrix(1 0 0 1.00026 3464.56 2690.1)"/><path d="M9.3333 19.5017C7.8435 19.5017 6.72236 18.7675 5.96982 17.2992 5.22036 15.8339 4.84561 13.6283 4.84561 10.6824 4.84561 7.7487 5.22036 5.54767 5.96982 4.0793 6.72236 2.61094 7.8435 1.87675 9.3333 1.87675 10.8353 1.87675 11.9611 2.61094 12.7105 4.0793 13.4631 5.54767 13.8393 7.7487 13.8393 10.6824 13.8393 13.6283 13.4631 15.8339 12.7105 17.2992 11.9611 18.7675 10.8353 19.5017 9.3333 19.5017ZM9.3333 21.7961C11.7347 21.7961 13.5686 20.8462 14.8351 18.9465 16.1015 17.0499 16.7348 14.2951 16.7348 10.6824 16.7348 7.07876 16.1015 4.32709 14.8351 2.42739 13.5686 0.530754 11.7347-0.417566 9.3333-0.417566 6.93495-0.417566 5.10257 0.530754 3.8361 2.42739 2.56964 4.32709 1.93641 7.07876 1.93641 10.6824 1.93641 14.2951 2.56964 17.0499 3.8361 18.9465 5.10257 20.8462 6.93495 21.7961 9.3333 21.7961Z" fill="#000000" fill-rule="nonzero" fill-opacity="1" transform="matrix(1 0 0 -1.00026 3408.31 2701.26)"/><path d="M2.666 22.3146 5.31824 22.3146 5.31824 9.13599 13.1923 16.0602 16.5604 16.0602 8.04389 8.54864 16.9229 0 13.4814 0 5.31824 7.84199 5.31824 0 2.666 0 2.666 22.3146Z" fill="#000000" fill-rule="nonzero" fill-opacity="1" transform="matrix(1 0 0 -1.00026 3426.99 2701.26)"/><g><path d="M125.354 1043.86 1025.51 1043.86" stroke="#B0B0B0" stroke-width="2.34938" stroke-linecap="butt" stroke-linejoin="round" stroke-miterlimit="4" stroke-dasharray="8.69272 3.75902" stroke-opacity="0.6" fill="none" fill-rule="nonzero" transform="matrix(1 0 0 1.00026 3339.2 1503)"/></g><path d="M0 0-10.2786 0" stroke="#000000" stroke-width="2.34938" stroke-linecap="butt" stroke-linejoin="round" stroke-miterlimit="4" stroke-opacity="1" fill="none" fill-rule="nonzero" transform="matrix(1 0 0 1.00026 3464.56 2547.13)"/><path d="M5.63485 2.43657 15.7436 2.43657 15.7436 0 2.15207 0 2.15207 2.43657C3.25029 3.57455 4.74773 5.10106 6.64435 7.01603 8.54405 8.93409 9.7371 10.1715 10.2235 10.7282 11.1504 11.7684 11.7974 12.6494 12.1645 13.3713 12.5347 14.0932 12.7197 14.803 12.7197 15.5004 12.7197 16.6384 12.3205 17.5653 11.5221 18.2812 10.7237 19.0001 9.68355 19.3595 8.4018 19.3595 7.49325 19.3595 6.53423 19.202 5.52472 18.8869 4.51828 18.5717 3.44148 18.093 2.29432 17.4506L2.29432 20.3782C3.45984 20.8462 4.54887 21.1995 5.56143 21.4381 6.57704 21.6767 7.5055 21.7961 8.34674 21.7961 10.5646 21.7961 12.3328 21.2408 13.6512 20.1304 14.9697 19.023 15.6289 17.5424 15.6289 15.6886 15.6289 14.8075 15.4637 13.9724 15.1333 13.1832 14.806 12.397 14.2064 11.4685 13.3346 10.3979 13.096 10.1195 12.3358 9.31802 11.054 7.99341 9.77532 6.66881 7.96896 4.81656 5.63485 2.43657Z" fill="#000000" fill-rule="nonzero" fill-opacity="1" transform="matrix(1 0 0 -1.00026 3389.63 2558.29)"/><path d="M3.17075 21.4106 14.5414 21.4106 14.5414 18.9694 5.82299 18.9694 5.82299 13.7246C6.24207 13.8684 6.66119 13.9755 7.08028 14.0458 7.50243 14.1162 7.92458 14.1514 8.34674 14.1514 10.7359 14.1514 12.6279 13.4967 14.0229 12.1874 15.4209 10.8782 16.1199 9.10538 16.1199 6.8692 16.1199 4.5657 15.4026 2.7746 13.9678 1.4959 12.5331 0.220255 10.5111-0.417566 7.90164-0.417566 7.00227-0.417566 6.08605-0.341089 5.15305-0.188134 4.22308-0.0351796 3.261 0.194252 2.26679 0.500162L2.26679 3.41395C3.12639 2.94591 4.01506 2.59717 4.93279 2.36774 5.85052 2.13831 6.82024 2.02359 7.84199 2.02359 9.49697 2.02359 10.8063 2.45798 11.7699 3.32677 12.7366 4.19555 13.2199 5.37637 13.2199 6.8692 13.2199 8.35899 12.7366 9.53827 11.7699 10.407 10.8063 11.2789 9.49697 11.7148 7.84199 11.7148 7.06802 11.7148 6.29562 11.6291 5.52472 11.4578 4.75691 11.2865 3.97224 11.0188 3.17075 10.6548L3.17075 21.4106Z" fill="#000000" fill-rule="nonzero" fill-opacity="1" transform="matrix(1 0 0 -1.00026 3408.31 2558.29)"/><path d="M2.666 22.3146 5.31824 22.3146 5.31824 9.13599 13.1923 16.0602 16.5604 16.0602 8.04389 8.54864 16.9229 0 13.4814 0 5.31824 7.84199 5.31824 0 2.666 0 2.666 22.3146Z" fill="#000000" fill-rule="nonzero" fill-opacity="1" transform="matrix(1 0 0 -1.00026 3426.99 2558.29)"/><g><path d="M125.354 900.93 1025.51 900.93" stroke="#B0B0B0" stroke-width="2.34938" stroke-linecap="butt" stroke-linejoin="round" stroke-miterlimit="4" stroke-dasharray="8.69272 3.75902" stroke-opacity="0.6" fill="none" fill-rule="nonzero" transform="matrix(1 0 0 1.00026 3339.2 1503)"/></g><path d="M0 0-10.2786 0" stroke="#000000" stroke-width="2.34938" stroke-linecap="butt" stroke-linejoin="round" stroke-miterlimit="4" stroke-opacity="1" fill="none" fill-rule="nonzero" transform="matrix(1 0 0 1.00026 3464.56 2404.17)"/><path d="M3.17075 21.4106 14.5414 21.4106 14.5414 18.9694 5.82299 18.9694 5.82299 13.7246C6.24207 13.8684 6.66119 13.9755 7.08028 14.0458 7.50243 14.1162 7.92458 14.1514 8.34674 14.1514 10.7359 14.1514 12.6279 13.4967 14.0229 12.1874 15.4209 10.8782 16.1199 9.10538 16.1199 6.8692 16.1199 4.5657 15.4026 2.7746 13.9678 1.4959 12.5331 0.220255 10.5111-0.417566 7.90164-0.417566 7.00227-0.417566 6.08605-0.341089 5.15305-0.188134 4.22308-0.0351796 3.261 0.194252 2.26679 0.500162L2.26679 3.41395C3.12639 2.94591 4.01506 2.59717 4.93279 2.36774 5.85052 2.13831 6.82024 2.02359 7.84199 2.02359 9.49697 2.02359 10.8063 2.45798 11.7699 3.32677 12.7366 4.19555 13.2199 5.37637 13.2199 6.8692 13.2199 8.35899 12.7366 9.53827 11.7699 10.407 10.8063 11.2789 9.49697 11.7148 7.84199 11.7148 7.06802 11.7148 6.29562 11.6291 5.52472 11.4578 4.75691 11.2865 3.97224 11.0188 3.17075 10.6548L3.17075 21.4106Z" fill="#000000" fill-rule="nonzero" fill-opacity="1" transform="matrix(1 0 0 -1.00026 3389.63 2415.33)"/><path d="M9.3333 19.5017C7.8435 19.5017 6.72236 18.7675 5.96982 17.2992 5.22036 15.8339 4.84561 13.6283 4.84561 10.6824 4.84561 7.7487 5.22036 5.54767 5.96982 4.0793 6.72236 2.61094 7.8435 1.87675 9.3333 1.87675 10.8353 1.87675 11.9611 2.61094 12.7105 4.0793 13.4631 5.54767 13.8393 7.7487 13.8393 10.6824 13.8393 13.6283 13.4631 15.8339 12.7105 17.2992 11.9611 18.7675 10.8353 19.5017 9.3333 19.5017ZM9.3333 21.7961C11.7347 21.7961 13.5686 20.8462 14.8351 18.9465 16.1015 17.0499 16.7348 14.2951 16.7348 10.6824 16.7348 7.07876 16.1015 4.32709 14.8351 2.42739 13.5686 0.530754 11.7347-0.417566 9.3333-0.417566 6.93495-0.417566 5.10257 0.530754 3.8361 2.42739 2.56964 4.32709 1.93641 7.07876 1.93641 10.6824 1.93641 14.2951 2.56964 17.0499 3.8361 18.9465 5.10257 20.8462 6.93495 21.7961 9.3333 21.7961Z" fill="#000000" fill-rule="nonzero" fill-opacity="1" transform="matrix(1 0 0 -1.00026 3408.31 2415.33)"/><path d="M2.666 22.3146 5.31824 22.3146 5.31824 9.13599 13.1923 16.0602 16.5604 16.0602 8.04389 8.54864 16.9229 0 13.4814 0 5.31824 7.84199 5.31824 0 2.666 0 2.666 22.3146Z" fill="#000000" fill-rule="nonzero" fill-opacity="1" transform="matrix(1 0 0 -1.00026 3426.99 2415.33)"/><g><path d="M125.354 758 1025.51 758" stroke="#B0B0B0" stroke-width="2.34938" stroke-linecap="butt" stroke-linejoin="round" stroke-miterlimit="4" stroke-dasharray="8.69272 3.75902" stroke-opacity="0.6" fill="none" fill-rule="nonzero" transform="matrix(1 0 0 1.00026 3339.2 1503)"/></g><path d="M0 0-10.2786 0" stroke="#000000" stroke-width="2.34938" stroke-linecap="butt" stroke-linejoin="round" stroke-miterlimit="4" stroke-opacity="1" fill="none" fill-rule="nonzero" transform="matrix(1 0 0 1.00026 3464.56 2261.2)"/><path d="M2.40904 21.4106 16.175 21.4106 16.175 20.1763 8.4018 0 5.37789 0 12.6922 18.9694 2.40904 18.9694 2.40904 21.4106Z" fill="#000000" fill-rule="nonzero" fill-opacity="1" transform="matrix(1 0 0 -1.00026 3389.63 2272.36)"/><path d="M3.17075 21.4106 14.5414 21.4106 14.5414 18.9694 5.82299 18.9694 5.82299 13.7246C6.24207 13.8684 6.66119 13.9755 7.08028 14.0458 7.50243 14.1162 7.92458 14.1514 8.34674 14.1514 10.7359 14.1514 12.6279 13.4967 14.0229 12.1874 15.4209 10.8782 16.1199 9.10538 16.1199 6.8692 16.1199 4.5657 15.4026 2.7746 13.9678 1.4959 12.5331 0.220255 10.5111-0.417566 7.90164-0.417566 7.00227-0.417566 6.08605-0.341089 5.15305-0.188134 4.22308-0.0351796 3.261 0.194252 2.26679 0.500162L2.26679 3.41395C3.12639 2.94591 4.01506 2.59717 4.93279 2.36774 5.85052 2.13831 6.82024 2.02359 7.84199 2.02359 9.49697 2.02359 10.8063 2.45798 11.7699 3.32677 12.7366 4.19555 13.2199 5.37637 13.2199 6.8692 13.2199 8.35899 12.7366 9.53827 11.7699 10.407 10.8063 11.2789 9.49697 11.7148 7.84199 11.7148 7.06802 11.7148 6.29562 11.6291 5.52472 11.4578 4.75691 11.2865 3.97224 11.0188 3.17075 10.6548L3.17075 21.4106Z" fill="#000000" fill-rule="nonzero" fill-opacity="1" transform="matrix(1 0 0 -1.00026 3408.31 2272.36)"/><path d="M2.666 22.3146 5.31824 22.3146 5.31824 9.13599 13.1923 16.0602 16.5604 16.0602 8.04389 8.54864 16.9229 0 13.4814 0 5.31824 7.84199 5.31824 0 2.666 0 2.666 22.3146Z" fill="#000000" fill-rule="nonzero" fill-opacity="1" transform="matrix(1 0 0 -1.00026 3426.99 2272.36)"/><g><path d="M125.354 615.069 1025.51 615.069" stroke="#B0B0B0" stroke-width="2.34938" stroke-linecap="butt" stroke-linejoin="round" stroke-miterlimit="4" stroke-dasharray="8.69272 3.75902" stroke-opacity="0.6" fill="none" fill-rule="nonzero" transform="matrix(1 0 0 1.00026 3339.2 1503)"/></g><path d="M0 0-10.2786 0" stroke="#000000" stroke-width="2.34938" stroke-linecap="butt" stroke-linejoin="round" stroke-miterlimit="4" stroke-opacity="1" fill="none" fill-rule="nonzero" transform="matrix(1 0 0 1.00026 3464.56 2118.23)"/><path d="M3.64338 2.43657 8.37427 2.43657 8.37427 18.7721 3.22582 17.7397 3.22582 20.3782 8.34674 21.4106 11.2422 21.4106 11.2422 2.43657 15.9731 2.43657 15.9731 0 3.64338 0 3.64338 2.43657Z" fill="#000000" fill-rule="nonzero" fill-opacity="1" transform="matrix(1 0 0 -1.00026 3370.94 2129.39)"/><path d="M9.3333 19.5017C7.8435 19.5017 6.72236 18.7675 5.96982 17.2992 5.22036 15.8339 4.84561 13.6283 4.84561 10.6824 4.84561 7.7487 5.22036 5.54767 5.96982 4.0793 6.72236 2.61094 7.8435 1.87675 9.3333 1.87675 10.8353 1.87675 11.9611 2.61094 12.7105 4.0793 13.4631 5.54767 13.8393 7.7487 13.8393 10.6824 13.8393 13.6283 13.4631 15.8339 12.7105 17.2992 11.9611 18.7675 10.8353 19.5017 9.3333 19.5017ZM9.3333 21.7961C11.7347 21.7961 13.5686 20.8462 14.8351 18.9465 16.1015 17.0499 16.7348 14.2951 16.7348 10.6824 16.7348 7.07876 16.1015 4.32709 14.8351 2.42739 13.5686 0.530754 11.7347-0.417566 9.3333-0.417566 6.93495-0.417566 5.10257 0.530754 3.8361 2.42739 2.56964 4.32709 1.93641 7.07876 1.93641 10.6824 1.93641 14.2951 2.56964 17.0499 3.8361 18.9465 5.10257 20.8462 6.93495 21.7961 9.3333 21.7961Z" fill="#000000" fill-rule="nonzero" fill-opacity="1" transform="matrix(1 0 0 -1.00026 3389.62 2129.39)"/><path d="M9.3333 19.5017C7.8435 19.5017 6.72236 18.7675 5.96982 17.2992 5.22036 15.8339 4.84561 13.6283 4.84561 10.6824 4.84561 7.7487 5.22036 5.54767 5.96982 4.0793 6.72236 2.61094 7.8435 1.87675 9.3333 1.87675 10.8353 1.87675 11.9611 2.61094 12.7105 4.0793 13.4631 5.54767 13.8393 7.7487 13.8393 10.6824 13.8393 13.6283 13.4631 15.8339 12.7105 17.2992 11.9611 18.7675 10.8353 19.5017 9.3333 19.5017ZM9.3333 21.7961C11.7347 21.7961 13.5686 20.8462 14.8351 18.9465 16.1015 17.0499 16.7348 14.2951 16.7348 10.6824 16.7348 7.07876 16.1015 4.32709 14.8351 2.42739 13.5686 0.530754 11.7347-0.417566 9.3333-0.417566 6.93495-0.417566 5.10257 0.530754 3.8361 2.42739 2.56964 4.32709 1.93641 7.07876 1.93641 10.6824 1.93641 14.2951 2.56964 17.0499 3.8361 18.9465 5.10257 20.8462 6.93495 21.7961 9.3333 21.7961Z" fill="#000000" fill-rule="nonzero" fill-opacity="1" transform="matrix(1 0 0 -1.00026 3408.31 2129.39)"/><path d="M2.666 22.3146 5.31824 22.3146 5.31824 9.13599 13.1923 16.0602 16.5604 16.0602 8.04389 8.54864 16.9229 0 13.4814 0 5.31824 7.84199 5.31824 0 2.666 0 2.666 22.3146Z" fill="#000000" fill-rule="nonzero" fill-opacity="1" transform="matrix(1 0 0 -1.00026 3426.99 2129.39)"/><g><path d="M125.354 472.138 1025.51 472.138" stroke="#B0B0B0" stroke-width="2.34938" stroke-linecap="butt" stroke-linejoin="round" stroke-miterlimit="4" stroke-dasharray="8.69272 3.75902" stroke-opacity="0.6" fill="none" fill-rule="nonzero" transform="matrix(1 0 0 1.00026 3339.2 1503)"/></g><path d="M0 0-10.2786 0" stroke="#000000" stroke-width="2.34938" stroke-linecap="butt" stroke-linejoin="round" stroke-miterlimit="4" stroke-opacity="1" fill="none" fill-rule="nonzero" transform="matrix(1 0 0 1.00026 3464.56 1975.26)"/><path d="M3.64338 2.43657 8.37427 2.43657 8.37427 18.7721 3.22582 17.7397 3.22582 20.3782 8.34674 21.4106 11.2422 21.4106 11.2422 2.43657 15.9731 2.43657 15.9731 0 3.64338 0 3.64338 2.43657Z" fill="#000000" fill-rule="nonzero" fill-opacity="1" transform="matrix(1 0 0 -1.00026 3370.94 1986.42)"/><path d="M5.63485 2.43657 15.7436 2.43657 15.7436 0 2.15207 0 2.15207 2.43657C3.25029 3.57455 4.74773 5.10106 6.64435 7.01603 8.54405 8.93409 9.7371 10.1715 10.2235 10.7282 11.1504 11.7684 11.7974 12.6494 12.1645 13.3713 12.5347 14.0932 12.7197 14.803 12.7197 15.5004 12.7197 16.6384 12.3205 17.5653 11.5221 18.2812 10.7237 19.0001 9.68355 19.3595 8.4018 19.3595 7.49325 19.3595 6.53423 19.202 5.52472 18.8869 4.51828 18.5717 3.44148 18.093 2.29432 17.4506L2.29432 20.3782C3.45984 20.8462 4.54887 21.1995 5.56143 21.4381 6.57704 21.6767 7.5055 21.7961 8.34674 21.7961 10.5646 21.7961 12.3328 21.2408 13.6512 20.1304 14.9697 19.023 15.6289 17.5424 15.6289 15.6886 15.6289 14.8075 15.4637 13.9724 15.1333 13.1832 14.806 12.397 14.2064 11.4685 13.3346 10.3979 13.096 10.1195 12.3358 9.31802 11.054 7.99341 9.77532 6.66881 7.96896 4.81656 5.63485 2.43657Z" fill="#000000" fill-rule="nonzero" fill-opacity="1" transform="matrix(1 0 0 -1.00026 3389.62 1986.42)"/><path d="M3.17075 21.4106 14.5414 21.4106 14.5414 18.9694 5.82299 18.9694 5.82299 13.7246C6.24207 13.8684 6.66119 13.9755 7.08028 14.0458 7.50243 14.1162 7.92458 14.1514 8.34674 14.1514 10.7359 14.1514 12.6279 13.4967 14.0229 12.1874 15.4209 10.8782 16.1199 9.10538 16.1199 6.8692 16.1199 4.5657 15.4026 2.7746 13.9678 1.4959 12.5331 0.220255 10.5111-0.417566 7.90164-0.417566 7.00227-0.417566 6.08605-0.341089 5.15305-0.188134 4.22308-0.0351796 3.261 0.194252 2.26679 0.500162L2.26679 3.41395C3.12639 2.94591 4.01506 2.59717 4.93279 2.36774 5.85052 2.13831 6.82024 2.02359 7.84199 2.02359 9.49697 2.02359 10.8063 2.45798 11.7699 3.32677 12.7366 4.19555 13.2199 5.37637 13.2199 6.8692 13.2199 8.35899 12.7366 9.53827 11.7699 10.407 10.8063 11.2789 9.49697 11.7148 7.84199 11.7148 7.06802 11.7148 6.29562 11.6291 5.52472 11.4578 4.75691 11.2865 3.97224 11.0188 3.17075 10.6548L3.17075 21.4106Z" fill="#000000" fill-rule="nonzero" fill-opacity="1" transform="matrix(1 0 0 -1.00026 3408.31 1986.42)"/><path d="M2.666 22.3146 5.31824 22.3146 5.31824 9.13599 13.1923 16.0602 16.5604 16.0602 8.04389 8.54864 16.9229 0 13.4814 0 5.31824 7.84199 5.31824 0 2.666 0 2.666 22.3146Z" fill="#000000" fill-rule="nonzero" fill-opacity="1" transform="matrix(1 0 0 -1.00026 3426.99 1986.42)"/><g><path d="M125.354 329.208 1025.51 329.208" stroke="#B0B0B0" stroke-width="2.34938" stroke-linecap="butt" stroke-linejoin="round" stroke-miterlimit="4" stroke-dasharray="8.69272 3.75902" stroke-opacity="0.6" fill="none" fill-rule="nonzero" transform="matrix(1 0 0 1.00026 3339.2 1503)"/></g><path d="M0 0-10.2786 0" stroke="#000000" stroke-width="2.34938" stroke-linecap="butt" stroke-linejoin="round" stroke-miterlimit="4" stroke-opacity="1" fill="none" fill-rule="nonzero" transform="matrix(1 0 0 1.00026 3464.56 1832.29)"/><path d="M3.64338 2.43657 8.37427 2.43657 8.37427 18.7721 3.22582 17.7397 3.22582 20.3782 8.34674 21.4106 11.2422 21.4106 11.2422 2.43657 15.9731 2.43657 15.9731 0 3.64338 0 3.64338 2.43657Z" fill="#000000" fill-rule="nonzero" fill-opacity="1" transform="matrix(1 0 0 -1.00026 3370.94 1843.45)"/><path d="M3.17075 21.4106 14.5414 21.4106 14.5414 18.9694 5.82299 18.9694 5.82299 13.7246C6.24207 13.8684 6.66119 13.9755 7.08028 14.0458 7.50243 14.1162 7.92458 14.1514 8.34674 14.1514 10.7359 14.1514 12.6279 13.4967 14.0229 12.1874 15.4209 10.8782 16.1199 9.10538 16.1199 6.8692 16.1199 4.5657 15.4026 2.7746 13.9678 1.4959 12.5331 0.220255 10.5111-0.417566 7.90164-0.417566 7.00227-0.417566 6.08605-0.341089 5.15305-0.188134 4.22308-0.0351796 3.261 0.194252 2.26679 0.500162L2.26679 3.41395C3.12639 2.94591 4.01506 2.59717 4.93279 2.36774 5.85052 2.13831 6.82024 2.02359 7.84199 2.02359 9.49697 2.02359 10.8063 2.45798 11.7699 3.32677 12.7366 4.19555 13.2199 5.37637 13.2199 6.8692 13.2199 8.35899 12.7366 9.53827 11.7699 10.407 10.8063 11.2789 9.49697 11.7148 7.84199 11.7148 7.06802 11.7148 6.29562 11.6291 5.52472 11.4578 4.75691 11.2865 3.97224 11.0188 3.17075 10.6548L3.17075 21.4106Z" fill="#000000" fill-rule="nonzero" fill-opacity="1" transform="matrix(1 0 0 -1.00026 3389.62 1843.45)"/><path d="M9.3333 19.5017C7.8435 19.5017 6.72236 18.7675 5.96982 17.2992 5.22036 15.8339 4.84561 13.6283 4.84561 10.6824 4.84561 7.7487 5.22036 5.54767 5.96982 4.0793 6.72236 2.61094 7.8435 1.87675 9.3333 1.87675 10.8353 1.87675 11.9611 2.61094 12.7105 4.0793 13.4631 5.54767 13.8393 7.7487 13.8393 10.6824 13.8393 13.6283 13.4631 15.8339 12.7105 17.2992 11.9611 18.7675 10.8353 19.5017 9.3333 19.5017ZM9.3333 21.7961C11.7347 21.7961 13.5686 20.8462 14.8351 18.9465 16.1015 17.0499 16.7348 14.2951 16.7348 10.6824 16.7348 7.07876 16.1015 4.32709 14.8351 2.42739 13.5686 0.530754 11.7347-0.417566 9.3333-0.417566 6.93495-0.417566 5.10257 0.530754 3.8361 2.42739 2.56964 4.32709 1.93641 7.07876 1.93641 10.6824 1.93641 14.2951 2.56964 17.0499 3.8361 18.9465 5.10257 20.8462 6.93495 21.7961 9.3333 21.7961Z" fill="#000000" fill-rule="nonzero" fill-opacity="1" transform="matrix(1 0 0 -1.00026 3408.31 1843.45)"/><path d="M2.666 22.3146 5.31824 22.3146 5.31824 9.13599 13.1923 16.0602 16.5604 16.0602 8.04389 8.54864 16.9229 0 13.4814 0 5.31824 7.84199 5.31824 0 2.666 0 2.666 22.3146Z" fill="#000000" fill-rule="nonzero" fill-opacity="1" transform="matrix(1 0 0 -1.00026 3426.99 1843.45)"/><g><path d="M125.354 186.277 1025.51 186.277" stroke="#B0B0B0" stroke-width="2.34938" stroke-linecap="butt" stroke-linejoin="round" stroke-miterlimit="4" stroke-dasharray="8.69272 3.75902" stroke-opacity="0.6" fill="none" fill-rule="nonzero" transform="matrix(1 0 0 1.00026 3339.2 1503)"/></g><path d="M0 0-10.2786 0" stroke="#000000" stroke-width="2.34938" stroke-linecap="butt" stroke-linejoin="round" stroke-miterlimit="4" stroke-opacity="1" fill="none" fill-rule="nonzero" transform="matrix(1 0 0 1.00026 3464.56 1689.33)"/><path d="M3.64338 2.43657 8.37427 2.43657 8.37427 18.7721 3.22582 17.7397 3.22582 20.3782 8.34674 21.4106 11.2422 21.4106 11.2422 2.43657 15.9731 2.43657 15.9731 0 3.64338 0 3.64338 2.43657Z" fill="#000000" fill-rule="nonzero" fill-opacity="1" transform="matrix(1 0 0 -1.00026 3370.94 1700.49)"/><path d="M2.40904 21.4106 16.175 21.4106 16.175 20.1763 8.4018 0 5.37789 0 12.6922 18.9694 2.40904 18.9694 2.40904 21.4106Z" fill="#000000" fill-rule="nonzero" fill-opacity="1" transform="matrix(1 0 0 -1.00026 3389.62 1700.49)"/><path d="M3.17075 21.4106 14.5414 21.4106 14.5414 18.9694 5.82299 18.9694 5.82299 13.7246C6.24207 13.8684 6.66119 13.9755 7.08028 14.0458 7.50243 14.1162 7.92458 14.1514 8.34674 14.1514 10.7359 14.1514 12.6279 13.4967 14.0229 12.1874 15.4209 10.8782 16.1199 9.10538 16.1199 6.8692 16.1199 4.5657 15.4026 2.7746 13.9678 1.4959 12.5331 0.220255 10.5111-0.417566 7.90164-0.417566 7.00227-0.417566 6.08605-0.341089 5.15305-0.188134 4.22308-0.0351796 3.261 0.194252 2.26679 0.500162L2.26679 3.41395C3.12639 2.94591 4.01506 2.59717 4.93279 2.36774 5.85052 2.13831 6.82024 2.02359 7.84199 2.02359 9.49697 2.02359 10.8063 2.45798 11.7699 3.32677 12.7366 4.19555 13.2199 5.37637 13.2199 6.8692 13.2199 8.35899 12.7366 9.53827 11.7699 10.407 10.8063 11.2789 9.49697 11.7148 7.84199 11.7148 7.06802 11.7148 6.29562 11.6291 5.52472 11.4578 4.75691 11.2865 3.97224 11.0188 3.17075 10.6548L3.17075 21.4106Z" fill="#000000" fill-rule="nonzero" fill-opacity="1" transform="matrix(1 0 0 -1.00026 3408.31 1700.49)"/><path d="M2.666 22.3146 5.31824 22.3146 5.31824 9.13599 13.1923 16.0602 16.5604 16.0602 8.04389 8.54864 16.9229 0 13.4814 0 5.31824 7.84199 5.31824 0 2.666 0 2.666 22.3146Z" fill="#000000" fill-rule="nonzero" fill-opacity="1" transform="matrix(1 0 0 -1.00026 3426.99 1700.49)"/><g><path d="M125.354 43.3462 1025.51 43.3462" stroke="#B0B0B0" stroke-width="2.34938" stroke-linecap="butt" stroke-linejoin="round" stroke-miterlimit="4" stroke-dasharray="8.69272 3.75902" stroke-opacity="0.6" fill="none" fill-rule="nonzero" transform="matrix(1 0 0 1.00026 3339.2 1503)"/></g><path d="M0 0-10.2786 0" stroke="#000000" stroke-width="2.34938" stroke-linecap="butt" stroke-linejoin="round" stroke-miterlimit="4" stroke-opacity="1" fill="none" fill-rule="nonzero" transform="matrix(1 0 0 1.00026 3464.56 1546.36)"/><path d="M5.63485 2.43657 15.7436 2.43657 15.7436 0 2.15207 0 2.15207 2.43657C3.25029 3.57455 4.74773 5.10106 6.64435 7.01603 8.54405 8.93409 9.7371 10.1715 10.2235 10.7282 11.1504 11.7684 11.7974 12.6494 12.1645 13.3713 12.5347 14.0932 12.7197 14.803 12.7197 15.5004 12.7197 16.6384 12.3205 17.5653 11.5221 18.2812 10.7237 19.0001 9.68355 19.3595 8.4018 19.3595 7.49325 19.3595 6.53423 19.202 5.52472 18.8869 4.51828 18.5717 3.44148 18.093 2.29432 17.4506L2.29432 20.3782C3.45984 20.8462 4.54887 21.1995 5.56143 21.4381 6.57704 21.6767 7.5055 21.7961 8.34674 21.7961 10.5646 21.7961 12.3328 21.2408 13.6512 20.1304 14.9697 19.023 15.6289 17.5424 15.6289 15.6886 15.6289 14.8075 15.4637 13.9724 15.1333 13.1832 14.806 12.397 14.2064 11.4685 13.3346 10.3979 13.096 10.1195 12.3358 9.31802 11.054 7.99341 9.77532 6.66881 7.96896 4.81656 5.63485 2.43657Z" fill="#000000" fill-rule="nonzero" fill-opacity="1" transform="matrix(1 0 0 -1.00026 3370.94 1557.52)"/><path d="M9.3333 19.5017C7.8435 19.5017 6.72236 18.7675 5.96982 17.2992 5.22036 15.8339 4.84561 13.6283 4.84561 10.6824 4.84561 7.7487 5.22036 5.54767 5.96982 4.0793 6.72236 2.61094 7.8435 1.87675 9.3333 1.87675 10.8353 1.87675 11.9611 2.61094 12.7105 4.0793 13.4631 5.54767 13.8393 7.7487 13.8393 10.6824 13.8393 13.6283 13.4631 15.8339 12.7105 17.2992 11.9611 18.7675 10.8353 19.5017 9.3333 19.5017ZM9.3333 21.7961C11.7347 21.7961 13.5686 20.8462 14.8351 18.9465 16.1015 17.0499 16.7348 14.2951 16.7348 10.6824 16.7348 7.07876 16.1015 4.32709 14.8351 2.42739 13.5686 0.530754 11.7347-0.417566 9.3333-0.417566 6.93495-0.417566 5.10257 0.530754 3.8361 2.42739 2.56964 4.32709 1.93641 7.07876 1.93641 10.6824 1.93641 14.2951 2.56964 17.0499 3.8361 18.9465 5.10257 20.8462 6.93495 21.7961 9.3333 21.7961Z" fill="#000000" fill-rule="nonzero" fill-opacity="1" transform="matrix(1 0 0 -1.00026 3389.62 1557.52)"/><path d="M9.3333 19.5017C7.8435 19.5017 6.72236 18.7675 5.96982 17.2992 5.22036 15.8339 4.84561 13.6283 4.84561 10.6824 4.84561 7.7487 5.22036 5.54767 5.96982 4.0793 6.72236 2.61094 7.8435 1.87675 9.3333 1.87675 10.8353 1.87675 11.9611 2.61094 12.7105 4.0793 13.4631 5.54767 13.8393 7.7487 13.8393 10.6824 13.8393 13.6283 13.4631 15.8339 12.7105 17.2992 11.9611 18.7675 10.8353 19.5017 9.3333 19.5017ZM9.3333 21.7961C11.7347 21.7961 13.5686 20.8462 14.8351 18.9465 16.1015 17.0499 16.7348 14.2951 16.7348 10.6824 16.7348 7.07876 16.1015 4.32709 14.8351 2.42739 13.5686 0.530754 11.7347-0.417566 9.3333-0.417566 6.93495-0.417566 5.10257 0.530754 3.8361 2.42739 2.56964 4.32709 1.93641 7.07876 1.93641 10.6824 1.93641 14.2951 2.56964 17.0499 3.8361 18.9465 5.10257 20.8462 6.93495 21.7961 9.3333 21.7961Z" fill="#000000" fill-rule="nonzero" fill-opacity="1" transform="matrix(1 0 0 -1.00026 3408.31 1557.52)"/><path d="M2.666 22.3146 5.31824 22.3146 5.31824 9.13599 13.1923 16.0602 16.5604 16.0602 8.04389 8.54864 16.9229 0 13.4814 0 5.31824 7.84199 5.31824 0 2.666 0 2.666 22.3146Z" fill="#000000" fill-rule="nonzero" fill-opacity="1" transform="matrix(1 0 0 -1.00026 3426.99 1557.52)"/><g><path d="M234.464 950 404.946 756.467 575.432 603.727 745.915 483.207 916.398 387.51" stroke="#7F7F7F" stroke-width="5.87346" stroke-linecap="butt" stroke-linejoin="round" stroke-miterlimit="4" stroke-dasharray="21.7318 9.39754" stroke-opacity="1" fill="none" fill-rule="nonzero" transform="matrix(1 0 0 1.00026 3339.2 1503)"/></g><g><path d="M0 11.7469C3.11531 11.7469 6.10347 10.5092 8.30634 8.30634 10.5092 6.10347 11.7469 3.11531 11.7469 0 11.7469-3.11531 10.5092-6.10347 8.30634-8.30634 6.10347-10.5092 3.11531-11.7469 0-11.7469-3.11531-11.7469-6.10347-10.5092-8.30634-8.30634-10.5092-6.10347-11.7469-3.11531-11.7469 0-11.7469 3.11531-10.5092 6.10347-8.30634 8.30634-6.10347 10.5092-3.11531 11.7469 0 11.7469Z" stroke="#7F7F7F" stroke-width="2.93673" stroke-linecap="butt" stroke-linejoin="round" stroke-miterlimit="4" stroke-opacity="1" fill="#7F7F7F" fill-rule="nonzero" fill-opacity="1" transform="matrix(1 0 0 1.00026 3573.67 2453.25)"/><path d="M0 11.7469C3.11531 11.7469 6.10347 10.5092 8.30634 8.30634 10.5092 6.10347 11.7469 3.11531 11.7469 0 11.7469-3.11531 10.5092-6.10347 8.30634-8.30634 6.10347-10.5092 3.11531-11.7469 0-11.7469-3.11531-11.7469-6.10347-10.5092-8.30634-8.30634-10.5092-6.10347-11.7469-3.11531-11.7469 0-11.7469 3.11531-10.5092 6.10347-8.30634 8.30634-6.10347 10.5092-3.11531 11.7469 0 11.7469Z" stroke="#7F7F7F" stroke-width="2.93673" stroke-linecap="butt" stroke-linejoin="round" stroke-miterlimit="4" stroke-opacity="1" fill="#7F7F7F" fill-rule="nonzero" fill-opacity="1" transform="matrix(1 0 0 1.00026 3744.15 2259.66)"/><path d="M0 11.7469C3.11531 11.7469 6.10347 10.5092 8.30634 8.30634 10.5092 6.10347 11.7469 3.11531 11.7469 0 11.7469-3.11531 10.5092-6.10347 8.30634-8.30634 6.10347-10.5092 3.11531-11.7469 0-11.7469-3.11531-11.7469-6.10347-10.5092-8.30634-8.30634-10.5092-6.10347-11.7469-3.11531-11.7469 0-11.7469 3.11531-10.5092 6.10347-8.30634 8.30634-6.10347 10.5092-3.11531 11.7469 0 11.7469Z" stroke="#7F7F7F" stroke-width="2.93673" stroke-linecap="butt" stroke-linejoin="round" stroke-miterlimit="4" stroke-opacity="1" fill="#7F7F7F" fill-rule="nonzero" fill-opacity="1" transform="matrix(1 0 0 1.00026 3914.63 2106.89)"/><path d="M0 11.7469C3.11531 11.7469 6.10347 10.5092 8.30634 8.30634 10.5092 6.10347 11.7469 3.11531 11.7469 0 11.7469-3.11531 10.5092-6.10347 8.30634-8.30634 6.10347-10.5092 3.11531-11.7469 0-11.7469-3.11531-11.7469-6.10347-10.5092-8.30634-8.30634-10.5092-6.10347-11.7469-3.11531-11.7469 0-11.7469 3.11531-10.5092 6.10347-8.30634 8.30634-6.10347 10.5092-3.11531 11.7469 0 11.7469Z" stroke="#7F7F7F" stroke-width="2.93673" stroke-linecap="butt" stroke-linejoin="round" stroke-miterlimit="4" stroke-opacity="1" fill="#7F7F7F" fill-rule="nonzero" fill-opacity="1" transform="matrix(1 0 0 1.00026 4085.12 1986.33)"/><path d="M0 11.7469C3.11531 11.7469 6.10347 10.5092 8.30634 8.30634 10.5092 6.10347 11.7469 3.11531 11.7469 0 11.7469-3.11531 10.5092-6.10347 8.30634-8.30634 6.10347-10.5092 3.11531-11.7469 0-11.7469-3.11531-11.7469-6.10347-10.5092-8.30634-8.30634-10.5092-6.10347-11.7469-3.11531-11.7469 0-11.7469 3.11531-10.5092 6.10347-8.30634 8.30634-6.10347 10.5092-3.11531 11.7469 0 11.7469Z" stroke="#7F7F7F" stroke-width="2.93673" stroke-linecap="butt" stroke-linejoin="round" stroke-miterlimit="4" stroke-opacity="1" fill="#7F7F7F" fill-rule="nonzero" fill-opacity="1" transform="matrix(1 0 0 1.00026 4255.6 1890.61)"/></g><path d="M125.354 1186.79 125.354 43.3462" stroke="#000000" stroke-width="2.93673" stroke-linecap="square" stroke-linejoin="miter" stroke-miterlimit="4" stroke-opacity="1" fill="none" fill-rule="nonzero" transform="matrix(1 0 0 1.00026 3339.2 1503)"/><path d="M125.354 1186.79 1025.51 1186.79" stroke="#000000" stroke-width="2.93673" stroke-linecap="square" stroke-linejoin="miter" stroke-miterlimit="4" stroke-opacity="1" fill="none" fill-rule="nonzero" transform="matrix(1 0 0 1.00026 3339.2 1503)"/></g></g></g><g><g><g><path d="M0 1268.4 1057 1268.4 1057 0 0 0Z" fill="#FFFFFF" fill-rule="nonzero" fill-opacity="1" transform="matrix(1 0 0 1.00047 4399 1503)"/><path d="M125.328 1186.54 1025.29 1186.54 1025.29 43.337 125.328 43.337Z" fill="#FFFFFF" fill-rule="nonzero" fill-opacity="1" transform="matrix(1 0 0 1.00047 4399 1503)"/><g><path d="M166.235 1186.54 302.593 1186.54 302.593 925.125 166.235 925.125Z" fill="#806D9B" fill-rule="nonzero" fill-opacity="0.3" transform="matrix(1 0 0 1.00047 4399 1503)"/></g><g><path d="M336.684 1186.54 473.04 1186.54 473.04 949.691 336.684 949.691Z" fill="#806D9B" fill-rule="nonzero" fill-opacity="0.3" transform="matrix(1 0 0 1.00047 4399 1503)"/></g><g><path d="M507.131 1186.54 643.487 1186.54 643.487 976.923 507.131 976.923Z" fill="#806D9B" fill-rule="nonzero" fill-opacity="0.3" transform="matrix(1 0 0 1.00047 4399 1503)"/></g><g><path d="M677.578 1186.54 813.934 1186.54 813.934 1001.14 677.578 1001.14Z" fill="#806D9B" fill-rule="nonzero" fill-opacity="0.3" transform="matrix(1 0 0 1.00047 4399 1503)"/></g><g><path d="M848.025 1186.54 984.381 1186.54 984.381 1022.21 848.025 1022.21Z" fill="#806D9B" fill-rule="nonzero" fill-opacity="0.3" transform="matrix(1 0 0 1.00047 4399 1503)"/></g><path d="M0 0 0 10.2764" stroke="#000000" stroke-width="2.34889" stroke-linecap="butt" stroke-linejoin="round" stroke-miterlimit="4" stroke-opacity="1" fill="none" fill-rule="nonzero" transform="matrix(1 0 0 1.00047 4633.41 2690.1)"/><path d="M3.64261 2.43605 8.3725 2.43605 8.3725 18.7682 3.22513 17.7359 3.22513 20.3739 8.34498 21.4061 11.2398 21.4061 11.2398 2.43605 15.9697 2.43605 15.9697 0 3.64261 0 3.64261 2.43605Z" fill="#000000" fill-rule="nonzero" fill-opacity="1" transform="matrix(1 0 0 -1.00047 4624.07 2732.98)"/><path d="M0 0 0 10.2764" stroke="#000000" stroke-width="2.34889" stroke-linecap="butt" stroke-linejoin="round" stroke-miterlimit="4" stroke-opacity="1" fill="none" fill-rule="nonzero" transform="matrix(1 0 0 1.00047 4803.86 2690.1)"/><path d="M5.63366 2.43605 15.7403 2.43605 15.7403 0 2.15162 0 2.15162 2.43605C3.2496 3.5738 4.74673 5.09998 6.64295 7.01455 8.54225 8.9322 9.73504 10.1694 10.2213 10.726 11.148 11.7659 11.7949 12.6467 12.1619 13.3685 12.532 14.0903 12.717 14.7998 12.717 15.4972 12.717 16.6349 12.3179 17.5616 11.5196 18.2773 10.7214 18.996 9.68151 19.3554 8.40003 19.3554 7.49167 19.3554 6.53285 19.1979 5.52356 18.8829 4.51733 18.5678 3.44076 18.0892 2.29384 17.4469L2.29384 20.3739C3.45911 20.8418 4.54791 21.1951 5.56026 21.4336 6.57565 21.6722 7.50392 21.7914 8.34498 21.7914 10.5623 21.7914 12.3302 21.2363 13.6483 20.1261 14.9665 19.019 15.6256 17.5387 15.6256 15.6853 15.6256 14.8044 15.4605 13.9695 15.1301 13.1804 14.8029 12.3944 14.2034 11.4661 13.3318 10.3957 13.0932 10.1173 12.3332 9.31605 11.0517 7.99173 9.77326 6.6674 7.96728 4.81554 5.63366 2.43605Z" fill="#000000" fill-rule="nonzero" fill-opacity="1" transform="matrix(1 0 0 -1.00047 4794.52 2732.98)"/><path d="M0 0 0 10.2764" stroke="#000000" stroke-width="2.34889" stroke-linecap="butt" stroke-linejoin="round" stroke-miterlimit="4" stroke-opacity="1" fill="none" fill-rule="nonzero" transform="matrix(1 0 0 1.00047 4974.31 2690.1)"/><path d="M11.9142 11.5426C13.2997 11.2459 14.3808 10.6281 15.1577 9.68917 15.9376 8.75328 16.3275 7.59719 16.3275 6.22089 16.3275 4.11056 15.6012 2.47582 14.1484 1.31666 12.6956 0.160569 10.6312-0.417478 7.95503-0.417478 7.05892-0.417478 6.13523-0.328783 5.18407-0.151393 4.23289 0.0259968 3.25113 0.292082 2.23878 0.646862L2.23878 3.44076C3.0401 2.97281 3.91787 2.61956 4.87211 2.381 5.82942 2.14244 6.82953 2.02316 7.87245 2.02316 9.68609 2.02316 11.0685 2.381 12.0197 3.09668 12.9709 3.81236 13.4465 4.85376 13.4465 6.22089 13.4465 7.48401 13.0045 8.47036 12.1206 9.17993 11.2367 9.89254 10.0072 10.2489 8.43214 10.2489L5.93645 10.2489 5.93645 12.6299 8.54684 12.6299C9.96902 12.6299 11.0578 12.9143 11.8133 13.4832 12.5687 14.052 12.9464 14.8717 12.9464 15.9422 12.9464 17.0401 12.5565 17.8828 11.7766 18.47 10.9997 19.0603 9.88492 19.3554 8.43214 19.3554 7.63696 19.3554 6.78517 19.2682 5.87681 19.0939 4.96845 18.9226 3.96987 18.6566 2.88106 18.2956L2.88106 20.8739C3.9821 21.1798 5.01281 21.4092 5.97315 21.5621 6.93349 21.715 7.83882 21.7914 8.68905 21.7914 10.8881 21.7914 12.6268 21.2914 13.9052 20.2913 15.1867 19.2942 15.8275 17.9455 15.8275 16.245 15.8275 15.0583 15.488 14.0566 14.809 13.24 14.13 12.4234 13.1651 11.8576 11.9142 11.5426Z" fill="#000000" fill-rule="nonzero" fill-opacity="1" transform="matrix(1 0 0 -1.00047 4964.97 2732.98)"/><path d="M0 0 0 10.2764" stroke="#000000" stroke-width="2.34889" stroke-linecap="butt" stroke-linejoin="round" stroke-miterlimit="4" stroke-opacity="1" fill="none" fill-rule="nonzero" transform="matrix(1 0 0 1.00047 5144.76 2690.1)"/><path d="M11.0976 18.8829 3.78483 7.45497 11.0976 7.45497 11.0976 18.8829ZM10.336 21.4061 13.9786 21.4061 13.9786 7.45497 17.034 7.45497 17.034 5.04644 13.9786 5.04644 13.9786 0 11.0976 0 11.0976 5.04644 1.43594 5.04644 1.43594 7.84033 10.336 21.4061Z" fill="#000000" fill-rule="nonzero" fill-opacity="1" transform="matrix(1 0 0 -1.00047 5135.42 2732.98)"/><path d="M0 0 0 10.2764" stroke="#000000" stroke-width="2.34889" stroke-linecap="butt" stroke-linejoin="round" stroke-miterlimit="4" stroke-opacity="1" fill="none" fill-rule="nonzero" transform="matrix(1 0 0 1.00047 5315.2 2690.1)"/><path d="M3.17008 21.4061 14.5383 21.4061 14.5383 18.9654 5.82176 18.9654 5.82176 13.7217C6.24075 13.8655 6.65979 13.9725 7.07878 14.0429 7.50085 14.1132 7.92291 14.1484 8.34498 14.1484 10.7336 14.1484 12.6253 13.4939 14.0199 12.1849 15.4177 10.8759 16.1165 9.10346 16.1165 6.86775 16.1165 4.56474 15.3993 2.77401 13.9649 1.49558 12.5305 0.220208 10.5088-0.417478 7.89997-0.417478 7.00079-0.417478 6.08477-0.341017 5.15196-0.188095 4.22219-0.0351722 3.26031 0.194211 2.26631 0.500056L2.26631 3.41323C3.12573 2.94529 4.01421 2.59662 4.93175 2.36724 5.84928 2.13786 6.8188 2.02316 7.84033 2.02316 9.49497 2.02316 10.804 2.45747 11.7674 3.32606 12.7339 4.19466 13.2171 5.37524 13.2171 6.86775 13.2171 8.35723 12.7339 9.53626 11.7674 10.4048 10.804 11.2765 9.49497 11.7123 7.84033 11.7123 7.06653 11.7123 6.29429 11.6267 5.52356 11.4554 4.7559 11.2842 3.9714 11.0165 3.17008 10.6526L3.17008 21.4061Z" fill="#000000" fill-rule="nonzero" fill-opacity="1" transform="matrix(1 0 0 -1.00047 5305.86 2732.98)"/><g><path d="M125.328 1186.54 1025.29 1186.54" stroke="#B0B0B0" stroke-width="2.34889" stroke-linecap="butt" stroke-linejoin="round" stroke-miterlimit="4" stroke-dasharray="8.69089 3.75822" stroke-opacity="0.6" fill="none" fill-rule="nonzero" transform="matrix(1 0 0 1.00047 4399 1503)"/></g><path d="M0 0-10.2764 0" stroke="#000000" stroke-width="2.34889" stroke-linecap="butt" stroke-linejoin="round" stroke-miterlimit="4" stroke-opacity="1" fill="none" fill-rule="nonzero" transform="matrix(1 0 0 1.00047 4524.33 2690.1)"/><path d="M9.33133 19.4976C7.84185 19.4976 6.72094 18.7636 5.96856 17.2955 5.21926 15.8305 4.84458 13.6254 4.84458 10.6801 4.84458 7.74707 5.21926 5.5465 5.96856 4.07844 6.72094 2.61039 7.84185 1.87636 9.33133 1.87636 10.833 1.87636 11.9586 2.61039 12.7079 4.07844 13.4602 5.5465 13.8364 7.74707 13.8364 10.6801 13.8364 13.6254 13.4602 15.8305 12.7079 17.2955 11.9586 18.7636 10.833 19.4976 9.33133 19.4976ZM9.33133 21.7914C11.7322 21.7914 13.5658 20.8418 14.8319 18.9425 16.0981 17.0463 16.7312 14.2921 16.7312 10.6801 16.7312 7.07727 16.0981 4.32618 14.8319 2.42688 13.5658 0.530642 11.7322-0.417478 9.33133-0.417478 6.93349-0.417478 5.10149 0.530642 3.8353 2.42688 2.5691 4.32618 1.936 7.07727 1.936 10.6801 1.936 14.2921 2.5691 17.0463 3.8353 18.9425 5.10149 20.8418 6.93349 21.7914 9.33133 21.7914Z" fill="#000000" fill-rule="nonzero" fill-opacity="1" transform="matrix(1 0 0 -1.00047 4468.09 2701.26)"/><path d="M2.66544 22.3099 5.31711 22.3099 5.31711 9.13406 13.1896 16.0569 16.5569 16.0569 8.04219 8.54684 16.9193 0 13.4786 0 5.31711 7.84033 5.31711 0 2.66544 0 2.66544 22.3099Z" fill="#000000" fill-rule="nonzero" fill-opacity="1" transform="matrix(1 0 0 -1.00047 4486.77 2701.26)"/><g><path d="M125.328 1043.64 1025.29 1043.64" stroke="#B0B0B0" stroke-width="2.34889" stroke-linecap="butt" stroke-linejoin="round" stroke-miterlimit="4" stroke-dasharray="8.69089 3.75822" stroke-opacity="0.6" fill="none" fill-rule="nonzero" transform="matrix(1 0 0 1.00047 4399 1503)"/></g><path d="M0 0-10.2764 0" stroke="#000000" stroke-width="2.34889" stroke-linecap="butt" stroke-linejoin="round" stroke-miterlimit="4" stroke-opacity="1" fill="none" fill-rule="nonzero" transform="matrix(1 0 0 1.00047 4524.33 2547.13)"/><path d="M5.63366 2.43605 15.7403 2.43605 15.7403 0 2.15162 0 2.15162 2.43605C3.2496 3.5738 4.74673 5.09998 6.64295 7.01455 8.54225 8.9322 9.73504 10.1694 10.2213 10.726 11.148 11.7659 11.7949 12.6467 12.1619 13.3685 12.532 14.0903 12.717 14.7998 12.717 15.4972 12.717 16.6349 12.3179 17.5616 11.5196 18.2773 10.7214 18.996 9.68151 19.3554 8.40003 19.3554 7.49167 19.3554 6.53285 19.1979 5.52356 18.8829 4.51733 18.5678 3.44076 18.0892 2.29384 17.4469L2.29384 20.3739C3.45911 20.8418 4.54791 21.1951 5.56026 21.4336 6.57565 21.6722 7.50392 21.7914 8.34498 21.7914 10.5623 21.7914 12.3302 21.2363 13.6483 20.1261 14.9665 19.019 15.6256 17.5387 15.6256 15.6853 15.6256 14.8044 15.4605 13.9695 15.1301 13.1804 14.8029 12.3944 14.2034 11.4661 13.3318 10.3957 13.0932 10.1173 12.3332 9.31605 11.0517 7.99173 9.77326 6.6674 7.96728 4.81554 5.63366 2.43605Z" fill="#000000" fill-rule="nonzero" fill-opacity="1" transform="matrix(1 0 0 -1.00047 4449.41 2558.29)"/><path d="M3.17008 21.4061 14.5383 21.4061 14.5383 18.9654 5.82176 18.9654 5.82176 13.7217C6.24075 13.8655 6.65979 13.9725 7.07878 14.0429 7.50085 14.1132 7.92291 14.1484 8.34498 14.1484 10.7336 14.1484 12.6253 13.4939 14.0199 12.1849 15.4177 10.8759 16.1165 9.10346 16.1165 6.86775 16.1165 4.56474 15.3993 2.77401 13.9649 1.49558 12.5305 0.220208 10.5088-0.417478 7.89997-0.417478 7.00079-0.417478 6.08477-0.341017 5.15196-0.188095 4.22219-0.0351722 3.26031 0.194211 2.26631 0.500056L2.26631 3.41323C3.12573 2.94529 4.01421 2.59662 4.93175 2.36724 5.84928 2.13786 6.8188 2.02316 7.84033 2.02316 9.49497 2.02316 10.804 2.45747 11.7674 3.32606 12.7339 4.19466 13.2171 5.37524 13.2171 6.86775 13.2171 8.35723 12.7339 9.53626 11.7674 10.4048 10.804 11.2765 9.49497 11.7123 7.84033 11.7123 7.06653 11.7123 6.29429 11.6267 5.52356 11.4554 4.7559 11.2842 3.9714 11.0165 3.17008 10.6526L3.17008 21.4061Z" fill="#000000" fill-rule="nonzero" fill-opacity="1" transform="matrix(1 0 0 -1.00047 4468.09 2558.29)"/><path d="M2.66544 22.3099 5.31711 22.3099 5.31711 9.13406 13.1896 16.0569 16.5569 16.0569 8.04219 8.54684 16.9193 0 13.4786 0 5.31711 7.84033 5.31711 0 2.66544 0 2.66544 22.3099Z" fill="#000000" fill-rule="nonzero" fill-opacity="1" transform="matrix(1 0 0 -1.00047 4486.77 2558.29)"/><g><path d="M125.328 900.74 1025.29 900.74" stroke="#B0B0B0" stroke-width="2.34889" stroke-linecap="butt" stroke-linejoin="round" stroke-miterlimit="4" stroke-dasharray="8.69089 3.75822" stroke-opacity="0.6" fill="none" fill-rule="nonzero" transform="matrix(1 0 0 1.00047 4399 1503)"/></g><path d="M0 0-10.2764 0" stroke="#000000" stroke-width="2.34889" stroke-linecap="butt" stroke-linejoin="round" stroke-miterlimit="4" stroke-opacity="1" fill="none" fill-rule="nonzero" transform="matrix(1 0 0 1.00047 4524.33 2404.17)"/><path d="M3.17008 21.4061 14.5383 21.4061 14.5383 18.9654 5.82176 18.9654 5.82176 13.7217C6.24075 13.8655 6.65979 13.9725 7.07878 14.0429 7.50085 14.1132 7.92291 14.1484 8.34498 14.1484 10.7336 14.1484 12.6253 13.4939 14.0199 12.1849 15.4177 10.8759 16.1165 9.10346 16.1165 6.86775 16.1165 4.56474 15.3993 2.77401 13.9649 1.49558 12.5305 0.220208 10.5088-0.417478 7.89997-0.417478 7.00079-0.417478 6.08477-0.341017 5.15196-0.188095 4.22219-0.0351722 3.26031 0.194211 2.26631 0.500056L2.26631 3.41323C3.12573 2.94529 4.01421 2.59662 4.93175 2.36724 5.84928 2.13786 6.8188 2.02316 7.84033 2.02316 9.49497 2.02316 10.804 2.45747 11.7674 3.32606 12.7339 4.19466 13.2171 5.37524 13.2171 6.86775 13.2171 8.35723 12.7339 9.53626 11.7674 10.4048 10.804 11.2765 9.49497 11.7123 7.84033 11.7123 7.06653 11.7123 6.29429 11.6267 5.52356 11.4554 4.7559 11.2842 3.9714 11.0165 3.17008 10.6526L3.17008 21.4061Z" fill="#000000" fill-rule="nonzero" fill-opacity="1" transform="matrix(1 0 0 -1.00047 4449.41 2415.33)"/><path d="M9.33133 19.4976C7.84185 19.4976 6.72094 18.7636 5.96856 17.2955 5.21926 15.8305 4.84458 13.6254 4.84458 10.6801 4.84458 7.74707 5.21926 5.5465 5.96856 4.07844 6.72094 2.61039 7.84185 1.87636 9.33133 1.87636 10.833 1.87636 11.9586 2.61039 12.7079 4.07844 13.4602 5.5465 13.8364 7.74707 13.8364 10.6801 13.8364 13.6254 13.4602 15.8305 12.7079 17.2955 11.9586 18.7636 10.833 19.4976 9.33133 19.4976ZM9.33133 21.7914C11.7322 21.7914 13.5658 20.8418 14.8319 18.9425 16.0981 17.0463 16.7312 14.2921 16.7312 10.6801 16.7312 7.07727 16.0981 4.32618 14.8319 2.42688 13.5658 0.530642 11.7322-0.417478 9.33133-0.417478 6.93349-0.417478 5.10149 0.530642 3.8353 2.42688 2.5691 4.32618 1.936 7.07727 1.936 10.6801 1.936 14.2921 2.5691 17.0463 3.8353 18.9425 5.10149 20.8418 6.93349 21.7914 9.33133 21.7914Z" fill="#000000" fill-rule="nonzero" fill-opacity="1" transform="matrix(1 0 0 -1.00047 4468.09 2415.33)"/><path d="M2.66544 22.3099 5.31711 22.3099 5.31711 9.13406 13.1896 16.0569 16.5569 16.0569 8.04219 8.54684 16.9193 0 13.4786 0 5.31711 7.84033 5.31711 0 2.66544 0 2.66544 22.3099Z" fill="#000000" fill-rule="nonzero" fill-opacity="1" transform="matrix(1 0 0 -1.00047 4486.77 2415.33)"/><g><path d="M125.328 757.84 1025.29 757.84" stroke="#B0B0B0" stroke-width="2.34889" stroke-linecap="butt" stroke-linejoin="round" stroke-miterlimit="4" stroke-dasharray="8.69089 3.75822" stroke-opacity="0.6" fill="none" fill-rule="nonzero" transform="matrix(1 0 0 1.00047 4399 1503)"/></g><path d="M0 0-10.2764 0" stroke="#000000" stroke-width="2.34889" stroke-linecap="butt" stroke-linejoin="round" stroke-miterlimit="4" stroke-opacity="1" fill="none" fill-rule="nonzero" transform="matrix(1 0 0 1.00047 4524.33 2261.2)"/><path d="M2.40853 21.4061 16.1715 21.4061 16.1715 20.172 8.40003 0 5.37675 0 12.6895 18.9654 2.40853 18.9654 2.40853 21.4061Z" fill="#000000" fill-rule="nonzero" fill-opacity="1" transform="matrix(1 0 0 -1.00047 4449.41 2272.36)"/><path d="M3.17008 21.4061 14.5383 21.4061 14.5383 18.9654 5.82176 18.9654 5.82176 13.7217C6.24075 13.8655 6.65979 13.9725 7.07878 14.0429 7.50085 14.1132 7.92291 14.1484 8.34498 14.1484 10.7336 14.1484 12.6253 13.4939 14.0199 12.1849 15.4177 10.8759 16.1165 9.10346 16.1165 6.86775 16.1165 4.56474 15.3993 2.77401 13.9649 1.49558 12.5305 0.220208 10.5088-0.417478 7.89997-0.417478 7.00079-0.417478 6.08477-0.341017 5.15196-0.188095 4.22219-0.0351722 3.26031 0.194211 2.26631 0.500056L2.26631 3.41323C3.12573 2.94529 4.01421 2.59662 4.93175 2.36724 5.84928 2.13786 6.8188 2.02316 7.84033 2.02316 9.49497 2.02316 10.804 2.45747 11.7674 3.32606 12.7339 4.19466 13.2171 5.37524 13.2171 6.86775 13.2171 8.35723 12.7339 9.53626 11.7674 10.4048 10.804 11.2765 9.49497 11.7123 7.84033 11.7123 7.06653 11.7123 6.29429 11.6267 5.52356 11.4554 4.7559 11.2842 3.9714 11.0165 3.17008 10.6526L3.17008 21.4061Z" fill="#000000" fill-rule="nonzero" fill-opacity="1" transform="matrix(1 0 0 -1.00047 4468.09 2272.36)"/><path d="M2.66544 22.3099 5.31711 22.3099 5.31711 9.13406 13.1896 16.0569 16.5569 16.0569 8.04219 8.54684 16.9193 0 13.4786 0 5.31711 7.84033 5.31711 0 2.66544 0 2.66544 22.3099Z" fill="#000000" fill-rule="nonzero" fill-opacity="1" transform="matrix(1 0 0 -1.00047 4486.77 2272.36)"/><g><path d="M125.328 614.939 1025.29 614.939" stroke="#B0B0B0" stroke-width="2.34889" stroke-linecap="butt" stroke-linejoin="round" stroke-miterlimit="4" stroke-dasharray="8.69089 3.75822" stroke-opacity="0.6" fill="none" fill-rule="nonzero" transform="matrix(1 0 0 1.00047 4399 1503)"/></g><path d="M0 0-10.2764 0" stroke="#000000" stroke-width="2.34889" stroke-linecap="butt" stroke-linejoin="round" stroke-miterlimit="4" stroke-opacity="1" fill="none" fill-rule="nonzero" transform="matrix(1 0 0 1.00047 4524.33 2118.23)"/><path d="M3.64261 2.43605 8.3725 2.43605 8.3725 18.7682 3.22513 17.7359 3.22513 20.3739 8.34498 21.4061 11.2398 21.4061 11.2398 2.43605 15.9697 2.43605 15.9697 0 3.64261 0 3.64261 2.43605Z" fill="#000000" fill-rule="nonzero" fill-opacity="1" transform="matrix(1 0 0 -1.00047 4430.73 2129.39)"/><path d="M9.33133 19.4976C7.84185 19.4976 6.72094 18.7636 5.96856 17.2955 5.21926 15.8305 4.84458 13.6254 4.84458 10.6801 4.84458 7.74707 5.21926 5.5465 5.96856 4.07844 6.72094 2.61039 7.84185 1.87636 9.33133 1.87636 10.833 1.87636 11.9586 2.61039 12.7079 4.07844 13.4602 5.5465 13.8364 7.74707 13.8364 10.6801 13.8364 13.6254 13.4602 15.8305 12.7079 17.2955 11.9586 18.7636 10.833 19.4976 9.33133 19.4976ZM9.33133 21.7914C11.7322 21.7914 13.5658 20.8418 14.8319 18.9425 16.0981 17.0463 16.7312 14.2921 16.7312 10.6801 16.7312 7.07727 16.0981 4.32618 14.8319 2.42688 13.5658 0.530642 11.7322-0.417478 9.33133-0.417478 6.93349-0.417478 5.10149 0.530642 3.8353 2.42688 2.5691 4.32618 1.936 7.07727 1.936 10.6801 1.936 14.2921 2.5691 17.0463 3.8353 18.9425 5.10149 20.8418 6.93349 21.7914 9.33133 21.7914Z" fill="#000000" fill-rule="nonzero" fill-opacity="1" transform="matrix(1 0 0 -1.00047 4449.41 2129.39)"/><path d="M9.33133 19.4976C7.84185 19.4976 6.72094 18.7636 5.96856 17.2955 5.21926 15.8305 4.84458 13.6254 4.84458 10.6801 4.84458 7.74707 5.21926 5.5465 5.96856 4.07844 6.72094 2.61039 7.84185 1.87636 9.33133 1.87636 10.833 1.87636 11.9586 2.61039 12.7079 4.07844 13.4602 5.5465 13.8364 7.74707 13.8364 10.6801 13.8364 13.6254 13.4602 15.8305 12.7079 17.2955 11.9586 18.7636 10.833 19.4976 9.33133 19.4976ZM9.33133 21.7914C11.7322 21.7914 13.5658 20.8418 14.8319 18.9425 16.0981 17.0463 16.7312 14.2921 16.7312 10.6801 16.7312 7.07727 16.0981 4.32618 14.8319 2.42688 13.5658 0.530642 11.7322-0.417478 9.33133-0.417478 6.93349-0.417478 5.10149 0.530642 3.8353 2.42688 2.5691 4.32618 1.936 7.07727 1.936 10.6801 1.936 14.2921 2.5691 17.0463 3.8353 18.9425 5.10149 20.8418 6.93349 21.7914 9.33133 21.7914Z" fill="#000000" fill-rule="nonzero" fill-opacity="1" transform="matrix(1 0 0 -1.00047 4468.09 2129.39)"/><path d="M2.66544 22.3099 5.31711 22.3099 5.31711 9.13406 13.1896 16.0569 16.5569 16.0569 8.04219 8.54684 16.9193 0 13.4786 0 5.31711 7.84033 5.31711 0 2.66544 0 2.66544 22.3099Z" fill="#000000" fill-rule="nonzero" fill-opacity="1" transform="matrix(1 0 0 -1.00047 4486.77 2129.39)"/><g><path d="M125.328 472.039 1025.29 472.039" stroke="#B0B0B0" stroke-width="2.34889" stroke-linecap="butt" stroke-linejoin="round" stroke-miterlimit="4" stroke-dasharray="8.69089 3.75822" stroke-opacity="0.6" fill="none" fill-rule="nonzero" transform="matrix(1 0 0 1.00047 4399 1503)"/></g><path d="M0 0-10.2764 0" stroke="#000000" stroke-width="2.34889" stroke-linecap="butt" stroke-linejoin="round" stroke-miterlimit="4" stroke-opacity="1" fill="none" fill-rule="nonzero" transform="matrix(1 0 0 1.00047 4524.33 1975.26)"/><path d="M3.64261 2.43605 8.3725 2.43605 8.3725 18.7682 3.22513 17.7359 3.22513 20.3739 8.34498 21.4061 11.2398 21.4061 11.2398 2.43605 15.9697 2.43605 15.9697 0 3.64261 0 3.64261 2.43605Z" fill="#000000" fill-rule="nonzero" fill-opacity="1" transform="matrix(1 0 0 -1.00047 4430.73 1986.42)"/><path d="M5.63366 2.43605 15.7403 2.43605 15.7403 0 2.15162 0 2.15162 2.43605C3.2496 3.5738 4.74673 5.09998 6.64295 7.01455 8.54225 8.9322 9.73504 10.1694 10.2213 10.726 11.148 11.7659 11.7949 12.6467 12.1619 13.3685 12.532 14.0903 12.717 14.7998 12.717 15.4972 12.717 16.6349 12.3179 17.5616 11.5196 18.2773 10.7214 18.996 9.68151 19.3554 8.40003 19.3554 7.49167 19.3554 6.53285 19.1979 5.52356 18.8829 4.51733 18.5678 3.44076 18.0892 2.29384 17.4469L2.29384 20.3739C3.45911 20.8418 4.54791 21.1951 5.56026 21.4336 6.57565 21.6722 7.50392 21.7914 8.34498 21.7914 10.5623 21.7914 12.3302 21.2363 13.6483 20.1261 14.9665 19.019 15.6256 17.5387 15.6256 15.6853 15.6256 14.8044 15.4605 13.9695 15.1301 13.1804 14.8029 12.3944 14.2034 11.4661 13.3318 10.3957 13.0932 10.1173 12.3332 9.31605 11.0517 7.99173 9.77326 6.6674 7.96728 4.81554 5.63366 2.43605Z" fill="#000000" fill-rule="nonzero" fill-opacity="1" transform="matrix(1 0 0 -1.00047 4449.41 1986.42)"/><path d="M3.17008 21.4061 14.5383 21.4061 14.5383 18.9654 5.82176 18.9654 5.82176 13.7217C6.24075 13.8655 6.65979 13.9725 7.07878 14.0429 7.50085 14.1132 7.92291 14.1484 8.34498 14.1484 10.7336 14.1484 12.6253 13.4939 14.0199 12.1849 15.4177 10.8759 16.1165 9.10346 16.1165 6.86775 16.1165 4.56474 15.3993 2.77401 13.9649 1.49558 12.5305 0.220208 10.5088-0.417478 7.89997-0.417478 7.00079-0.417478 6.08477-0.341017 5.15196-0.188095 4.22219-0.0351722 3.26031 0.194211 2.26631 0.500056L2.26631 3.41323C3.12573 2.94529 4.01421 2.59662 4.93175 2.36724 5.84928 2.13786 6.8188 2.02316 7.84033 2.02316 9.49497 2.02316 10.804 2.45747 11.7674 3.32606 12.7339 4.19466 13.2171 5.37524 13.2171 6.86775 13.2171 8.35723 12.7339 9.53626 11.7674 10.4048 10.804 11.2765 9.49497 11.7123 7.84033 11.7123 7.06653 11.7123 6.29429 11.6267 5.52356 11.4554 4.7559 11.2842 3.9714 11.0165 3.17008 10.6526L3.17008 21.4061Z" fill="#000000" fill-rule="nonzero" fill-opacity="1" transform="matrix(1 0 0 -1.00047 4468.09 1986.42)"/><path d="M2.66544 22.3099 5.31711 22.3099 5.31711 9.13406 13.1896 16.0569 16.5569 16.0569 8.04219 8.54684 16.9193 0 13.4786 0 5.31711 7.84033 5.31711 0 2.66544 0 2.66544 22.3099Z" fill="#000000" fill-rule="nonzero" fill-opacity="1" transform="matrix(1 0 0 -1.00047 4486.77 1986.42)"/><g><path d="M125.328 329.138 1025.29 329.138" stroke="#B0B0B0" stroke-width="2.34889" stroke-linecap="butt" stroke-linejoin="round" stroke-miterlimit="4" stroke-dasharray="8.69089 3.75822" stroke-opacity="0.6" fill="none" fill-rule="nonzero" transform="matrix(1 0 0 1.00047 4399 1503)"/></g><path d="M0 0-10.2764 0" stroke="#000000" stroke-width="2.34889" stroke-linecap="butt" stroke-linejoin="round" stroke-miterlimit="4" stroke-opacity="1" fill="none" fill-rule="nonzero" transform="matrix(1 0 0 1.00047 4524.33 1832.29)"/><path d="M3.64261 2.43605 8.3725 2.43605 8.3725 18.7682 3.22513 17.7359 3.22513 20.3739 8.34498 21.4061 11.2398 21.4061 11.2398 2.43605 15.9697 2.43605 15.9697 0 3.64261 0 3.64261 2.43605Z" fill="#000000" fill-rule="nonzero" fill-opacity="1" transform="matrix(1 0 0 -1.00047 4430.73 1843.45)"/><path d="M3.17008 21.4061 14.5383 21.4061 14.5383 18.9654 5.82176 18.9654 5.82176 13.7217C6.24075 13.8655 6.65979 13.9725 7.07878 14.0429 7.50085 14.1132 7.92291 14.1484 8.34498 14.1484 10.7336 14.1484 12.6253 13.4939 14.0199 12.1849 15.4177 10.8759 16.1165 9.10346 16.1165 6.86775 16.1165 4.56474 15.3993 2.77401 13.9649 1.49558 12.5305 0.220208 10.5088-0.417478 7.89997-0.417478 7.00079-0.417478 6.08477-0.341017 5.15196-0.188095 4.22219-0.0351722 3.26031 0.194211 2.26631 0.500056L2.26631 3.41323C3.12573 2.94529 4.01421 2.59662 4.93175 2.36724 5.84928 2.13786 6.8188 2.02316 7.84033 2.02316 9.49497 2.02316 10.804 2.45747 11.7674 3.32606 12.7339 4.19466 13.2171 5.37524 13.2171 6.86775 13.2171 8.35723 12.7339 9.53626 11.7674 10.4048 10.804 11.2765 9.49497 11.7123 7.84033 11.7123 7.06653 11.7123 6.29429 11.6267 5.52356 11.4554 4.7559 11.2842 3.9714 11.0165 3.17008 10.6526L3.17008 21.4061Z" fill="#000000" fill-rule="nonzero" fill-opacity="1" transform="matrix(1 0 0 -1.00047 4449.41 1843.45)"/><path d="M9.33133 19.4976C7.84185 19.4976 6.72094 18.7636 5.96856 17.2955 5.21926 15.8305 4.84458 13.6254 4.84458 10.6801 4.84458 7.74707 5.21926 5.5465 5.96856 4.07844 6.72094 2.61039 7.84185 1.87636 9.33133 1.87636 10.833 1.87636 11.9586 2.61039 12.7079 4.07844 13.4602 5.5465 13.8364 7.74707 13.8364 10.6801 13.8364 13.6254 13.4602 15.8305 12.7079 17.2955 11.9586 18.7636 10.833 19.4976 9.33133 19.4976ZM9.33133 21.7914C11.7322 21.7914 13.5658 20.8418 14.8319 18.9425 16.0981 17.0463 16.7312 14.2921 16.7312 10.6801 16.7312 7.07727 16.0981 4.32618 14.8319 2.42688 13.5658 0.530642 11.7322-0.417478 9.33133-0.417478 6.93349-0.417478 5.10149 0.530642 3.8353 2.42688 2.5691 4.32618 1.936 7.07727 1.936 10.6801 1.936 14.2921 2.5691 17.0463 3.8353 18.9425 5.10149 20.8418 6.93349 21.7914 9.33133 21.7914Z" fill="#000000" fill-rule="nonzero" fill-opacity="1" transform="matrix(1 0 0 -1.00047 4468.09 1843.45)"/><path d="M2.66544 22.3099 5.31711 22.3099 5.31711 9.13406 13.1896 16.0569 16.5569 16.0569 8.04219 8.54684 16.9193 0 13.4786 0 5.31711 7.84033 5.31711 0 2.66544 0 2.66544 22.3099Z" fill="#000000" fill-rule="nonzero" fill-opacity="1" transform="matrix(1 0 0 -1.00047 4486.77 1843.45)"/><g><path d="M125.328 186.238 1025.29 186.238" stroke="#B0B0B0" stroke-width="2.34889" stroke-linecap="butt" stroke-linejoin="round" stroke-miterlimit="4" stroke-dasharray="8.69089 3.75822" stroke-opacity="0.6" fill="none" fill-rule="nonzero" transform="matrix(1 0 0 1.00047 4399 1503)"/></g><path d="M0 0-10.2764 0" stroke="#000000" stroke-width="2.34889" stroke-linecap="butt" stroke-linejoin="round" stroke-miterlimit="4" stroke-opacity="1" fill="none" fill-rule="nonzero" transform="matrix(1 0 0 1.00047 4524.33 1689.33)"/><path d="M3.64261 2.43605 8.3725 2.43605 8.3725 18.7682 3.22513 17.7359 3.22513 20.3739 8.34498 21.4061 11.2398 21.4061 11.2398 2.43605 15.9697 2.43605 15.9697 0 3.64261 0 3.64261 2.43605Z" fill="#000000" fill-rule="nonzero" fill-opacity="1" transform="matrix(1 0 0 -1.00047 4430.73 1700.49)"/><path d="M2.40853 21.4061 16.1715 21.4061 16.1715 20.172 8.40003 0 5.37675 0 12.6895 18.9654 2.40853 18.9654 2.40853 21.4061Z" fill="#000000" fill-rule="nonzero" fill-opacity="1" transform="matrix(1 0 0 -1.00047 4449.41 1700.49)"/><path d="M3.17008 21.4061 14.5383 21.4061 14.5383 18.9654 5.82176 18.9654 5.82176 13.7217C6.24075 13.8655 6.65979 13.9725 7.07878 14.0429 7.50085 14.1132 7.92291 14.1484 8.34498 14.1484 10.7336 14.1484 12.6253 13.4939 14.0199 12.1849 15.4177 10.8759 16.1165 9.10346 16.1165 6.86775 16.1165 4.56474 15.3993 2.77401 13.9649 1.49558 12.5305 0.220208 10.5088-0.417478 7.89997-0.417478 7.00079-0.417478 6.08477-0.341017 5.15196-0.188095 4.22219-0.0351722 3.26031 0.194211 2.26631 0.500056L2.26631 3.41323C3.12573 2.94529 4.01421 2.59662 4.93175 2.36724 5.84928 2.13786 6.8188 2.02316 7.84033 2.02316 9.49497 2.02316 10.804 2.45747 11.7674 3.32606 12.7339 4.19466 13.2171 5.37524 13.2171 6.86775 13.2171 8.35723 12.7339 9.53626 11.7674 10.4048 10.804 11.2765 9.49497 11.7123 7.84033 11.7123 7.06653 11.7123 6.29429 11.6267 5.52356 11.4554 4.7559 11.2842 3.9714 11.0165 3.17008 10.6526L3.17008 21.4061Z" fill="#000000" fill-rule="nonzero" fill-opacity="1" transform="matrix(1 0 0 -1.00047 4468.09 1700.49)"/><path d="M2.66544 22.3099 5.31711 22.3099 5.31711 9.13406 13.1896 16.0569 16.5569 16.0569 8.04219 8.54684 16.9193 0 13.4786 0 5.31711 7.84033 5.31711 0 2.66544 0 2.66544 22.3099Z" fill="#000000" fill-rule="nonzero" fill-opacity="1" transform="matrix(1 0 0 -1.00047 4486.77 1700.49)"/><g><path d="M125.328 43.337 1025.29 43.337" stroke="#B0B0B0" stroke-width="2.34889" stroke-linecap="butt" stroke-linejoin="round" stroke-miterlimit="4" stroke-dasharray="8.69089 3.75822" stroke-opacity="0.6" fill="none" fill-rule="nonzero" transform="matrix(1 0 0 1.00047 4399 1503)"/></g><path d="M0 0-10.2764 0" stroke="#000000" stroke-width="2.34889" stroke-linecap="butt" stroke-linejoin="round" stroke-miterlimit="4" stroke-opacity="1" fill="none" fill-rule="nonzero" transform="matrix(1 0 0 1.00047 4524.33 1546.36)"/><path d="M5.63366 2.43605 15.7403 2.43605 15.7403 0 2.15162 0 2.15162 2.43605C3.2496 3.5738 4.74673 5.09998 6.64295 7.01455 8.54225 8.9322 9.73504 10.1694 10.2213 10.726 11.148 11.7659 11.7949 12.6467 12.1619 13.3685 12.532 14.0903 12.717 14.7998 12.717 15.4972 12.717 16.6349 12.3179 17.5616 11.5196 18.2773 10.7214 18.996 9.68151 19.3554 8.40003 19.3554 7.49167 19.3554 6.53285 19.1979 5.52356 18.8829 4.51733 18.5678 3.44076 18.0892 2.29384 17.4469L2.29384 20.3739C3.45911 20.8418 4.54791 21.1951 5.56026 21.4336 6.57565 21.6722 7.50392 21.7914 8.34498 21.7914 10.5623 21.7914 12.3302 21.2363 13.6483 20.1261 14.9665 19.019 15.6256 17.5387 15.6256 15.6853 15.6256 14.8044 15.4605 13.9695 15.1301 13.1804 14.8029 12.3944 14.2034 11.4661 13.3318 10.3957 13.0932 10.1173 12.3332 9.31605 11.0517 7.99173 9.77326 6.6674 7.96728 4.81554 5.63366 2.43605Z" fill="#000000" fill-rule="nonzero" fill-opacity="1" transform="matrix(1 0 0 -1.00047 4430.73 1557.52)"/><path d="M9.33133 19.4976C7.84185 19.4976 6.72094 18.7636 5.96856 17.2955 5.21926 15.8305 4.84458 13.6254 4.84458 10.6801 4.84458 7.74707 5.21926 5.5465 5.96856 4.07844 6.72094 2.61039 7.84185 1.87636 9.33133 1.87636 10.833 1.87636 11.9586 2.61039 12.7079 4.07844 13.4602 5.5465 13.8364 7.74707 13.8364 10.6801 13.8364 13.6254 13.4602 15.8305 12.7079 17.2955 11.9586 18.7636 10.833 19.4976 9.33133 19.4976ZM9.33133 21.7914C11.7322 21.7914 13.5658 20.8418 14.8319 18.9425 16.0981 17.0463 16.7312 14.2921 16.7312 10.6801 16.7312 7.07727 16.0981 4.32618 14.8319 2.42688 13.5658 0.530642 11.7322-0.417478 9.33133-0.417478 6.93349-0.417478 5.10149 0.530642 3.8353 2.42688 2.5691 4.32618 1.936 7.07727 1.936 10.6801 1.936 14.2921 2.5691 17.0463 3.8353 18.9425 5.10149 20.8418 6.93349 21.7914 9.33133 21.7914Z" fill="#000000" fill-rule="nonzero" fill-opacity="1" transform="matrix(1 0 0 -1.00047 4449.41 1557.52)"/><path d="M9.33133 19.4976C7.84185 19.4976 6.72094 18.7636 5.96856 17.2955 5.21926 15.8305 4.84458 13.6254 4.84458 10.6801 4.84458 7.74707 5.21926 5.5465 5.96856 4.07844 6.72094 2.61039 7.84185 1.87636 9.33133 1.87636 10.833 1.87636 11.9586 2.61039 12.7079 4.07844 13.4602 5.5465 13.8364 7.74707 13.8364 10.6801 13.8364 13.6254 13.4602 15.8305 12.7079 17.2955 11.9586 18.7636 10.833 19.4976 9.33133 19.4976ZM9.33133 21.7914C11.7322 21.7914 13.5658 20.8418 14.8319 18.9425 16.0981 17.0463 16.7312 14.2921 16.7312 10.6801 16.7312 7.07727 16.0981 4.32618 14.8319 2.42688 13.5658 0.530642 11.7322-0.417478 9.33133-0.417478 6.93349-0.417478 5.10149 0.530642 3.8353 2.42688 2.5691 4.32618 1.936 7.07727 1.936 10.6801 1.936 14.2921 2.5691 17.0463 3.8353 18.9425 5.10149 20.8418 6.93349 21.7914 9.33133 21.7914Z" fill="#000000" fill-rule="nonzero" fill-opacity="1" transform="matrix(1 0 0 -1.00047 4468.09 1557.52)"/><path d="M2.66544 22.3099 5.31711 22.3099 5.31711 9.13406 13.1896 16.0569 16.5569 16.0569 8.04219 8.54684 16.9193 0 13.4786 0 5.31711 7.84033 5.31711 0 2.66544 0 2.66544 22.3099Z" fill="#000000" fill-rule="nonzero" fill-opacity="1" transform="matrix(1 0 0 -1.00047 4486.77 1557.52)"/><g><path d="M234.414 925.125 404.86 688.274 575.31 478.657 745.758 293.258 916.205 128.923" stroke="#806D9B" stroke-width="5.87222" stroke-linecap="butt" stroke-linejoin="round" stroke-miterlimit="4" stroke-dasharray="21.7272 9.39556" stroke-opacity="1" fill="none" fill-rule="nonzero" transform="matrix(1 0 0 1.00047 4399 1503)"/></g><g><path d="M-11.7444 11.7444 11.7444 11.7444 11.7444-11.7444-11.7444-11.7444Z" stroke="#806D9B" stroke-width="2.93611" stroke-linecap="butt" stroke-linejoin="miter" stroke-miterlimit="4" stroke-opacity="1" fill="#806D9B" fill-rule="nonzero" fill-opacity="1" transform="matrix(1 0 0 1.00047 4633.41 2428.56)"/><path d="M-11.7444 11.7444 11.7444 11.7444 11.7444-11.7444-11.7444-11.7444Z" stroke="#806D9B" stroke-width="2.93611" stroke-linecap="butt" stroke-linejoin="miter" stroke-miterlimit="4" stroke-opacity="1" fill="#806D9B" fill-rule="nonzero" fill-opacity="1" transform="matrix(1 0 0 1.00047 4803.86 2191.6)"/><path d="M-11.7444 11.7444 11.7444 11.7444 11.7444-11.7444-11.7444-11.7444Z" stroke="#806D9B" stroke-width="2.93611" stroke-linecap="butt" stroke-linejoin="miter" stroke-miterlimit="4" stroke-opacity="1" fill="#806D9B" fill-rule="nonzero" fill-opacity="1" transform="matrix(1 0 0 1.00047 4974.31 1981.88)"/><path d="M-11.7444 11.7444 11.7444 11.7444 11.7444-11.7444-11.7444-11.7444Z" stroke="#806D9B" stroke-width="2.93611" stroke-linecap="butt" stroke-linejoin="miter" stroke-miterlimit="4" stroke-opacity="1" fill="#806D9B" fill-rule="nonzero" fill-opacity="1" transform="matrix(1 0 0 1.00047 5144.76 1796.4)"/><path d="M-11.7444 11.7444 11.7444 11.7444 11.7444-11.7444-11.7444-11.7444Z" stroke="#806D9B" stroke-width="2.93611" stroke-linecap="butt" stroke-linejoin="miter" stroke-miterlimit="4" stroke-opacity="1" fill="#806D9B" fill-rule="nonzero" fill-opacity="1" transform="matrix(1 0 0 1.00047 5315.2 1631.98)"/></g><path d="M125.328 1186.54 125.328 43.337" stroke="#000000" stroke-width="2.93611" stroke-linecap="square" stroke-linejoin="miter" stroke-miterlimit="4" stroke-opacity="1" fill="none" fill-rule="nonzero" transform="matrix(1 0 0 1.00047 4399 1503)"/><path d="M125.328 1186.54 1025.29 1186.54" stroke="#000000" stroke-width="2.93611" stroke-linecap="square" stroke-linejoin="miter" stroke-miterlimit="4" stroke-opacity="1" fill="none" fill-rule="nonzero" transform="matrix(1 0 0 1.00047 4399 1503)"/></g></g></g><path d="M4529.5 2117.5 5421.61 2117.5" stroke="#7F7F7F" stroke-width="3.4375" stroke-linecap="butt" stroke-linejoin="miter" stroke-miterlimit="8" stroke-opacity="0.54902" fill="none" fill-rule="evenodd"/><path d="M3450.5 2117.5 4342.61 2117.5" stroke="#7F7F7F" stroke-width="3.4375" stroke-linecap="butt" stroke-linejoin="miter" stroke-miterlimit="8" stroke-opacity="0.54902" fill="none" fill-rule="evenodd"/><text fill="#000000" fill-opacity="1" font-family="Heiti SC,Heiti SC_MSFontService,sans-serif" font-style="normal" font-variant="normal" font-weight="400" font-stretch="normal" font-size="37" text-anchor="start" direction="ltr" writing-mode="lr-tb" unicode-bidi="normal" text-decoration="none" transform="matrix(1 0 0 1 5049.18 2173)">Real</text><text fill="#000000" fill-opacity="1" font-family="Heiti SC,Heiti SC_MSFontService,sans-serif" font-style="normal" font-variant="normal" font-weight="400" font-stretch="normal" font-size="37" text-anchor="start" direction="ltr" writing-mode="lr-tb" unicode-bidi="normal" text-decoration="none" transform="matrix(1 0 0 1 5128.24 2173)">-</text><text fill="#000000" fill-opacity="1" font-family="Heiti SC,Heiti SC_MSFontService,sans-serif" font-style="normal" font-variant="normal" font-weight="400" font-stretch="normal" font-size="37" text-anchor="start" direction="ltr" writing-mode="lr-tb" unicode-bidi="normal" text-decoration="none" transform="matrix(1 0 0 1 5140.28 2173)">World Data Size</text><text fill="#000000" fill-opacity="1" font-family="Heiti SC,Heiti SC_MSFontService,sans-serif" font-style="normal" font-variant="normal" font-weight="300" font-stretch="normal" font-size="48" text-anchor="start" direction="ltr" writing-mode="lr-tb" unicode-bidi="normal" text-decoration="none" transform="matrix(1 0 0 1 3510.89 2372)">41K</text><text fill="#000000" fill-opacity="1" font-family="Heiti SC,Heiti SC_MSFontService,sans-serif" font-style="normal" font-variant="normal" font-weight="300" font-stretch="normal" font-size="48" text-anchor="start" direction="ltr" writing-mode="lr-tb" unicode-bidi="normal" text-decoration="none" transform="matrix(1 0 0 1 3669.49 2201)">75K</text><text fill="#000000" fill-opacity="1" font-family="Heiti SC,Heiti SC_MSFontService,sans-serif" font-style="normal" font-variant="normal" font-weight="300" font-stretch="normal" font-size="48" text-anchor="start" direction="ltr" writing-mode="lr-tb" unicode-bidi="normal" text-decoration="none" transform="matrix(1 0 0 1 3838.03 2060)">102 K</text><text fill="#000000" fill-opacity="1" font-family="Heiti SC,Heiti SC_MSFontService,sans-serif" font-style="normal" font-variant="normal" font-weight="300" font-stretch="normal" font-size="48" text-anchor="start" direction="ltr" writing-mode="lr-tb" unicode-bidi="normal" text-decoration="none" transform="matrix(1 0 0 1 3994.09 1939)">123 K</text><text fill="#000000" fill-opacity="1" font-family="Heiti SC,Heiti SC_MSFontService,sans-serif" font-style="normal" font-variant="normal" font-weight="300" font-stretch="normal" font-size="48" text-anchor="start" direction="ltr" writing-mode="lr-tb" unicode-bidi="normal" text-decoration="none" transform="matrix(1 0 0 1 4174.93 1857)">140 K</text><text fill="#000000" fill-opacity="1" font-family="Heiti SC,Heiti SC_MSFontService,sans-serif" font-style="normal" font-variant="normal" font-weight="300" font-stretch="normal" font-size="48" text-anchor="start" direction="ltr" writing-mode="lr-tb" unicode-bidi="normal" text-decoration="none" transform="matrix(1 0 0 1 4590.28 2370)">45 K</text><text fill="#000000" fill-opacity="1" font-family="Heiti SC,Heiti SC_MSFontService,sans-serif" font-style="normal" font-variant="normal" font-weight="300" font-stretch="normal" font-size="48" text-anchor="start" direction="ltr" writing-mode="lr-tb" unicode-bidi="normal" text-decoration="none" transform="matrix(1 0 0 1 4712.03 2171)">87 K</text><text fill="#000000" fill-opacity="1" font-family="Heiti SC,Heiti SC_MSFontService,sans-serif" font-style="normal" font-variant="normal" font-weight="300" font-stretch="normal" font-size="48" text-anchor="start" direction="ltr" writing-mode="lr-tb" unicode-bidi="normal" text-decoration="none" transform="matrix(1 0 0 1 4840.8 1973)">124 K</text><text fill="#000000" fill-opacity="1" font-family="Heiti SC,Heiti SC_MSFontService,sans-serif" font-style="normal" font-variant="normal" font-weight="300" font-stretch="normal" font-size="48" text-anchor="start" direction="ltr" writing-mode="lr-tb" unicode-bidi="normal" text-decoration="none" transform="matrix(1 0 0 1 5008.44 1786)">156 K</text><text fill="#000000" fill-opacity="1" font-family="Heiti SC,Heiti SC_MSFontService,sans-serif" font-style="normal" font-variant="normal" font-weight="300" font-stretch="normal" font-size="48" text-anchor="start" direction="ltr" writing-mode="lr-tb" unicode-bidi="normal" text-decoration="none" transform="matrix(1 0 0 1 5160.59 1630)">185 K</text><text fill="#000000" fill-opacity="1" font-family="Heiti SC,Heiti SC_MSFontService,sans-serif" font-style="normal" font-variant="normal" font-weight="300" font-stretch="normal" font-size="55" text-anchor="start" direction="ltr" writing-mode="lr-tb" unicode-bidi="normal" text-decoration="none" transform="matrix(1 0 0 1 3550.8 2819)">(a) Recovery</text><text fill="#000000" fill-opacity="1" font-family="Heiti SC,Heiti SC_MSFontService,sans-serif" font-style="normal" font-variant="normal" font-weight="300" font-stretch="normal" font-size="55" text-anchor="start" direction="ltr" writing-mode="lr-tb" unicode-bidi="normal" text-decoration="none" transform="matrix(1 0 0 1 3894.55 2819)">-</text><text fill="#000000" fill-opacity="1" font-family="Heiti SC,Heiti SC_MSFontService,sans-serif" font-style="normal" font-variant="normal" font-weight="300" font-stretch="normal" font-size="55" text-anchor="start" direction="ltr" writing-mode="lr-tb" unicode-bidi="normal" text-decoration="none" transform="matrix(1 0 0 1 3912.88 2819)">based Expert</text><text fill="#000000" fill-opacity="1" font-family="Heiti SC,Heiti SC_MSFontService,sans-serif" font-style="normal" font-variant="normal" font-weight="300" font-stretch="normal" font-size="55" text-anchor="start" direction="ltr" writing-mode="lr-tb" unicode-bidi="normal" text-decoration="none" transform="matrix(1 0 0 1 4595.57 2819)">(b) Planner</text><text fill="#000000" fill-opacity="1" font-family="Heiti SC,Heiti SC_MSFontService,sans-serif" font-style="normal" font-variant="normal" font-weight="300" font-stretch="normal" font-size="55" text-anchor="start" direction="ltr" writing-mode="lr-tb" unicode-bidi="normal" text-decoration="none" transform="matrix(1 0 0 1 4887.76 2819)">-</text><text fill="#000000" fill-opacity="1" font-family="Heiti SC,Heiti SC_MSFontService,sans-serif" font-style="normal" font-variant="normal" font-weight="300" font-stretch="normal" font-size="55" text-anchor="start" direction="ltr" writing-mode="lr-tb" unicode-bidi="normal" text-decoration="none" transform="matrix(1 0 0 1 4906.09 2819)">based Expert</text><text fill="#000000" fill-opacity="1" font-family="Heiti SC,Heiti SC_MSFontService,sans-serif" font-style="normal" font-variant="normal" font-weight="400" font-stretch="normal" font-size="37" text-anchor="start" direction="ltr" writing-mode="lr-tb" unicode-bidi="normal" text-decoration="none" transform="matrix(1 0 0 1 3994.59 1635)">Cumulative Data</text><text fill="#000000" fill-opacity="1" font-family="Heiti SC,Heiti SC_MSFontService,sans-serif" font-style="normal" font-variant="normal" font-weight="400" font-stretch="normal" font-size="37" text-anchor="start" direction="ltr" writing-mode="lr-tb" unicode-bidi="normal" text-decoration="none" transform="matrix(1 0 0 1 3593.57 1634)">Increment Data</text><path d="M3932.5 1600.5 3981.08 1600.5" stroke="#7F7F7F" stroke-width="4.58333" stroke-linecap="butt" stroke-linejoin="miter" stroke-miterlimit="8" stroke-opacity="1" fill="none" fill-rule="evenodd"/><path d="M3944 1600.5C3944 1593.04 3950.04 1587 3957.5 1587 3964.96 1587 3971 1593.04 3971 1600.5 3971 1607.96 3964.96 1614 3957.5 1614 3950.04 1614 3944 1607.96 3944 1600.5Z" fill="#7F7F7F" fill-rule="evenodd" fill-opacity="1"/><rect x="3944" y="1619" width="27.0002" height="26.9998" fill="#806D9A" fill-opacity="1"/><path d="M3932.5 1632.5 3981.08 1632.5" stroke="#806D9A" stroke-width="4.58333" stroke-linecap="butt" stroke-linejoin="miter" stroke-miterlimit="8" stroke-opacity="1" fill="none" fill-rule="evenodd"/><rect x="3526" y="1587" width="49.0002" height="24.0001" fill="#DADADA" fill-opacity="1"/><rect x="3526" y="1620" width="49.0002" height="24.9998" fill="#DAD3E2" fill-opacity="1"/><path d="M3489 1584 3489 1648.96" stroke="#7030A0" stroke-width="10.3125" stroke-linecap="butt" stroke-linejoin="miter" stroke-miterlimit="8" stroke-opacity="1" fill="none" fill-rule="evenodd"/><text fill="#000000" fill-opacity="1" font-family="Heiti SC,Heiti SC_MSFontService,sans-serif" font-style="normal" font-variant="normal" font-weight="400" font-stretch="normal" font-size="37" text-anchor="start" direction="ltr" writing-mode="lr-tb" unicode-bidi="normal" text-decoration="none" transform="matrix(1 0 0 1 5332.4 2673)">Rounds</text><text fill="#000000" fill-opacity="1" font-family="Heiti SC,Heiti SC_MSFontService,sans-serif" font-style="normal" font-variant="normal" font-weight="400" font-stretch="normal" font-size="37" text-anchor="start" direction="ltr" writing-mode="lr-tb" unicode-bidi="normal" text-decoration="none" transform="matrix(1 0 0 1 4272.27 2673)">Rounds</text></g></g></svg>