<svg width="2173" height="1366" xmlns="http://www.w3.org/2000/svg" xmlns:xlink="http://www.w3.org/1999/xlink" xml:space="preserve" overflow="hidden"><defs><clipPath id="clip0"><rect x="3338" y="1502" width="1057" height="1270"/></clipPath><clipPath id="clip1"><rect x="3338" y="1502" width="1057" height="1270"/></clipPath><clipPath id="clip2"><rect x="3338" y="1502" width="1057" height="1270"/></clipPath></defs><g transform="translate(-3336 -1498)"><g><g clip-path="url(#clip0)"><g clip-path="url(#clip1)"><g clip-path="url(#clip2)"><path d="M0 1268.4 1057 1268.4 1057 0 0 0Z" fill="#FFFFFF" fill-rule="nonzero" fill-opacity="1" transform="matrix(1 0 0 1.00047 3338 1503)"/><path d="M125.328 1186.54 1025.29 1186.54 1025.29 43.337 125.328 43.337Z" fill="#FFFFFF" fill-rule="nonzero" fill-opacity="1" transform="matrix(1 0 0 1.00047 3338 1503)"/><g><path d="M166.235 1186.54 302.593 1186.54 302.593 981.377 166.235 981.377Z" fill="#7F7F7F" fill-rule="nonzero" fill-opacity="0.3" transform="matrix(1 0 0 1.00047 3338 1503)"/></g><g><path d="M336.684 1186.54 473.04 1186.54 473.04 1022.38 336.684 1022.38Z" fill="#7F7F7F" fill-rule="nonzero" fill-opacity="0.3" transform="matrix(1 0 0 1.00047 3338 1503)"/></g><g><path d="M507.131 1186.54 643.487 1186.54 643.487 1059.09 507.131 1059.09Z" fill="#7F7F7F" fill-rule="nonzero" fill-opacity="0.3" transform="matrix(1 0 0 1.00047 3338 1503)"/></g><g><path d="M677.578 1186.54 813.934 1186.54 813.934 1087.41 677.578 1087.41Z" fill="#7F7F7F" fill-rule="nonzero" fill-opacity="0.3" transform="matrix(1 0 0 1.00047 3338 1503)"/></g><g><path d="M848.025 1186.54 984.381 1186.54 984.381 1108.93 848.025 1108.93Z" fill="#7F7F7F" fill-rule="nonzero" fill-opacity="0.3" transform="matrix(1 0 0 1.00047 3338 1503)"/></g><path d="M0 0 0 10.2764" stroke="#000000" stroke-width="2.34889" stroke-linecap="butt" stroke-linejoin="round" stroke-miterlimit="4" stroke-opacity="1" fill="none" fill-rule="nonzero" transform="matrix(1 0 0 1.00047 3572.41 2690.1)"/><path d="M3.64261 2.43605 8.3725 2.43605 8.3725 18.7682 3.22513 17.7359 3.22513 20.3739 8.34498 21.4061 11.2398 21.4061 11.2398 2.43605 15.9697 2.43605 15.9697 0 3.64261 0 3.64261 2.43605Z" fill="#000000" fill-rule="nonzero" fill-opacity="1" transform="matrix(1 0 0 -1.00047 3563.07 2732.98)"/><path d="M0 0 0 10.2764" stroke="#000000" stroke-width="2.34889" stroke-linecap="butt" stroke-linejoin="round" stroke-miterlimit="4" stroke-opacity="1" fill="none" fill-rule="nonzero" transform="matrix(1 0 0 1.00047 3742.86 2690.1)"/><path d="M5.63366 2.43605 15.7403 2.43605 15.7403 0 2.15162 0 2.15162 2.43605C3.2496 3.5738 4.74673 5.09998 6.64295 7.01455 8.54225 8.9322 9.73504 10.1694 10.2213 10.726 11.148 11.7659 11.7949 12.6467 12.1619 13.3685 12.532 14.0903 12.717 14.7998 12.717 15.4972 12.717 16.6349 12.3179 17.5616 11.5196 18.2773 10.7214 18.996 9.6815 19.3554 8.40003 19.3554 7.49167 19.3554 6.53285 19.1979 5.52356 18.8829 4.51733 18.5678 3.44075 18.0892 2.29384 17.4469L2.29384 20.3739C3.4591 20.8418 4.54791 21.195 5.56026 21.4336 6.57565 21.6722 7.50392 21.7914 8.34498 21.7914 10.5623 21.7914 12.3301 21.2363 13.6483 20.1261 14.9665 19.019 15.6256 17.5387 15.6256 15.6853 15.6256 14.8044 15.4605 13.9695 15.1301 13.1804 14.8029 12.3944 14.2034 11.4661 13.3318 10.3957 13.0932 10.1173 12.3332 9.31605 11.0517 7.99172 9.77326 6.6674 7.96727 4.81554 5.63366 2.43605Z" fill="#000000" fill-rule="nonzero" fill-opacity="1" transform="matrix(1 0 0 -1.00047 3733.52 2732.98)"/><path d="M0 0 0 10.2764" stroke="#000000" stroke-width="2.34889" stroke-linecap="butt" stroke-linejoin="round" stroke-miterlimit="4" stroke-opacity="1" fill="none" fill-rule="nonzero" transform="matrix(1 0 0 1.00047 3913.31 2690.1)"/><path d="M11.9142 11.5426C13.2997 11.2459 14.3808 10.6281 15.1577 9.68916 15.9376 8.75328 16.3275 7.59719 16.3275 6.22088 16.3275 4.11055 15.6012 2.47582 14.1484 1.31666 12.6956 0.160569 10.6312-0.417478 7.95502-0.417478 7.05891-0.417478 6.13523-0.328783 5.18407-0.151393 4.23289 0.0259968 3.25113 0.292082 2.23878 0.646862L2.23878 3.44075C3.0401 2.97281 3.91787 2.61956 4.87211 2.381 5.82942 2.14244 6.82953 2.02316 7.87245 2.02316 9.68609 2.02316 11.0685 2.381 12.0197 3.09668 12.9709 3.81236 13.4465 4.85376 13.4465 6.22088 13.4465 7.48401 13.0045 8.47036 12.1206 9.17993 11.2367 9.89254 10.0072 10.2489 8.43214 10.2489L5.93645 10.2489 5.93645 12.6299 8.54683 12.6299C9.96901 12.6299 11.0578 12.9143 11.8133 13.4832 12.5687 14.052 12.9464 14.8717 12.9464 15.9422 12.9464 17.0401 12.5565 17.8827 11.7766 18.47 10.9997 19.0603 9.88492 19.3554 8.43214 19.3554 7.63696 19.3554 6.78517 19.2682 5.87681 19.0939 4.96845 18.9226 3.96986 18.6565 2.88106 18.2956L2.88106 20.8739C3.9821 21.1798 5.01281 21.4092 5.97315 21.5621 6.93349 21.715 7.83882 21.7914 8.68905 21.7914 10.8881 21.7914 12.6268 21.2914 13.9052 20.2913 15.1867 19.2942 15.8275 17.9455 15.8275 16.2449 15.8275 15.0583 15.488 14.0566 14.809 13.24 14.13 12.4234 13.1651 11.8576 11.9142 11.5426Z" fill="#000000" fill-rule="nonzero" fill-opacity="1" transform="matrix(1 0 0 -1.00047 3903.97 2732.98)"/><path d="M0 0 0 10.2764" stroke="#000000" stroke-width="2.34889" stroke-linecap="butt" stroke-linejoin="round" stroke-miterlimit="4" stroke-opacity="1" fill="none" fill-rule="nonzero" transform="matrix(1 0 0 1.00047 4083.76 2690.1)"/><path d="M11.0976 18.8829 3.78483 7.45497 11.0976 7.45497 11.0976 18.8829ZM10.336 21.4061 13.9786 21.4061 13.9786 7.45497 17.034 7.45497 17.034 5.04644 13.9786 5.04644 13.9786 0 11.0976 0 11.0976 5.04644 1.43594 5.04644 1.43594 7.84033 10.336 21.4061Z" fill="#000000" fill-rule="nonzero" fill-opacity="1" transform="matrix(1 0 0 -1.00047 4074.41 2732.98)"/><path d="M0 0 0 10.2764" stroke="#000000" stroke-width="2.34889" stroke-linecap="butt" stroke-linejoin="round" stroke-miterlimit="4" stroke-opacity="1" fill="none" fill-rule="nonzero" transform="matrix(1 0 0 1.00047 4254.2 2690.1)"/><path d="M3.17008 21.4061 14.5383 21.4061 14.5383 18.9654 5.82176 18.9654 5.82176 13.7217C6.24075 13.8655 6.65979 13.9725 7.07878 14.0429 7.50084 14.1132 7.92291 14.1484 8.34498 14.1484 10.7336 14.1484 12.6253 13.4939 14.0199 12.1849 15.4177 10.8759 16.1165 9.10346 16.1165 6.86775 16.1165 4.56473 15.3993 2.77401 13.9649 1.49558 12.5304 0.220208 10.5088-0.417478 7.89997-0.417478 7.00079-0.417478 6.08477-0.341017 5.15196-0.188095 4.22219-0.0351722 3.26031 0.194211 2.26631 0.500056L2.26631 3.41323C3.12573 2.94529 4.01421 2.59662 4.93175 2.36724 5.84928 2.13786 6.81879 2.02316 7.84033 2.02316 9.49497 2.02316 10.804 2.45746 11.7674 3.32606 12.7339 4.19466 13.2171 5.37524 13.2171 6.86775 13.2171 8.35723 12.7339 9.53626 11.7674 10.4048 10.804 11.2765 9.49497 11.7123 7.84033 11.7123 7.06653 11.7123 6.29429 11.6267 5.52356 11.4554 4.7559 11.2842 3.9714 11.0165 3.17008 10.6526L3.17008 21.4061Z" fill="#000000" fill-rule="nonzero" fill-opacity="1" transform="matrix(1 0 0 -1.00047 4244.86 2732.98)"/><g><path d="M125.328 1186.54 1025.29 1186.54" stroke="#B0B0B0" stroke-width="2.34889" stroke-linecap="butt" stroke-linejoin="round" stroke-miterlimit="4" stroke-dasharray="8.69089 3.75822" stroke-opacity="0.6" fill="none" fill-rule="nonzero" transform="matrix(1 0 0 1.00047 3338 1503)"/></g><path d="M0 0-10.2764 0" stroke="#000000" stroke-width="2.34889" stroke-linecap="butt" stroke-linejoin="round" stroke-miterlimit="4" stroke-opacity="1" fill="none" fill-rule="nonzero" transform="matrix(1 0 0 1.00047 3463.33 2690.1)"/><path d="M9.33133 19.4976C7.84185 19.4976 6.72094 18.7636 5.96856 17.2955 5.21926 15.8305 4.84458 13.6254 4.84458 10.6801 4.84458 7.74706 5.21926 5.5465 5.96856 4.07844 6.72094 2.61039 7.84185 1.87636 9.33133 1.87636 10.833 1.87636 11.9585 2.61039 12.7079 4.07844 13.4602 5.5465 13.8364 7.74706 13.8364 10.6801 13.8364 13.6254 13.4602 15.8305 12.7079 17.2955 11.9585 18.7636 10.833 19.4976 9.33133 19.4976ZM9.33133 21.7914C11.7322 21.7914 13.5657 20.8418 14.8319 18.9425 16.0981 17.0463 16.7312 14.2921 16.7312 10.6801 16.7312 7.07726 16.0981 4.32617 14.8319 2.42688 13.5657 0.530642 11.7322-0.417478 9.33133-0.417478 6.93349-0.417478 5.10149 0.530642 3.83529 2.42688 2.5691 4.32617 1.936 7.07726 1.936 10.6801 1.936 14.2921 2.5691 17.0463 3.83529 18.9425 5.10149 20.8418 6.93349 21.7914 9.33133 21.7914Z" fill="#000000" fill-rule="nonzero" fill-opacity="1" transform="matrix(1 0 0 -1.00047 3407.09 2701.26)"/><path d="M2.66544 22.3099 5.31711 22.3099 5.31711 9.13406 13.1896 16.0569 16.5569 16.0569 8.04219 8.54683 16.9193 0 13.4786 0 5.31711 7.84033 5.31711 0 2.66544 0 2.66544 22.3099Z" fill="#000000" fill-rule="nonzero" fill-opacity="1" transform="matrix(1 0 0 -1.00047 3425.77 2701.26)"/><g><path d="M125.328 1072.22 1025.29 1072.22" stroke="#B0B0B0" stroke-width="2.34889" stroke-linecap="butt" stroke-linejoin="round" stroke-miterlimit="4" stroke-dasharray="8.69089 3.75822" stroke-opacity="0.6" fill="none" fill-rule="nonzero" transform="matrix(1 0 0 1.00047 3338 1503)"/></g><path d="M0 0-10.2764 0" stroke="#000000" stroke-width="2.34889" stroke-linecap="butt" stroke-linejoin="round" stroke-miterlimit="4" stroke-opacity="1" fill="none" fill-rule="nonzero" transform="matrix(1 0 0 1.00047 3463.33 2575.73)"/><path d="M5.63366 2.43605 15.7403 2.43605 15.7403 0 2.15162 0 2.15162 2.43605C3.2496 3.5738 4.74673 5.09998 6.64295 7.01455 8.54225 8.9322 9.73504 10.1694 10.2213 10.726 11.148 11.7659 11.7949 12.6467 12.1619 13.3685 12.532 14.0903 12.717 14.7998 12.717 15.4972 12.717 16.6349 12.3179 17.5616 11.5196 18.2773 10.7214 18.996 9.6815 19.3554 8.40003 19.3554 7.49167 19.3554 6.53285 19.1979 5.52356 18.8829 4.51733 18.5678 3.44075 18.0892 2.29384 17.4469L2.29384 20.3739C3.4591 20.8418 4.54791 21.195 5.56026 21.4336 6.57565 21.6722 7.50392 21.7914 8.34498 21.7914 10.5623 21.7914 12.3301 21.2363 13.6483 20.1261 14.9665 19.019 15.6256 17.5387 15.6256 15.6853 15.6256 14.8044 15.4605 13.9695 15.1301 13.1804 14.8029 12.3944 14.2034 11.4661 13.3318 10.3957 13.0932 10.1173 12.3332 9.31605 11.0517 7.99172 9.77326 6.6674 7.96727 4.81554 5.63366 2.43605Z" fill="#000000" fill-rule="nonzero" fill-opacity="1" transform="matrix(1 0 0 -1.00047 3388.41 2586.89)"/><path d="M3.17008 21.4061 14.5383 21.4061 14.5383 18.9654 5.82176 18.9654 5.82176 13.7217C6.24075 13.8655 6.65979 13.9725 7.07878 14.0429 7.50084 14.1132 7.92291 14.1484 8.34498 14.1484 10.7336 14.1484 12.6253 13.4939 14.0199 12.1849 15.4177 10.8759 16.1165 9.10346 16.1165 6.86775 16.1165 4.56473 15.3993 2.77401 13.9649 1.49558 12.5304 0.220208 10.5088-0.417478 7.89997-0.417478 7.00079-0.417478 6.08477-0.341017 5.15196-0.188095 4.22219-0.0351722 3.26031 0.194211 2.26631 0.500056L2.26631 3.41323C3.12573 2.94529 4.01421 2.59662 4.93175 2.36724 5.84928 2.13786 6.81879 2.02316 7.84033 2.02316 9.49497 2.02316 10.804 2.45746 11.7674 3.32606 12.7339 4.19466 13.2171 5.37524 13.2171 6.86775 13.2171 8.35723 12.7339 9.53626 11.7674 10.4048 10.804 11.2765 9.49497 11.7123 7.84033 11.7123 7.06653 11.7123 6.29429 11.6267 5.52356 11.4554 4.7559 11.2842 3.9714 11.0165 3.17008 10.6526L3.17008 21.4061Z" fill="#000000" fill-rule="nonzero" fill-opacity="1" transform="matrix(1 0 0 -1.00047 3407.09 2586.89)"/><path d="M2.66544 22.3099 5.31711 22.3099 5.31711 9.13406 13.1896 16.0569 16.5569 16.0569 8.04219 8.54683 16.9193 0 13.4786 0 5.31711 7.84033 5.31711 0 2.66544 0 2.66544 22.3099Z" fill="#000000" fill-rule="nonzero" fill-opacity="1" transform="matrix(1 0 0 -1.00047 3425.77 2586.89)"/><g><path d="M125.328 957.9 1025.29 957.9" stroke="#B0B0B0" stroke-width="2.34889" stroke-linecap="butt" stroke-linejoin="round" stroke-miterlimit="4" stroke-dasharray="8.69089 3.75822" stroke-opacity="0.6" fill="none" fill-rule="nonzero" transform="matrix(1 0 0 1.00047 3338 1503)"/></g><path d="M0 0-10.2764 0" stroke="#000000" stroke-width="2.34889" stroke-linecap="butt" stroke-linejoin="round" stroke-miterlimit="4" stroke-opacity="1" fill="none" fill-rule="nonzero" transform="matrix(1 0 0 1.00047 3463.33 2461.35)"/><path d="M3.17008 21.4061 14.5383 21.4061 14.5383 18.9654 5.82176 18.9654 5.82176 13.7217C6.24075 13.8655 6.65979 13.9725 7.07878 14.0429 7.50084 14.1132 7.92291 14.1484 8.34498 14.1484 10.7336 14.1484 12.6253 13.4939 14.0199 12.1849 15.4177 10.8759 16.1165 9.10346 16.1165 6.86775 16.1165 4.56473 15.3993 2.77401 13.9649 1.49558 12.5304 0.220208 10.5088-0.417478 7.89997-0.417478 7.00079-0.417478 6.08477-0.341017 5.15196-0.188095 4.22219-0.0351722 3.26031 0.194211 2.26631 0.500056L2.26631 3.41323C3.12573 2.94529 4.01421 2.59662 4.93175 2.36724 5.84928 2.13786 6.81879 2.02316 7.84033 2.02316 9.49497 2.02316 10.804 2.45746 11.7674 3.32606 12.7339 4.19466 13.2171 5.37524 13.2171 6.86775 13.2171 8.35723 12.7339 9.53626 11.7674 10.4048 10.804 11.2765 9.49497 11.7123 7.84033 11.7123 7.06653 11.7123 6.29429 11.6267 5.52356 11.4554 4.7559 11.2842 3.9714 11.0165 3.17008 10.6526L3.17008 21.4061Z" fill="#000000" fill-rule="nonzero" fill-opacity="1" transform="matrix(1 0 0 -1.00047 3388.41 2472.51)"/><path d="M9.33133 19.4976C7.84185 19.4976 6.72094 18.7636 5.96856 17.2955 5.21926 15.8305 4.84458 13.6254 4.84458 10.6801 4.84458 7.74706 5.21926 5.5465 5.96856 4.07844 6.72094 2.61039 7.84185 1.87636 9.33133 1.87636 10.833 1.87636 11.9585 2.61039 12.7079 4.07844 13.4602 5.5465 13.8364 7.74706 13.8364 10.6801 13.8364 13.6254 13.4602 15.8305 12.7079 17.2955 11.9585 18.7636 10.833 19.4976 9.33133 19.4976ZM9.33133 21.7914C11.7322 21.7914 13.5657 20.8418 14.8319 18.9425 16.0981 17.0463 16.7312 14.2921 16.7312 10.6801 16.7312 7.07726 16.0981 4.32617 14.8319 2.42688 13.5657 0.530642 11.7322-0.417478 9.33133-0.417478 6.93349-0.417478 5.10149 0.530642 3.83529 2.42688 2.5691 4.32617 1.936 7.07726 1.936 10.6801 1.936 14.2921 2.5691 17.0463 3.83529 18.9425 5.10149 20.8418 6.93349 21.7914 9.33133 21.7914Z" fill="#000000" fill-rule="nonzero" fill-opacity="1" transform="matrix(1 0 0 -1.00047 3407.09 2472.51)"/><path d="M2.66544 22.3099 5.31711 22.3099 5.31711 9.13406 13.1896 16.0569 16.5569 16.0569 8.04219 8.54683 16.9193 0 13.4786 0 5.31711 7.84033 5.31711 0 2.66544 0 2.66544 22.3099Z" fill="#000000" fill-rule="nonzero" fill-opacity="1" transform="matrix(1 0 0 -1.00047 3425.77 2472.51)"/><g><path d="M125.328 843.58 1025.29 843.58" stroke="#B0B0B0" stroke-width="2.34889" stroke-linecap="butt" stroke-linejoin="round" stroke-miterlimit="4" stroke-dasharray="8.69089 3.75822" stroke-opacity="0.6" fill="none" fill-rule="nonzero" transform="matrix(1 0 0 1.00047 3338 1503)"/></g><path d="M0 0-10.2764 0" stroke="#000000" stroke-width="2.34889" stroke-linecap="butt" stroke-linejoin="round" stroke-miterlimit="4" stroke-opacity="1" fill="none" fill-rule="nonzero" transform="matrix(1 0 0 1.00047 3463.33 2346.98)"/><path d="M2.40853 21.4061 16.1715 21.4061 16.1715 20.172 8.40003 0 5.37675 0 12.6895 18.9654 2.40853 18.9654 2.40853 21.4061Z" fill="#000000" fill-rule="nonzero" fill-opacity="1" transform="matrix(1 0 0 -1.00047 3388.41 2358.14)"/><path d="M3.17008 21.4061 14.5383 21.4061 14.5383 18.9654 5.82176 18.9654 5.82176 13.7217C6.24075 13.8655 6.65979 13.9725 7.07878 14.0429 7.50084 14.1132 7.92291 14.1484 8.34498 14.1484 10.7336 14.1484 12.6253 13.4939 14.0199 12.1849 15.4177 10.8759 16.1165 9.10346 16.1165 6.86775 16.1165 4.56473 15.3993 2.77401 13.9649 1.49558 12.5304 0.220208 10.5088-0.417478 7.89997-0.417478 7.00079-0.417478 6.08477-0.341017 5.15196-0.188095 4.22219-0.0351722 3.26031 0.194211 2.26631 0.500056L2.26631 3.41323C3.12573 2.94529 4.01421 2.59662 4.93175 2.36724 5.84928 2.13786 6.81879 2.02316 7.84033 2.02316 9.49497 2.02316 10.804 2.45746 11.7674 3.32606 12.7339 4.19466 13.2171 5.37524 13.2171 6.86775 13.2171 8.35723 12.7339 9.53626 11.7674 10.4048 10.804 11.2765 9.49497 11.7123 7.84033 11.7123 7.06653 11.7123 6.29429 11.6267 5.52356 11.4554 4.7559 11.2842 3.9714 11.0165 3.17008 10.6526L3.17008 21.4061Z" fill="#000000" fill-rule="nonzero" fill-opacity="1" transform="matrix(1 0 0 -1.00047 3407.09 2358.14)"/><path d="M2.66544 22.3099 5.31711 22.3099 5.31711 9.13406 13.1896 16.0569 16.5569 16.0569 8.04219 8.54683 16.9193 0 13.4786 0 5.31711 7.84033 5.31711 0 2.66544 0 2.66544 22.3099Z" fill="#000000" fill-rule="nonzero" fill-opacity="1" transform="matrix(1 0 0 -1.00047 3425.77 2358.14)"/><g><path d="M125.328 729.259 1025.29 729.259" stroke="#B0B0B0" stroke-width="2.34889" stroke-linecap="butt" stroke-linejoin="round" stroke-miterlimit="4" stroke-dasharray="8.69089 3.75822" stroke-opacity="0.6" fill="none" fill-rule="nonzero" transform="matrix(1 0 0 1.00047 3338 1503)"/></g><path d="M0 0-10.2764 0" stroke="#000000" stroke-width="2.34889" stroke-linecap="butt" stroke-linejoin="round" stroke-miterlimit="4" stroke-opacity="1" fill="none" fill-rule="nonzero" transform="matrix(1 0 0 1.00047 3463.33 2232.6)"/><path d="M3.64261 2.43605 8.3725 2.43605 8.3725 18.7682 3.22513 17.7359 3.22513 20.3739 8.34498 21.4061 11.2398 21.4061 11.2398 2.43605 15.9697 2.43605 15.9697 0 3.64261 0 3.64261 2.43605Z" fill="#000000" fill-rule="nonzero" fill-opacity="1" transform="matrix(1 0 0 -1.00047 3369.73 2243.76)"/><path d="M9.33133 19.4976C7.84185 19.4976 6.72094 18.7636 5.96856 17.2955 5.21926 15.8305 4.84458 13.6254 4.84458 10.6801 4.84458 7.74706 5.21926 5.5465 5.96856 4.07844 6.72094 2.61039 7.84185 1.87636 9.33133 1.87636 10.833 1.87636 11.9585 2.61039 12.7079 4.07844 13.4602 5.5465 13.8364 7.74706 13.8364 10.6801 13.8364 13.6254 13.4602 15.8305 12.7079 17.2955 11.9585 18.7636 10.833 19.4976 9.33133 19.4976ZM9.33133 21.7914C11.7322 21.7914 13.5657 20.8418 14.8319 18.9425 16.0981 17.0463 16.7312 14.2921 16.7312 10.6801 16.7312 7.07726 16.0981 4.32617 14.8319 2.42688 13.5657 0.530642 11.7322-0.417478 9.33133-0.417478 6.93349-0.417478 5.10149 0.530642 3.83529 2.42688 2.5691 4.32617 1.936 7.07726 1.936 10.6801 1.936 14.2921 2.5691 17.0463 3.83529 18.9425 5.10149 20.8418 6.93349 21.7914 9.33133 21.7914Z" fill="#000000" fill-rule="nonzero" fill-opacity="1" transform="matrix(1 0 0 -1.00047 3388.41 2243.76)"/><path d="M9.33133 19.4976C7.84185 19.4976 6.72094 18.7636 5.96856 17.2955 5.21926 15.8305 4.84458 13.6254 4.84458 10.6801 4.84458 7.74706 5.21926 5.5465 5.96856 4.07844 6.72094 2.61039 7.84185 1.87636 9.33133 1.87636 10.833 1.87636 11.9585 2.61039 12.7079 4.07844 13.4602 5.5465 13.8364 7.74706 13.8364 10.6801 13.8364 13.6254 13.4602 15.8305 12.7079 17.2955 11.9585 18.7636 10.833 19.4976 9.33133 19.4976ZM9.33133 21.7914C11.7322 21.7914 13.5657 20.8418 14.8319 18.9425 16.0981 17.0463 16.7312 14.2921 16.7312 10.6801 16.7312 7.07726 16.0981 4.32617 14.8319 2.42688 13.5657 0.530642 11.7322-0.417478 9.33133-0.417478 6.93349-0.417478 5.10149 0.530642 3.83529 2.42688 2.5691 4.32617 1.936 7.07726 1.936 10.6801 1.936 14.2921 2.5691 17.0463 3.83529 18.9425 5.10149 20.8418 6.93349 21.7914 9.33133 21.7914Z" fill="#000000" fill-rule="nonzero" fill-opacity="1" transform="matrix(1 0 0 -1.00047 3407.09 2243.76)"/><path d="M2.66544 22.3099 5.31711 22.3099 5.31711 9.13406 13.1896 16.0569 16.5569 16.0569 8.04219 8.54683 16.9193 0 13.4786 0 5.31711 7.84033 5.31711 0 2.66544 0 2.66544 22.3099Z" fill="#000000" fill-rule="nonzero" fill-opacity="1" transform="matrix(1 0 0 -1.00047 3425.77 2243.76)"/><g><path d="M125.328 614.939 1025.29 614.939" stroke="#B0B0B0" stroke-width="2.34889" stroke-linecap="butt" stroke-linejoin="round" stroke-miterlimit="4" stroke-dasharray="8.69089 3.75822" stroke-opacity="0.6" fill="none" fill-rule="nonzero" transform="matrix(1 0 0 1.00047 3338 1503)"/></g><path d="M0 0-10.2764 0" stroke="#000000" stroke-width="2.34889" stroke-linecap="butt" stroke-linejoin="round" stroke-miterlimit="4" stroke-opacity="1" fill="none" fill-rule="nonzero" transform="matrix(1 0 0 1.00047 3463.33 2118.23)"/><path d="M3.64261 2.43605 8.3725 2.43605 8.3725 18.7682 3.22513 17.7359 3.22513 20.3739 8.34498 21.4061 11.2398 21.4061 11.2398 2.43605 15.9697 2.43605 15.9697 0 3.64261 0 3.64261 2.43605Z" fill="#000000" fill-rule="nonzero" fill-opacity="1" transform="matrix(1 0 0 -1.00047 3369.73 2129.39)"/><path d="M5.63366 2.43605 15.7403 2.43605 15.7403 0 2.15162 0 2.15162 2.43605C3.2496 3.5738 4.74673 5.09998 6.64295 7.01455 8.54225 8.9322 9.73504 10.1694 10.2213 10.726 11.148 11.7659 11.7949 12.6467 12.1619 13.3685 12.532 14.0903 12.717 14.7998 12.717 15.4972 12.717 16.6349 12.3179 17.5616 11.5196 18.2773 10.7214 18.996 9.6815 19.3554 8.40003 19.3554 7.49167 19.3554 6.53285 19.1979 5.52356 18.8829 4.51733 18.5678 3.44075 18.0892 2.29384 17.4469L2.29384 20.3739C3.4591 20.8418 4.54791 21.195 5.56026 21.4336 6.57565 21.6722 7.50392 21.7914 8.34498 21.7914 10.5623 21.7914 12.3301 21.2363 13.6483 20.1261 14.9665 19.019 15.6256 17.5387 15.6256 15.6853 15.6256 14.8044 15.4605 13.9695 15.1301 13.1804 14.8029 12.3944 14.2034 11.4661 13.3318 10.3957 13.0932 10.1173 12.3332 9.31605 11.0517 7.99172 9.77326 6.6674 7.96727 4.81554 5.63366 2.43605Z" fill="#000000" fill-rule="nonzero" fill-opacity="1" transform="matrix(1 0 0 -1.00047 3388.41 2129.39)"/><path d="M3.17008 21.4061 14.5383 21.4061 14.5383 18.9654 5.82176 18.9654 5.82176 13.7217C6.24075 13.8655 6.65979 13.9725 7.07878 14.0429 7.50084 14.1132 7.92291 14.1484 8.34498 14.1484 10.7336 14.1484 12.6253 13.4939 14.0199 12.1849 15.4177 10.8759 16.1165 9.10346 16.1165 6.86775 16.1165 4.56473 15.3993 2.77401 13.9649 1.49558 12.5304 0.220208 10.5088-0.417478 7.89997-0.417478 7.00079-0.417478 6.08477-0.341017 5.15196-0.188095 4.22219-0.0351722 3.26031 0.194211 2.26631 0.500056L2.26631 3.41323C3.12573 2.94529 4.01421 2.59662 4.93175 2.36724 5.84928 2.13786 6.81879 2.02316 7.84033 2.02316 9.49497 2.02316 10.804 2.45746 11.7674 3.32606 12.7339 4.19466 13.2171 5.37524 13.2171 6.86775 13.2171 8.35723 12.7339 9.53626 11.7674 10.4048 10.804 11.2765 9.49497 11.7123 7.84033 11.7123 7.06653 11.7123 6.29429 11.6267 5.52356 11.4554 4.7559 11.2842 3.9714 11.0165 3.17008 10.6526L3.17008 21.4061Z" fill="#000000" fill-rule="nonzero" fill-opacity="1" transform="matrix(1 0 0 -1.00047 3407.09 2129.39)"/><path d="M2.66544 22.3099 5.31711 22.3099 5.31711 9.13406 13.1896 16.0569 16.5569 16.0569 8.04219 8.54683 16.9193 0 13.4786 0 5.31711 7.84033 5.31711 0 2.66544 0 2.66544 22.3099Z" fill="#000000" fill-rule="nonzero" fill-opacity="1" transform="matrix(1 0 0 -1.00047 3425.77 2129.39)"/><g><path d="M125.328 500.619 1025.29 500.619" stroke="#B0B0B0" stroke-width="2.34889" stroke-linecap="butt" stroke-linejoin="round" stroke-miterlimit="4" stroke-dasharray="8.69089 3.75822" stroke-opacity="0.6" fill="none" fill-rule="nonzero" transform="matrix(1 0 0 1.00047 3338 1503)"/></g><path d="M0 0-10.2764 0" stroke="#000000" stroke-width="2.34889" stroke-linecap="butt" stroke-linejoin="round" stroke-miterlimit="4" stroke-opacity="1" fill="none" fill-rule="nonzero" transform="matrix(1 0 0 1.00047 3463.33 2003.86)"/><path d="M3.64261 2.43605 8.3725 2.43605 8.3725 18.7682 3.22513 17.7359 3.22513 20.3739 8.34498 21.4061 11.2398 21.4061 11.2398 2.43605 15.9697 2.43605 15.9697 0 3.64261 0 3.64261 2.43605Z" fill="#000000" fill-rule="nonzero" fill-opacity="1" transform="matrix(1 0 0 -1.00047 3369.73 2015.02)"/><path d="M3.17008 21.4061 14.5383 21.4061 14.5383 18.9654 5.82176 18.9654 5.82176 13.7217C6.24075 13.8655 6.65979 13.9725 7.07878 14.0429 7.50084 14.1132 7.92291 14.1484 8.34498 14.1484 10.7336 14.1484 12.6253 13.4939 14.0199 12.1849 15.4177 10.8759 16.1165 9.10346 16.1165 6.86775 16.1165 4.56473 15.3993 2.77401 13.9649 1.49558 12.5304 0.220208 10.5088-0.417478 7.89997-0.417478 7.00079-0.417478 6.08477-0.341017 5.15196-0.188095 4.22219-0.0351722 3.26031 0.194211 2.26631 0.500056L2.26631 3.41323C3.12573 2.94529 4.01421 2.59662 4.93175 2.36724 5.84928 2.13786 6.81879 2.02316 7.84033 2.02316 9.49497 2.02316 10.804 2.45746 11.7674 3.32606 12.7339 4.19466 13.2171 5.37524 13.2171 6.86775 13.2171 8.35723 12.7339 9.53626 11.7674 10.4048 10.804 11.2765 9.49497 11.7123 7.84033 11.7123 7.06653 11.7123 6.29429 11.6267 5.52356 11.4554 4.7559 11.2842 3.9714 11.0165 3.17008 10.6526L3.17008 21.4061Z" fill="#000000" fill-rule="nonzero" fill-opacity="1" transform="matrix(1 0 0 -1.00047 3388.41 2015.02)"/><path d="M9.33133 19.4976C7.84185 19.4976 6.72094 18.7636 5.96856 17.2955 5.21926 15.8305 4.84458 13.6254 4.84458 10.6801 4.84458 7.74706 5.21926 5.5465 5.96856 4.07844 6.72094 2.61039 7.84185 1.87636 9.33133 1.87636 10.833 1.87636 11.9585 2.61039 12.7079 4.07844 13.4602 5.5465 13.8364 7.74706 13.8364 10.6801 13.8364 13.6254 13.4602 15.8305 12.7079 17.2955 11.9585 18.7636 10.833 19.4976 9.33133 19.4976ZM9.33133 21.7914C11.7322 21.7914 13.5657 20.8418 14.8319 18.9425 16.0981 17.0463 16.7312 14.2921 16.7312 10.6801 16.7312 7.07726 16.0981 4.32617 14.8319 2.42688 13.5657 0.530642 11.7322-0.417478 9.33133-0.417478 6.93349-0.417478 5.10149 0.530642 3.83529 2.42688 2.5691 4.32617 1.936 7.07726 1.936 10.6801 1.936 14.2921 2.5691 17.0463 3.83529 18.9425 5.10149 20.8418 6.93349 21.7914 9.33133 21.7914Z" fill="#000000" fill-rule="nonzero" fill-opacity="1" transform="matrix(1 0 0 -1.00047 3407.09 2015.02)"/><path d="M2.66544 22.3099 5.31711 22.3099 5.31711 9.13406 13.1896 16.0569 16.5569 16.0569 8.04219 8.54683 16.9193 0 13.4786 0 5.31711 7.84033 5.31711 0 2.66544 0 2.66544 22.3099Z" fill="#000000" fill-rule="nonzero" fill-opacity="1" transform="matrix(1 0 0 -1.00047 3425.77 2015.02)"/><g><path d="M125.328 386.298 1025.29 386.298" stroke="#B0B0B0" stroke-width="2.34889" stroke-linecap="butt" stroke-linejoin="round" stroke-miterlimit="4" stroke-dasharray="8.69089 3.75822" stroke-opacity="0.6" fill="none" fill-rule="nonzero" transform="matrix(1 0 0 1.00047 3338 1503)"/></g><path d="M0 0-10.2764 0" stroke="#000000" stroke-width="2.34889" stroke-linecap="butt" stroke-linejoin="round" stroke-miterlimit="4" stroke-opacity="1" fill="none" fill-rule="nonzero" transform="matrix(1 0 0 1.00047 3463.33 1889.48)"/><path d="M3.64261 2.43605 8.3725 2.43605 8.3725 18.7682 3.22513 17.7359 3.22513 20.3739 8.34498 21.4061 11.2398 21.4061 11.2398 2.43605 15.9697 2.43605 15.9697 0 3.64261 0 3.64261 2.43605Z" fill="#000000" fill-rule="nonzero" fill-opacity="1" transform="matrix(1 0 0 -1.00047 3369.73 1900.64)"/><path d="M2.40853 21.4061 16.1715 21.4061 16.1715 20.172 8.40003 0 5.37675 0 12.6895 18.9654 2.40853 18.9654 2.40853 21.4061Z" fill="#000000" fill-rule="nonzero" fill-opacity="1" transform="matrix(1 0 0 -1.00047 3388.41 1900.64)"/><path d="M3.17008 21.4061 14.5383 21.4061 14.5383 18.9654 5.82176 18.9654 5.82176 13.7217C6.24075 13.8655 6.65979 13.9725 7.07878 14.0429 7.50084 14.1132 7.92291 14.1484 8.34498 14.1484 10.7336 14.1484 12.6253 13.4939 14.0199 12.1849 15.4177 10.8759 16.1165 9.10346 16.1165 6.86775 16.1165 4.56473 15.3993 2.77401 13.9649 1.49558 12.5304 0.220208 10.5088-0.417478 7.89997-0.417478 7.00079-0.417478 6.08477-0.341017 5.15196-0.188095 4.22219-0.0351722 3.26031 0.194211 2.26631 0.500056L2.26631 3.41323C3.12573 2.94529 4.01421 2.59662 4.93175 2.36724 5.84928 2.13786 6.81879 2.02316 7.84033 2.02316 9.49497 2.02316 10.804 2.45746 11.7674 3.32606 12.7339 4.19466 13.2171 5.37524 13.2171 6.86775 13.2171 8.35723 12.7339 9.53626 11.7674 10.4048 10.804 11.2765 9.49497 11.7123 7.84033 11.7123 7.06653 11.7123 6.29429 11.6267 5.52356 11.4554 4.7559 11.2842 3.9714 11.0165 3.17008 10.6526L3.17008 21.4061Z" fill="#000000" fill-rule="nonzero" fill-opacity="1" transform="matrix(1 0 0 -1.00047 3407.09 1900.64)"/><path d="M2.66544 22.3099 5.31711 22.3099 5.31711 9.13406 13.1896 16.0569 16.5569 16.0569 8.04219 8.54683 16.9193 0 13.4786 0 5.31711 7.84033 5.31711 0 2.66544 0 2.66544 22.3099Z" fill="#000000" fill-rule="nonzero" fill-opacity="1" transform="matrix(1 0 0 -1.00047 3425.77 1900.64)"/><g><path d="M125.328 271.978 1025.29 271.978" stroke="#B0B0B0" stroke-width="2.34889" stroke-linecap="butt" stroke-linejoin="round" stroke-miterlimit="4" stroke-dasharray="8.69089 3.75822" stroke-opacity="0.6" fill="none" fill-rule="nonzero" transform="matrix(1 0 0 1.00047 3338 1503)"/></g><path d="M0 0-10.2764 0" stroke="#000000" stroke-width="2.34889" stroke-linecap="butt" stroke-linejoin="round" stroke-miterlimit="4" stroke-opacity="1" fill="none" fill-rule="nonzero" transform="matrix(1 0 0 1.00047 3463.33 1775.11)"/><path d="M5.63366 2.43605 15.7403 2.43605 15.7403 0 2.15162 0 2.15162 2.43605C3.2496 3.5738 4.74673 5.09998 6.64295 7.01455 8.54225 8.9322 9.73504 10.1694 10.2213 10.726 11.148 11.7659 11.7949 12.6467 12.1619 13.3685 12.532 14.0903 12.717 14.7998 12.717 15.4972 12.717 16.6349 12.3179 17.5616 11.5196 18.2773 10.7214 18.996 9.6815 19.3554 8.40003 19.3554 7.49167 19.3554 6.53285 19.1979 5.52356 18.8829 4.51733 18.5678 3.44075 18.0892 2.29384 17.4469L2.29384 20.3739C3.4591 20.8418 4.54791 21.195 5.56026 21.4336 6.57565 21.6722 7.50392 21.7914 8.34498 21.7914 10.5623 21.7914 12.3301 21.2363 13.6483 20.1261 14.9665 19.019 15.6256 17.5387 15.6256 15.6853 15.6256 14.8044 15.4605 13.9695 15.1301 13.1804 14.8029 12.3944 14.2034 11.4661 13.3318 10.3957 13.0932 10.1173 12.3332 9.31605 11.0517 7.99172 9.77326 6.6674 7.96727 4.81554 5.63366 2.43605Z" fill="#000000" fill-rule="nonzero" fill-opacity="1" transform="matrix(1 0 0 -1.00047 3369.73 1786.27)"/><path d="M9.33133 19.4976C7.84185 19.4976 6.72094 18.7636 5.96856 17.2955 5.21926 15.8305 4.84458 13.6254 4.84458 10.6801 4.84458 7.74706 5.21926 5.5465 5.96856 4.07844 6.72094 2.61039 7.84185 1.87636 9.33133 1.87636 10.833 1.87636 11.9585 2.61039 12.7079 4.07844 13.4602 5.5465 13.8364 7.74706 13.8364 10.6801 13.8364 13.6254 13.4602 15.8305 12.7079 17.2955 11.9585 18.7636 10.833 19.4976 9.33133 19.4976ZM9.33133 21.7914C11.7322 21.7914 13.5657 20.8418 14.8319 18.9425 16.0981 17.0463 16.7312 14.2921 16.7312 10.6801 16.7312 7.07726 16.0981 4.32617 14.8319 2.42688 13.5657 0.530642 11.7322-0.417478 9.33133-0.417478 6.93349-0.417478 5.10149 0.530642 3.83529 2.42688 2.5691 4.32617 1.936 7.07726 1.936 10.6801 1.936 14.2921 2.5691 17.0463 3.83529 18.9425 5.10149 20.8418 6.93349 21.7914 9.33133 21.7914Z" fill="#000000" fill-rule="nonzero" fill-opacity="1" transform="matrix(1 0 0 -1.00047 3388.41 1786.27)"/><path d="M9.33133 19.4976C7.84185 19.4976 6.72094 18.7636 5.96856 17.2955 5.21926 15.8305 4.84458 13.6254 4.84458 10.6801 4.84458 7.74706 5.21926 5.5465 5.96856 4.07844 6.72094 2.61039 7.84185 1.87636 9.33133 1.87636 10.833 1.87636 11.9585 2.61039 12.7079 4.07844 13.4602 5.5465 13.8364 7.74706 13.8364 10.6801 13.8364 13.6254 13.4602 15.8305 12.7079 17.2955 11.9585 18.7636 10.833 19.4976 9.33133 19.4976ZM9.33133 21.7914C11.7322 21.7914 13.5657 20.8418 14.8319 18.9425 16.0981 17.0463 16.7312 14.2921 16.7312 10.6801 16.7312 7.07726 16.0981 4.32617 14.8319 2.42688 13.5657 0.530642 11.7322-0.417478 9.33133-0.417478 6.93349-0.417478 5.10149 0.530642 3.83529 2.42688 2.5691 4.32617 1.936 7.07726 1.936 10.6801 1.936 14.2921 2.5691 17.0463 3.83529 18.9425 5.10149 20.8418 6.93349 21.7914 9.33133 21.7914Z" fill="#000000" fill-rule="nonzero" fill-opacity="1" transform="matrix(1 0 0 -1.00047 3407.09 1786.27)"/><path d="M2.66544 22.3099 5.31711 22.3099 5.31711 9.13406 13.1896 16.0569 16.5569 16.0569 8.04219 8.54683 16.9193 0 13.4786 0 5.31711 7.84033 5.31711 0 2.66544 0 2.66544 22.3099Z" fill="#000000" fill-rule="nonzero" fill-opacity="1" transform="matrix(1 0 0 -1.00047 3425.77 1786.27)"/><g><path d="M125.328 157.657 1025.29 157.657" stroke="#B0B0B0" stroke-width="2.34889" stroke-linecap="butt" stroke-linejoin="round" stroke-miterlimit="4" stroke-dasharray="8.69089 3.75822" stroke-opacity="0.6" fill="none" fill-rule="nonzero" transform="matrix(1 0 0 1.00047 3338 1503)"/></g><path d="M0 0-10.2764 0" stroke="#000000" stroke-width="2.34889" stroke-linecap="butt" stroke-linejoin="round" stroke-miterlimit="4" stroke-opacity="1" fill="none" fill-rule="nonzero" transform="matrix(1 0 0 1.00047 3463.33 1660.73)"/><path d="M5.63366 2.43605 15.7403 2.43605 15.7403 0 2.15162 0 2.15162 2.43605C3.2496 3.5738 4.74673 5.09998 6.64295 7.01455 8.54225 8.9322 9.73504 10.1694 10.2213 10.726 11.148 11.7659 11.7949 12.6467 12.1619 13.3685 12.532 14.0903 12.717 14.7998 12.717 15.4972 12.717 16.6349 12.3179 17.5616 11.5196 18.2773 10.7214 18.996 9.6815 19.3554 8.40003 19.3554 7.49167 19.3554 6.53285 19.1979 5.52356 18.8829 4.51733 18.5678 3.44075 18.0892 2.29384 17.4469L2.29384 20.3739C3.4591 20.8418 4.54791 21.195 5.56026 21.4336 6.57565 21.6722 7.50392 21.7914 8.34498 21.7914 10.5623 21.7914 12.3301 21.2363 13.6483 20.1261 14.9665 19.019 15.6256 17.5387 15.6256 15.6853 15.6256 14.8044 15.4605 13.9695 15.1301 13.1804 14.8029 12.3944 14.2034 11.4661 13.3318 10.3957 13.0932 10.1173 12.3332 9.31605 11.0517 7.99172 9.77326 6.6674 7.96727 4.81554 5.63366 2.43605Z" fill="#000000" fill-rule="nonzero" fill-opacity="1" transform="matrix(1 0 0 -1.00047 3369.73 1671.89)"/><path d="M5.63366 2.43605 15.7403 2.43605 15.7403 0 2.15162 0 2.15162 2.43605C3.2496 3.5738 4.74673 5.09998 6.64295 7.01455 8.54225 8.9322 9.73504 10.1694 10.2213 10.726 11.148 11.7659 11.7949 12.6467 12.1619 13.3685 12.532 14.0903 12.717 14.7998 12.717 15.4972 12.717 16.6349 12.3179 17.5616 11.5196 18.2773 10.7214 18.996 9.6815 19.3554 8.40003 19.3554 7.49167 19.3554 6.53285 19.1979 5.52356 18.8829 4.51733 18.5678 3.44075 18.0892 2.29384 17.4469L2.29384 20.3739C3.4591 20.8418 4.54791 21.195 5.56026 21.4336 6.57565 21.6722 7.50392 21.7914 8.34498 21.7914 10.5623 21.7914 12.3301 21.2363 13.6483 20.1261 14.9665 19.019 15.6256 17.5387 15.6256 15.6853 15.6256 14.8044 15.4605 13.9695 15.1301 13.1804 14.8029 12.3944 14.2034 11.4661 13.3318 10.3957 13.0932 10.1173 12.3332 9.31605 11.0517 7.99172 9.77326 6.6674 7.96727 4.81554 5.63366 2.43605Z" fill="#000000" fill-rule="nonzero" fill-opacity="1" transform="matrix(1 0 0 -1.00047 3388.41 1671.89)"/><path d="M3.17008 21.4061 14.5383 21.4061 14.5383 18.9654 5.82176 18.9654 5.82176 13.7217C6.24075 13.8655 6.65979 13.9725 7.07878 14.0429 7.50084 14.1132 7.92291 14.1484 8.34498 14.1484 10.7336 14.1484 12.6253 13.4939 14.0199 12.1849 15.4177 10.8759 16.1165 9.10346 16.1165 6.86775 16.1165 4.56473 15.3993 2.77401 13.9649 1.49558 12.5304 0.220208 10.5088-0.417478 7.89997-0.417478 7.00079-0.417478 6.08477-0.341017 5.15196-0.188095 4.22219-0.0351722 3.26031 0.194211 2.26631 0.500056L2.26631 3.41323C3.12573 2.94529 4.01421 2.59662 4.93175 2.36724 5.84928 2.13786 6.81879 2.02316 7.84033 2.02316 9.49497 2.02316 10.804 2.45746 11.7674 3.32606 12.7339 4.19466 13.2171 5.37524 13.2171 6.86775 13.2171 8.35723 12.7339 9.53626 11.7674 10.4048 10.804 11.2765 9.49497 11.7123 7.84033 11.7123 7.06653 11.7123 6.29429 11.6267 5.52356 11.4554 4.7559 11.2842 3.9714 11.0165 3.17008 10.6526L3.17008 21.4061Z" fill="#000000" fill-rule="nonzero" fill-opacity="1" transform="matrix(1 0 0 -1.00047 3407.09 1671.89)"/><path d="M2.66544 22.3099 5.31711 22.3099 5.31711 9.13406 13.1896 16.0569 16.5569 16.0569 8.04219 8.54683 16.9193 0 13.4786 0 5.31711 7.84033 5.31711 0 2.66544 0 2.66544 22.3099Z" fill="#000000" fill-rule="nonzero" fill-opacity="1" transform="matrix(1 0 0 -1.00047 3425.77 1671.89)"/><g><path d="M125.328 43.337 1025.29 43.337" stroke="#B0B0B0" stroke-width="2.34889" stroke-linecap="butt" stroke-linejoin="round" stroke-miterlimit="4" stroke-dasharray="8.69089 3.75822" stroke-opacity="0.6" fill="none" fill-rule="nonzero" transform="matrix(1 0 0 1.00047 3338 1503)"/></g><path d="M0 0-10.2764 0" stroke="#000000" stroke-width="2.34889" stroke-linecap="butt" stroke-linejoin="round" stroke-miterlimit="4" stroke-opacity="1" fill="none" fill-rule="nonzero" transform="matrix(1 0 0 1.00047 3463.33 1546.36)"/><path d="M5.63366 2.43605 15.7403 2.43605 15.7403 0 2.15162 0 2.15162 2.43605C3.2496 3.5738 4.74673 5.09998 6.64295 7.01455 8.54225 8.9322 9.73504 10.1694 10.2213 10.726 11.148 11.7659 11.7949 12.6467 12.1619 13.3685 12.532 14.0903 12.717 14.7998 12.717 15.4972 12.717 16.6349 12.3179 17.5616 11.5196 18.2773 10.7214 18.996 9.6815 19.3554 8.40003 19.3554 7.49167 19.3554 6.53285 19.1979 5.52356 18.8829 4.51733 18.5678 3.44075 18.0892 2.29384 17.4469L2.29384 20.3739C3.4591 20.8418 4.54791 21.195 5.56026 21.4336 6.57565 21.6722 7.50392 21.7914 8.34498 21.7914 10.5623 21.7914 12.3301 21.2363 13.6483 20.1261 14.9665 19.019 15.6256 17.5387 15.6256 15.6853 15.6256 14.8044 15.4605 13.9695 15.1301 13.1804 14.8029 12.3944 14.2034 11.4661 13.3318 10.3957 13.0932 10.1173 12.3332 9.31605 11.0517 7.99172 9.77326 6.6674 7.96727 4.81554 5.63366 2.43605Z" fill="#000000" fill-rule="nonzero" fill-opacity="1" transform="matrix(1 0 0 -1.00047 3369.73 1557.52)"/><path d="M3.17008 21.4061 14.5383 21.4061 14.5383 18.9654 5.82176 18.9654 5.82176 13.7217C6.24075 13.8655 6.65979 13.9725 7.07878 14.0429 7.50084 14.1132 7.92291 14.1484 8.34498 14.1484 10.7336 14.1484 12.6253 13.4939 14.0199 12.1849 15.4177 10.8759 16.1165 9.10346 16.1165 6.86775 16.1165 4.56473 15.3993 2.77401 13.9649 1.49558 12.5304 0.220208 10.5088-0.417478 7.89997-0.417478 7.00079-0.417478 6.08477-0.341017 5.15196-0.188095 4.22219-0.0351722 3.26031 0.194211 2.26631 0.500056L2.26631 3.41323C3.12573 2.94529 4.01421 2.59662 4.93175 2.36724 5.84928 2.13786 6.81879 2.02316 7.84033 2.02316 9.49497 2.02316 10.804 2.45746 11.7674 3.32606 12.7339 4.19466 13.2171 5.37524 13.2171 6.86775 13.2171 8.35723 12.7339 9.53626 11.7674 10.4048 10.804 11.2765 9.49497 11.7123 7.84033 11.7123 7.06653 11.7123 6.29429 11.6267 5.52356 11.4554 4.7559 11.2842 3.9714 11.0165 3.17008 10.6526L3.17008 21.4061Z" fill="#000000" fill-rule="nonzero" fill-opacity="1" transform="matrix(1 0 0 -1.00047 3388.41 1557.52)"/><path d="M9.33133 19.4976C7.84185 19.4976 6.72094 18.7636 5.96856 17.2955 5.21926 15.8305 4.84458 13.6254 4.84458 10.6801 4.84458 7.74706 5.21926 5.5465 5.96856 4.07844 6.72094 2.61039 7.84185 1.87636 9.33133 1.87636 10.833 1.87636 11.9585 2.61039 12.7079 4.07844 13.4602 5.5465 13.8364 7.74706 13.8364 10.6801 13.8364 13.6254 13.4602 15.8305 12.7079 17.2955 11.9585 18.7636 10.833 19.4976 9.33133 19.4976ZM9.33133 21.7914C11.7322 21.7914 13.5657 20.8418 14.8319 18.9425 16.0981 17.0463 16.7312 14.2921 16.7312 10.6801 16.7312 7.07726 16.0981 4.32617 14.8319 2.42688 13.5657 0.530642 11.7322-0.417478 9.33133-0.417478 6.93349-0.417478 5.10149 0.530642 3.83529 2.42688 2.5691 4.32617 1.936 7.07726 1.936 10.6801 1.936 14.2921 2.5691 17.0463 3.83529 18.9425 5.10149 20.8418 6.93349 21.7914 9.33133 21.7914Z" fill="#000000" fill-rule="nonzero" fill-opacity="1" transform="matrix(1 0 0 -1.00047 3407.09 1557.52)"/><path d="M2.66544 22.3099 5.31711 22.3099 5.31711 9.13406 13.1896 16.0569 16.5569 16.0569 8.04219 8.54683 16.9193 0 13.4786 0 5.31711 7.84033 5.31711 0 2.66544 0 2.66544 22.3099Z" fill="#000000" fill-rule="nonzero" fill-opacity="1" transform="matrix(1 0 0 -1.00047 3425.77 1557.52)"/><g><path d="M234.414 981.377 404.86 817.213 575.31 689.76 745.757 590.634 916.204 513.021" stroke="#7F7F7F" stroke-width="5.87222" stroke-linecap="butt" stroke-linejoin="round" stroke-miterlimit="4" stroke-dasharray="21.7272 9.39555" stroke-opacity="1" fill="none" fill-rule="nonzero" transform="matrix(1 0 0 1.00047 3338 1503)"/></g><g><path d="M0 11.7444C3.11466 11.7444 6.10218 10.507 8.30458 8.30458 10.507 6.10218 11.7444 3.11466 11.7444 0 11.7444-3.11466 10.507-6.10218 8.30458-8.30458 6.10218-10.507 3.11466-11.7444 0-11.7444-3.11466-11.7444-6.10218-10.507-8.30458-8.30458-10.507-6.10218-11.7444-3.11466-11.7444 0-11.7444 3.11466-10.507 6.10218-8.30458 8.30458-6.10218 10.507-3.11466 11.7444 0 11.7444Z" stroke="#7F7F7F" stroke-width="2.93611" stroke-linecap="butt" stroke-linejoin="round" stroke-miterlimit="4" stroke-opacity="1" fill="#7F7F7F" fill-rule="nonzero" fill-opacity="1" transform="matrix(1 0 0 1.00047 3572.41 2484.84)"/><path d="M0 11.7444C3.11466 11.7444 6.10218 10.507 8.30458 8.30458 10.507 6.10218 11.7444 3.11466 11.7444 0 11.7444-3.11466 10.507-6.10218 8.30458-8.30458 6.10218-10.507 3.11466-11.7444 0-11.7444-3.11466-11.7444-6.10218-10.507-8.30458-8.30458-10.507-6.10218-11.7444-3.11466-11.7444 0-11.7444 3.11466-10.507 6.10218-8.30458 8.30458-6.10218 10.507-3.11466 11.7444 0 11.7444Z" stroke="#7F7F7F" stroke-width="2.93611" stroke-linecap="butt" stroke-linejoin="round" stroke-miterlimit="4" stroke-opacity="1" fill="#7F7F7F" fill-rule="nonzero" fill-opacity="1" transform="matrix(1 0 0 1.00047 3742.86 2320.6)"/><path d="M0 11.7444C3.11466 11.7444 6.10218 10.507 8.30458 8.30458 10.507 6.10218 11.7444 3.11466 11.7444 0 11.7444-3.11466 10.507-6.10218 8.30458-8.30458 6.10218-10.507 3.11466-11.7444 0-11.7444-3.11466-11.7444-6.10218-10.507-8.30458-8.30458-10.507-6.10218-11.7444-3.11466-11.7444 0-11.7444 3.11466-10.507 6.10218-8.30458 8.30458-6.10218 10.507-3.11466 11.7444 0 11.7444Z" stroke="#7F7F7F" stroke-width="2.93611" stroke-linecap="butt" stroke-linejoin="round" stroke-miterlimit="4" stroke-opacity="1" fill="#7F7F7F" fill-rule="nonzero" fill-opacity="1" transform="matrix(1 0 0 1.00047 3913.31 2193.09)"/><path d="M0 11.7444C3.11466 11.7444 6.10218 10.507 8.30458 8.30458 10.507 6.10218 11.7444 3.11466 11.7444 0 11.7444-3.11466 10.507-6.10218 8.30458-8.30458 6.10218-10.507 3.11466-11.7444 0-11.7444-3.11466-11.7444-6.10218-10.507-8.30458-8.30458-10.507-6.10218-11.7444-3.11466-11.7444 0-11.7444 3.11466-10.507 6.10218-8.30458 8.30458-6.10218 10.507-3.11466 11.7444 0 11.7444Z" stroke="#7F7F7F" stroke-width="2.93611" stroke-linecap="butt" stroke-linejoin="round" stroke-miterlimit="4" stroke-opacity="1" fill="#7F7F7F" fill-rule="nonzero" fill-opacity="1" transform="matrix(1 0 0 1.00047 4083.76 2093.91)"/><path d="M0 11.7444C3.11466 11.7444 6.10218 10.507 8.30458 8.30458 10.507 6.10218 11.7444 3.11466 11.7444 0 11.7444-3.11466 10.507-6.10218 8.30458-8.30458 6.10218-10.507 3.11466-11.7444 0-11.7444-3.11466-11.7444-6.10218-10.507-8.30458-8.30458-10.507-6.10218-11.7444-3.11466-11.7444 0-11.7444 3.11466-10.507 6.10218-8.30458 8.30458-6.10218 10.507-3.11466 11.7444 0 11.7444Z" stroke="#7F7F7F" stroke-width="2.93611" stroke-linecap="butt" stroke-linejoin="round" stroke-miterlimit="4" stroke-opacity="1" fill="#7F7F7F" fill-rule="nonzero" fill-opacity="1" transform="matrix(1 0 0 1.00047 4254.2 2016.26)"/></g><path d="M125.328 1186.54 125.328 43.337" stroke="#000000" stroke-width="2.93611" stroke-linecap="square" stroke-linejoin="miter" stroke-miterlimit="4" stroke-opacity="1" fill="none" fill-rule="nonzero" transform="matrix(1 0 0 1.00047 3338 1503)"/><path d="M125.328 1186.54 1025.29 1186.54" stroke="#000000" stroke-width="2.93611" stroke-linecap="square" stroke-linejoin="miter" stroke-miterlimit="4" stroke-opacity="1" fill="none" fill-rule="nonzero" transform="matrix(1 0 0 1.00047 3338 1503)"/></g></g></g><g><g><g><path d="M0 1268.4 1057 1268.4 1057 0 0 0Z" fill="#FFFFFF" fill-rule="nonzero" fill-opacity="1" transform="matrix(1 0 0 1.00047 4400 1503)"/><path d="M125.328 1186.54 1025.29 1186.54 1025.29 43.337 125.328 43.337Z" fill="#FFFFFF" fill-rule="nonzero" fill-opacity="1" transform="matrix(1 0 0 1.00047 4400 1503)"/><g><path d="M166.235 1186.54 302.593 1186.54 302.593 889.19 166.235 889.19Z" fill="#806D9B" fill-rule="nonzero" fill-opacity="0.3" transform="matrix(1 0 0 1.00047 4400 1503)"/></g><g><path d="M336.684 1186.54 473.04 1186.54 473.04 932.882 336.684 932.882Z" fill="#806D9B" fill-rule="nonzero" fill-opacity="0.3" transform="matrix(1 0 0 1.00047 4400 1503)"/></g><g><path d="M507.131 1186.54 643.487 1186.54 643.487 974.997 507.131 974.997Z" fill="#806D9B" fill-rule="nonzero" fill-opacity="0.3" transform="matrix(1 0 0 1.00047 4400 1503)"/></g><g><path d="M677.578 1186.54 813.934 1186.54 813.934 1010.89 677.578 1010.89Z" fill="#806D9B" fill-rule="nonzero" fill-opacity="0.3" transform="matrix(1 0 0 1.00047 4400 1503)"/></g><g><path d="M848.025 1186.54 984.381 1186.54 984.381 1039.29 848.025 1039.29Z" fill="#806D9B" fill-rule="nonzero" fill-opacity="0.3" transform="matrix(1 0 0 1.00047 4400 1503)"/></g><path d="M0 0 0 10.2764" stroke="#000000" stroke-width="2.34889" stroke-linecap="butt" stroke-linejoin="round" stroke-miterlimit="4" stroke-opacity="1" fill="none" fill-rule="nonzero" transform="matrix(1 0 0 1.00047 4634.41 2690.1)"/><path d="M3.64261 2.43605 8.3725 2.43605 8.3725 18.7682 3.22513 17.7359 3.22513 20.3739 8.34498 21.4061 11.2398 21.4061 11.2398 2.43605 15.9697 2.43605 15.9697 0 3.64261 0 3.64261 2.43605Z" fill="#000000" fill-rule="nonzero" fill-opacity="1" transform="matrix(1 0 0 -1.00047 4625.07 2732.98)"/><path d="M0 0 0 10.2764" stroke="#000000" stroke-width="2.34889" stroke-linecap="butt" stroke-linejoin="round" stroke-miterlimit="4" stroke-opacity="1" fill="none" fill-rule="nonzero" transform="matrix(1 0 0 1.00047 4804.86 2690.1)"/><path d="M5.63366 2.43605 15.7403 2.43605 15.7403 0 2.15162 0 2.15162 2.43605C3.2496 3.5738 4.74673 5.09998 6.64295 7.01455 8.54225 8.9322 9.73504 10.1694 10.2213 10.726 11.148 11.7659 11.7949 12.6467 12.1619 13.3685 12.532 14.0903 12.717 14.7998 12.717 15.4972 12.717 16.6349 12.3179 17.5616 11.5196 18.2773 10.7214 18.996 9.68151 19.3554 8.40003 19.3554 7.49167 19.3554 6.53285 19.1979 5.52356 18.8829 4.51733 18.5678 3.44076 18.0892 2.29384 17.4469L2.29384 20.3739C3.45911 20.8418 4.54791 21.1951 5.56026 21.4336 6.57565 21.6722 7.50392 21.7914 8.34498 21.7914 10.5623 21.7914 12.3302 21.2363 13.6483 20.1261 14.9665 19.019 15.6256 17.5387 15.6256 15.6853 15.6256 14.8044 15.4605 13.9695 15.1301 13.1804 14.8029 12.3944 14.2034 11.4661 13.3318 10.3957 13.0932 10.1173 12.3332 9.31605 11.0517 7.99173 9.77326 6.6674 7.96728 4.81554 5.63366 2.43605Z" fill="#000000" fill-rule="nonzero" fill-opacity="1" transform="matrix(1 0 0 -1.00047 4795.52 2732.98)"/><path d="M0 0 0 10.2764" stroke="#000000" stroke-width="2.34889" stroke-linecap="butt" stroke-linejoin="round" stroke-miterlimit="4" stroke-opacity="1" fill="none" fill-rule="nonzero" transform="matrix(1 0 0 1.00047 4975.31 2690.1)"/><path d="M11.9142 11.5426C13.2997 11.2459 14.3808 10.6281 15.1577 9.68917 15.9376 8.75328 16.3275 7.59719 16.3275 6.22089 16.3275 4.11056 15.6012 2.47582 14.1484 1.31666 12.6956 0.160569 10.6312-0.417478 7.95503-0.417478 7.05892-0.417478 6.13523-0.328783 5.18407-0.151393 4.23289 0.0259968 3.25113 0.292082 2.23878 0.646862L2.23878 3.44076C3.0401 2.97281 3.91787 2.61956 4.87211 2.381 5.82942 2.14244 6.82953 2.02316 7.87245 2.02316 9.68609 2.02316 11.0685 2.381 12.0197 3.09668 12.9709 3.81236 13.4465 4.85376 13.4465 6.22089 13.4465 7.48401 13.0045 8.47036 12.1206 9.17993 11.2367 9.89254 10.0072 10.2489 8.43214 10.2489L5.93645 10.2489 5.93645 12.6299 8.54684 12.6299C9.96902 12.6299 11.0578 12.9143 11.8133 13.4832 12.5687 14.052 12.9464 14.8717 12.9464 15.9422 12.9464 17.0401 12.5565 17.8828 11.7766 18.47 10.9997 19.0603 9.88492 19.3554 8.43214 19.3554 7.63696 19.3554 6.78517 19.2682 5.87681 19.0939 4.96845 18.9226 3.96987 18.6566 2.88106 18.2956L2.88106 20.8739C3.9821 21.1798 5.01281 21.4092 5.97315 21.5621 6.93349 21.715 7.83882 21.7914 8.68905 21.7914 10.8881 21.7914 12.6268 21.2914 13.9052 20.2913 15.1867 19.2942 15.8275 17.9455 15.8275 16.245 15.8275 15.0583 15.488 14.0566 14.809 13.24 14.13 12.4234 13.1651 11.8576 11.9142 11.5426Z" fill="#000000" fill-rule="nonzero" fill-opacity="1" transform="matrix(1 0 0 -1.00047 4965.97 2732.98)"/><path d="M0 0 0 10.2764" stroke="#000000" stroke-width="2.34889" stroke-linecap="butt" stroke-linejoin="round" stroke-miterlimit="4" stroke-opacity="1" fill="none" fill-rule="nonzero" transform="matrix(1 0 0 1.00047 5145.76 2690.1)"/><path d="M11.0976 18.8829 3.78483 7.45497 11.0976 7.45497 11.0976 18.8829ZM10.336 21.4061 13.9786 21.4061 13.9786 7.45497 17.034 7.45497 17.034 5.04644 13.9786 5.04644 13.9786 0 11.0976 0 11.0976 5.04644 1.43594 5.04644 1.43594 7.84033 10.336 21.4061Z" fill="#000000" fill-rule="nonzero" fill-opacity="1" transform="matrix(1 0 0 -1.00047 5136.42 2732.98)"/><path d="M0 0 0 10.2764" stroke="#000000" stroke-width="2.34889" stroke-linecap="butt" stroke-linejoin="round" stroke-miterlimit="4" stroke-opacity="1" fill="none" fill-rule="nonzero" transform="matrix(1 0 0 1.00047 5316.2 2690.1)"/><path d="M3.17008 21.4061 14.5383 21.4061 14.5383 18.9654 5.82176 18.9654 5.82176 13.7217C6.24075 13.8655 6.65979 13.9725 7.07878 14.0429 7.50085 14.1132 7.92291 14.1484 8.34498 14.1484 10.7336 14.1484 12.6253 13.4939 14.0199 12.1849 15.4177 10.8759 16.1165 9.10346 16.1165 6.86775 16.1165 4.56474 15.3993 2.77401 13.9649 1.49558 12.5305 0.220208 10.5088-0.417478 7.89997-0.417478 7.00079-0.417478 6.08477-0.341017 5.15196-0.188095 4.22219-0.0351722 3.26031 0.194211 2.26631 0.500056L2.26631 3.41323C3.12573 2.94529 4.01421 2.59662 4.93175 2.36724 5.84928 2.13786 6.8188 2.02316 7.84033 2.02316 9.49497 2.02316 10.804 2.45747 11.7674 3.32606 12.7339 4.19466 13.2171 5.37524 13.2171 6.86775 13.2171 8.35723 12.7339 9.53626 11.7674 10.4048 10.804 11.2765 9.49497 11.7123 7.84033 11.7123 7.06653 11.7123 6.29429 11.6267 5.52356 11.4554 4.7559 11.2842 3.9714 11.0165 3.17008 10.6526L3.17008 21.4061Z" fill="#000000" fill-rule="nonzero" fill-opacity="1" transform="matrix(1 0 0 -1.00047 5306.86 2732.98)"/><g><path d="M125.328 1186.54 1025.29 1186.54" stroke="#B0B0B0" stroke-width="2.34889" stroke-linecap="butt" stroke-linejoin="round" stroke-miterlimit="4" stroke-dasharray="8.69089 3.75822" stroke-opacity="0.6" fill="none" fill-rule="nonzero" transform="matrix(1 0 0 1.00047 4400 1503)"/></g><path d="M0 0-10.2764 0" stroke="#000000" stroke-width="2.34889" stroke-linecap="butt" stroke-linejoin="round" stroke-miterlimit="4" stroke-opacity="1" fill="none" fill-rule="nonzero" transform="matrix(1 0 0 1.00047 4525.33 2690.1)"/><path d="M9.33133 19.4976C7.84185 19.4976 6.72094 18.7636 5.96856 17.2955 5.21926 15.8305 4.84458 13.6254 4.84458 10.6801 4.84458 7.74707 5.21926 5.5465 5.96856 4.07844 6.72094 2.61039 7.84185 1.87636 9.33133 1.87636 10.833 1.87636 11.9586 2.61039 12.7079 4.07844 13.4602 5.5465 13.8364 7.74707 13.8364 10.6801 13.8364 13.6254 13.4602 15.8305 12.7079 17.2955 11.9586 18.7636 10.833 19.4976 9.33133 19.4976ZM9.33133 21.7914C11.7322 21.7914 13.5658 20.8418 14.8319 18.9425 16.0981 17.0463 16.7312 14.2921 16.7312 10.6801 16.7312 7.07727 16.0981 4.32618 14.8319 2.42688 13.5658 0.530642 11.7322-0.417478 9.33133-0.417478 6.93349-0.417478 5.10149 0.530642 3.8353 2.42688 2.5691 4.32618 1.936 7.07727 1.936 10.6801 1.936 14.2921 2.5691 17.0463 3.8353 18.9425 5.10149 20.8418 6.93349 21.7914 9.33133 21.7914Z" fill="#000000" fill-rule="nonzero" fill-opacity="1" transform="matrix(1 0 0 -1.00047 4469.09 2701.26)"/><path d="M2.66544 22.3099 5.31711 22.3099 5.31711 9.13406 13.1896 16.0569 16.5569 16.0569 8.04219 8.54684 16.9193 0 13.4786 0 5.31711 7.84033 5.31711 0 2.66544 0 2.66544 22.3099Z" fill="#000000" fill-rule="nonzero" fill-opacity="1" transform="matrix(1 0 0 -1.00047 4487.77 2701.26)"/><g><path d="M125.328 1072.22 1025.29 1072.22" stroke="#B0B0B0" stroke-width="2.34889" stroke-linecap="butt" stroke-linejoin="round" stroke-miterlimit="4" stroke-dasharray="8.69089 3.75822" stroke-opacity="0.6" fill="none" fill-rule="nonzero" transform="matrix(1 0 0 1.00047 4400 1503)"/></g><path d="M0 0-10.2764 0" stroke="#000000" stroke-width="2.34889" stroke-linecap="butt" stroke-linejoin="round" stroke-miterlimit="4" stroke-opacity="1" fill="none" fill-rule="nonzero" transform="matrix(1 0 0 1.00047 4525.33 2575.73)"/><path d="M5.63366 2.43605 15.7403 2.43605 15.7403 0 2.15162 0 2.15162 2.43605C3.2496 3.5738 4.74673 5.09998 6.64295 7.01455 8.54225 8.9322 9.73504 10.1694 10.2213 10.726 11.148 11.7659 11.7949 12.6467 12.1619 13.3685 12.532 14.0903 12.717 14.7998 12.717 15.4972 12.717 16.6349 12.3179 17.5616 11.5196 18.2773 10.7214 18.996 9.68151 19.3554 8.40003 19.3554 7.49167 19.3554 6.53285 19.1979 5.52356 18.8829 4.51733 18.5678 3.44076 18.0892 2.29384 17.4469L2.29384 20.3739C3.45911 20.8418 4.54791 21.1951 5.56026 21.4336 6.57565 21.6722 7.50392 21.7914 8.34498 21.7914 10.5623 21.7914 12.3302 21.2363 13.6483 20.1261 14.9665 19.019 15.6256 17.5387 15.6256 15.6853 15.6256 14.8044 15.4605 13.9695 15.1301 13.1804 14.8029 12.3944 14.2034 11.4661 13.3318 10.3957 13.0932 10.1173 12.3332 9.31605 11.0517 7.99173 9.77326 6.6674 7.96728 4.81554 5.63366 2.43605Z" fill="#000000" fill-rule="nonzero" fill-opacity="1" transform="matrix(1 0 0 -1.00047 4450.41 2586.89)"/><path d="M3.17008 21.4061 14.5383 21.4061 14.5383 18.9654 5.82176 18.9654 5.82176 13.7217C6.24075 13.8655 6.65979 13.9725 7.07878 14.0429 7.50085 14.1132 7.92291 14.1484 8.34498 14.1484 10.7336 14.1484 12.6253 13.4939 14.0199 12.1849 15.4177 10.8759 16.1165 9.10346 16.1165 6.86775 16.1165 4.56474 15.3993 2.77401 13.9649 1.49558 12.5305 0.220208 10.5088-0.417478 7.89997-0.417478 7.00079-0.417478 6.08477-0.341017 5.15196-0.188095 4.22219-0.0351722 3.26031 0.194211 2.26631 0.500056L2.26631 3.41323C3.12573 2.94529 4.01421 2.59662 4.93175 2.36724 5.84928 2.13786 6.8188 2.02316 7.84033 2.02316 9.49497 2.02316 10.804 2.45747 11.7674 3.32606 12.7339 4.19466 13.2171 5.37524 13.2171 6.86775 13.2171 8.35723 12.7339 9.53626 11.7674 10.4048 10.804 11.2765 9.49497 11.7123 7.84033 11.7123 7.06653 11.7123 6.29429 11.6267 5.52356 11.4554 4.7559 11.2842 3.9714 11.0165 3.17008 10.6526L3.17008 21.4061Z" fill="#000000" fill-rule="nonzero" fill-opacity="1" transform="matrix(1 0 0 -1.00047 4469.09 2586.89)"/><path d="M2.66544 22.3099 5.31711 22.3099 5.31711 9.13406 13.1896 16.0569 16.5569 16.0569 8.04219 8.54684 16.9193 0 13.4786 0 5.31711 7.84033 5.31711 0 2.66544 0 2.66544 22.3099Z" fill="#000000" fill-rule="nonzero" fill-opacity="1" transform="matrix(1 0 0 -1.00047 4487.77 2586.89)"/><g><path d="M125.328 957.9 1025.29 957.9" stroke="#B0B0B0" stroke-width="2.34889" stroke-linecap="butt" stroke-linejoin="round" stroke-miterlimit="4" stroke-dasharray="8.69089 3.75822" stroke-opacity="0.6" fill="none" fill-rule="nonzero" transform="matrix(1 0 0 1.00047 4400 1503)"/></g><path d="M0 0-10.2764 0" stroke="#000000" stroke-width="2.34889" stroke-linecap="butt" stroke-linejoin="round" stroke-miterlimit="4" stroke-opacity="1" fill="none" fill-rule="nonzero" transform="matrix(1 0 0 1.00047 4525.33 2461.35)"/><path d="M3.17008 21.4061 14.5383 21.4061 14.5383 18.9654 5.82176 18.9654 5.82176 13.7217C6.24075 13.8655 6.65979 13.9725 7.07878 14.0429 7.50085 14.1132 7.92291 14.1484 8.34498 14.1484 10.7336 14.1484 12.6253 13.4939 14.0199 12.1849 15.4177 10.8759 16.1165 9.10346 16.1165 6.86775 16.1165 4.56474 15.3993 2.77401 13.9649 1.49558 12.5305 0.220208 10.5088-0.417478 7.89997-0.417478 7.00079-0.417478 6.08477-0.341017 5.15196-0.188095 4.22219-0.0351722 3.26031 0.194211 2.26631 0.500056L2.26631 3.41323C3.12573 2.94529 4.01421 2.59662 4.93175 2.36724 5.84928 2.13786 6.8188 2.02316 7.84033 2.02316 9.49497 2.02316 10.804 2.45747 11.7674 3.32606 12.7339 4.19466 13.2171 5.37524 13.2171 6.86775 13.2171 8.35723 12.7339 9.53626 11.7674 10.4048 10.804 11.2765 9.49497 11.7123 7.84033 11.7123 7.06653 11.7123 6.29429 11.6267 5.52356 11.4554 4.7559 11.2842 3.9714 11.0165 3.17008 10.6526L3.17008 21.4061Z" fill="#000000" fill-rule="nonzero" fill-opacity="1" transform="matrix(1 0 0 -1.00047 4450.41 2472.51)"/><path d="M9.33133 19.4976C7.84185 19.4976 6.72094 18.7636 5.96856 17.2955 5.21926 15.8305 4.84458 13.6254 4.84458 10.6801 4.84458 7.74707 5.21926 5.5465 5.96856 4.07844 6.72094 2.61039 7.84185 1.87636 9.33133 1.87636 10.833 1.87636 11.9586 2.61039 12.7079 4.07844 13.4602 5.5465 13.8364 7.74707 13.8364 10.6801 13.8364 13.6254 13.4602 15.8305 12.7079 17.2955 11.9586 18.7636 10.833 19.4976 9.33133 19.4976ZM9.33133 21.7914C11.7322 21.7914 13.5658 20.8418 14.8319 18.9425 16.0981 17.0463 16.7312 14.2921 16.7312 10.6801 16.7312 7.07727 16.0981 4.32618 14.8319 2.42688 13.5658 0.530642 11.7322-0.417478 9.33133-0.417478 6.93349-0.417478 5.10149 0.530642 3.8353 2.42688 2.5691 4.32618 1.936 7.07727 1.936 10.6801 1.936 14.2921 2.5691 17.0463 3.8353 18.9425 5.10149 20.8418 6.93349 21.7914 9.33133 21.7914Z" fill="#000000" fill-rule="nonzero" fill-opacity="1" transform="matrix(1 0 0 -1.00047 4469.09 2472.51)"/><path d="M2.66544 22.3099 5.31711 22.3099 5.31711 9.13406 13.1896 16.0569 16.5569 16.0569 8.04219 8.54684 16.9193 0 13.4786 0 5.31711 7.84033 5.31711 0 2.66544 0 2.66544 22.3099Z" fill="#000000" fill-rule="nonzero" fill-opacity="1" transform="matrix(1 0 0 -1.00047 4487.77 2472.51)"/><g><path d="M125.328 843.58 1025.29 843.58" stroke="#B0B0B0" stroke-width="2.34889" stroke-linecap="butt" stroke-linejoin="round" stroke-miterlimit="4" stroke-dasharray="8.69089 3.75822" stroke-opacity="0.6" fill="none" fill-rule="nonzero" transform="matrix(1 0 0 1.00047 4400 1503)"/></g><path d="M0 0-10.2764 0" stroke="#000000" stroke-width="2.34889" stroke-linecap="butt" stroke-linejoin="round" stroke-miterlimit="4" stroke-opacity="1" fill="none" fill-rule="nonzero" transform="matrix(1 0 0 1.00047 4525.33 2346.98)"/><path d="M2.40853 21.4061 16.1715 21.4061 16.1715 20.172 8.40003 0 5.37675 0 12.6895 18.9654 2.40853 18.9654 2.40853 21.4061Z" fill="#000000" fill-rule="nonzero" fill-opacity="1" transform="matrix(1 0 0 -1.00047 4450.41 2358.14)"/><path d="M3.17008 21.4061 14.5383 21.4061 14.5383 18.9654 5.82176 18.9654 5.82176 13.7217C6.24075 13.8655 6.65979 13.9725 7.07878 14.0429 7.50085 14.1132 7.92291 14.1484 8.34498 14.1484 10.7336 14.1484 12.6253 13.4939 14.0199 12.1849 15.4177 10.8759 16.1165 9.10346 16.1165 6.86775 16.1165 4.56474 15.3993 2.77401 13.9649 1.49558 12.5305 0.220208 10.5088-0.417478 7.89997-0.417478 7.00079-0.417478 6.08477-0.341017 5.15196-0.188095 4.22219-0.0351722 3.26031 0.194211 2.26631 0.500056L2.26631 3.41323C3.12573 2.94529 4.01421 2.59662 4.93175 2.36724 5.84928 2.13786 6.8188 2.02316 7.84033 2.02316 9.49497 2.02316 10.804 2.45747 11.7674 3.32606 12.7339 4.19466 13.2171 5.37524 13.2171 6.86775 13.2171 8.35723 12.7339 9.53626 11.7674 10.4048 10.804 11.2765 9.49497 11.7123 7.84033 11.7123 7.06653 11.7123 6.29429 11.6267 5.52356 11.4554 4.7559 11.2842 3.9714 11.0165 3.17008 10.6526L3.17008 21.4061Z" fill="#000000" fill-rule="nonzero" fill-opacity="1" transform="matrix(1 0 0 -1.00047 4469.09 2358.14)"/><path d="M2.66544 22.3099 5.31711 22.3099 5.31711 9.13406 13.1896 16.0569 16.5569 16.0569 8.04219 8.54684 16.9193 0 13.4786 0 5.31711 7.84033 5.31711 0 2.66544 0 2.66544 22.3099Z" fill="#000000" fill-rule="nonzero" fill-opacity="1" transform="matrix(1 0 0 -1.00047 4487.77 2358.14)"/><g><path d="M125.328 729.26 1025.29 729.26" stroke="#B0B0B0" stroke-width="2.34889" stroke-linecap="butt" stroke-linejoin="round" stroke-miterlimit="4" stroke-dasharray="8.69089 3.75822" stroke-opacity="0.6" fill="none" fill-rule="nonzero" transform="matrix(1 0 0 1.00047 4400 1503)"/></g><path d="M0 0-10.2764 0" stroke="#000000" stroke-width="2.34889" stroke-linecap="butt" stroke-linejoin="round" stroke-miterlimit="4" stroke-opacity="1" fill="none" fill-rule="nonzero" transform="matrix(1 0 0 1.00047 4525.33 2232.6)"/><path d="M3.64261 2.43605 8.3725 2.43605 8.3725 18.7682 3.22513 17.7359 3.22513 20.3739 8.34498 21.4061 11.2398 21.4061 11.2398 2.43605 15.9697 2.43605 15.9697 0 3.64261 0 3.64261 2.43605Z" fill="#000000" fill-rule="nonzero" fill-opacity="1" transform="matrix(1 0 0 -1.00047 4431.73 2243.76)"/><path d="M9.33133 19.4976C7.84185 19.4976 6.72094 18.7636 5.96856 17.2955 5.21926 15.8305 4.84458 13.6254 4.84458 10.6801 4.84458 7.74707 5.21926 5.5465 5.96856 4.07844 6.72094 2.61039 7.84185 1.87636 9.33133 1.87636 10.833 1.87636 11.9586 2.61039 12.7079 4.07844 13.4602 5.5465 13.8364 7.74707 13.8364 10.6801 13.8364 13.6254 13.4602 15.8305 12.7079 17.2955 11.9586 18.7636 10.833 19.4976 9.33133 19.4976ZM9.33133 21.7914C11.7322 21.7914 13.5658 20.8418 14.8319 18.9425 16.0981 17.0463 16.7312 14.2921 16.7312 10.6801 16.7312 7.07727 16.0981 4.32618 14.8319 2.42688 13.5658 0.530642 11.7322-0.417478 9.33133-0.417478 6.93349-0.417478 5.10149 0.530642 3.8353 2.42688 2.5691 4.32618 1.936 7.07727 1.936 10.6801 1.936 14.2921 2.5691 17.0463 3.8353 18.9425 5.10149 20.8418 6.93349 21.7914 9.33133 21.7914Z" fill="#000000" fill-rule="nonzero" fill-opacity="1" transform="matrix(1 0 0 -1.00047 4450.41 2243.76)"/><path d="M9.33133 19.4976C7.84185 19.4976 6.72094 18.7636 5.96856 17.2955 5.21926 15.8305 4.84458 13.6254 4.84458 10.6801 4.84458 7.74707 5.21926 5.5465 5.96856 4.07844 6.72094 2.61039 7.84185 1.87636 9.33133 1.87636 10.833 1.87636 11.9586 2.61039 12.7079 4.07844 13.4602 5.5465 13.8364 7.74707 13.8364 10.6801 13.8364 13.6254 13.4602 15.8305 12.7079 17.2955 11.9586 18.7636 10.833 19.4976 9.33133 19.4976ZM9.33133 21.7914C11.7322 21.7914 13.5658 20.8418 14.8319 18.9425 16.0981 17.0463 16.7312 14.2921 16.7312 10.6801 16.7312 7.07727 16.0981 4.32618 14.8319 2.42688 13.5658 0.530642 11.7322-0.417478 9.33133-0.417478 6.93349-0.417478 5.10149 0.530642 3.8353 2.42688 2.5691 4.32618 1.936 7.07727 1.936 10.6801 1.936 14.2921 2.5691 17.0463 3.8353 18.9425 5.10149 20.8418 6.93349 21.7914 9.33133 21.7914Z" fill="#000000" fill-rule="nonzero" fill-opacity="1" transform="matrix(1 0 0 -1.00047 4469.09 2243.76)"/><path d="M2.66544 22.3099 5.31711 22.3099 5.31711 9.13406 13.1896 16.0569 16.5569 16.0569 8.04219 8.54684 16.9193 0 13.4786 0 5.31711 7.84033 5.31711 0 2.66544 0 2.66544 22.3099Z" fill="#000000" fill-rule="nonzero" fill-opacity="1" transform="matrix(1 0 0 -1.00047 4487.77 2243.76)"/><g><path d="M125.328 614.939 1025.29 614.939" stroke="#B0B0B0" stroke-width="2.34889" stroke-linecap="butt" stroke-linejoin="round" stroke-miterlimit="4" stroke-dasharray="8.69089 3.75822" stroke-opacity="0.6" fill="none" fill-rule="nonzero" transform="matrix(1 0 0 1.00047 4400 1503)"/></g><path d="M0 0-10.2764 0" stroke="#000000" stroke-width="2.34889" stroke-linecap="butt" stroke-linejoin="round" stroke-miterlimit="4" stroke-opacity="1" fill="none" fill-rule="nonzero" transform="matrix(1 0 0 1.00047 4525.33 2118.23)"/><path d="M3.64261 2.43605 8.3725 2.43605 8.3725 18.7682 3.22513 17.7359 3.22513 20.3739 8.34498 21.4061 11.2398 21.4061 11.2398 2.43605 15.9697 2.43605 15.9697 0 3.64261 0 3.64261 2.43605Z" fill="#000000" fill-rule="nonzero" fill-opacity="1" transform="matrix(1 0 0 -1.00047 4431.73 2129.39)"/><path d="M5.63366 2.43605 15.7403 2.43605 15.7403 0 2.15162 0 2.15162 2.43605C3.2496 3.5738 4.74673 5.09998 6.64295 7.01455 8.54225 8.9322 9.73504 10.1694 10.2213 10.726 11.148 11.7659 11.7949 12.6467 12.1619 13.3685 12.532 14.0903 12.717 14.7998 12.717 15.4972 12.717 16.6349 12.3179 17.5616 11.5196 18.2773 10.7214 18.996 9.68151 19.3554 8.40003 19.3554 7.49167 19.3554 6.53285 19.1979 5.52356 18.8829 4.51733 18.5678 3.44076 18.0892 2.29384 17.4469L2.29384 20.3739C3.45911 20.8418 4.54791 21.1951 5.56026 21.4336 6.57565 21.6722 7.50392 21.7914 8.34498 21.7914 10.5623 21.7914 12.3302 21.2363 13.6483 20.1261 14.9665 19.019 15.6256 17.5387 15.6256 15.6853 15.6256 14.8044 15.4605 13.9695 15.1301 13.1804 14.8029 12.3944 14.2034 11.4661 13.3318 10.3957 13.0932 10.1173 12.3332 9.31605 11.0517 7.99173 9.77326 6.6674 7.96728 4.81554 5.63366 2.43605Z" fill="#000000" fill-rule="nonzero" fill-opacity="1" transform="matrix(1 0 0 -1.00047 4450.41 2129.39)"/><path d="M3.17008 21.4061 14.5383 21.4061 14.5383 18.9654 5.82176 18.9654 5.82176 13.7217C6.24075 13.8655 6.65979 13.9725 7.07878 14.0429 7.50085 14.1132 7.92291 14.1484 8.34498 14.1484 10.7336 14.1484 12.6253 13.4939 14.0199 12.1849 15.4177 10.8759 16.1165 9.10346 16.1165 6.86775 16.1165 4.56474 15.3993 2.77401 13.9649 1.49558 12.5305 0.220208 10.5088-0.417478 7.89997-0.417478 7.00079-0.417478 6.08477-0.341017 5.15196-0.188095 4.22219-0.0351722 3.26031 0.194211 2.26631 0.500056L2.26631 3.41323C3.12573 2.94529 4.01421 2.59662 4.93175 2.36724 5.84928 2.13786 6.8188 2.02316 7.84033 2.02316 9.49497 2.02316 10.804 2.45747 11.7674 3.32606 12.7339 4.19466 13.2171 5.37524 13.2171 6.86775 13.2171 8.35723 12.7339 9.53626 11.7674 10.4048 10.804 11.2765 9.49497 11.7123 7.84033 11.7123 7.06653 11.7123 6.29429 11.6267 5.52356 11.4554 4.7559 11.2842 3.9714 11.0165 3.17008 10.6526L3.17008 21.4061Z" fill="#000000" fill-rule="nonzero" fill-opacity="1" transform="matrix(1 0 0 -1.00047 4469.09 2129.39)"/><path d="M2.66544 22.3099 5.31711 22.3099 5.31711 9.13406 13.1896 16.0569 16.5569 16.0569 8.04219 8.54684 16.9193 0 13.4786 0 5.31711 7.84033 5.31711 0 2.66544 0 2.66544 22.3099Z" fill="#000000" fill-rule="nonzero" fill-opacity="1" transform="matrix(1 0 0 -1.00047 4487.77 2129.39)"/><g><path d="M125.328 500.619 1025.29 500.619" stroke="#B0B0B0" stroke-width="2.34889" stroke-linecap="butt" stroke-linejoin="round" stroke-miterlimit="4" stroke-dasharray="8.69089 3.75822" stroke-opacity="0.6" fill="none" fill-rule="nonzero" transform="matrix(1 0 0 1.00047 4400 1503)"/></g><path d="M0 0-10.2764 0" stroke="#000000" stroke-width="2.34889" stroke-linecap="butt" stroke-linejoin="round" stroke-miterlimit="4" stroke-opacity="1" fill="none" fill-rule="nonzero" transform="matrix(1 0 0 1.00047 4525.33 2003.86)"/><path d="M3.64261 2.43605 8.3725 2.43605 8.3725 18.7682 3.22513 17.7359 3.22513 20.3739 8.34498 21.4061 11.2398 21.4061 11.2398 2.43605 15.9697 2.43605 15.9697 0 3.64261 0 3.64261 2.43605Z" fill="#000000" fill-rule="nonzero" fill-opacity="1" transform="matrix(1 0 0 -1.00047 4431.73 2015.02)"/><path d="M3.17008 21.4061 14.5383 21.4061 14.5383 18.9654 5.82176 18.9654 5.82176 13.7217C6.24075 13.8655 6.65979 13.9725 7.07878 14.0429 7.50085 14.1132 7.92291 14.1484 8.34498 14.1484 10.7336 14.1484 12.6253 13.4939 14.0199 12.1849 15.4177 10.8759 16.1165 9.10346 16.1165 6.86775 16.1165 4.56474 15.3993 2.77401 13.9649 1.49558 12.5305 0.220208 10.5088-0.417478 7.89997-0.417478 7.00079-0.417478 6.08477-0.341017 5.15196-0.188095 4.22219-0.0351722 3.26031 0.194211 2.26631 0.500056L2.26631 3.41323C3.12573 2.94529 4.01421 2.59662 4.93175 2.36724 5.84928 2.13786 6.8188 2.02316 7.84033 2.02316 9.49497 2.02316 10.804 2.45747 11.7674 3.32606 12.7339 4.19466 13.2171 5.37524 13.2171 6.86775 13.2171 8.35723 12.7339 9.53626 11.7674 10.4048 10.804 11.2765 9.49497 11.7123 7.84033 11.7123 7.06653 11.7123 6.29429 11.6267 5.52356 11.4554 4.7559 11.2842 3.9714 11.0165 3.17008 10.6526L3.17008 21.4061Z" fill="#000000" fill-rule="nonzero" fill-opacity="1" transform="matrix(1 0 0 -1.00047 4450.41 2015.02)"/><path d="M9.33133 19.4976C7.84185 19.4976 6.72094 18.7636 5.96856 17.2955 5.21926 15.8305 4.84458 13.6254 4.84458 10.6801 4.84458 7.74707 5.21926 5.5465 5.96856 4.07844 6.72094 2.61039 7.84185 1.87636 9.33133 1.87636 10.833 1.87636 11.9586 2.61039 12.7079 4.07844 13.4602 5.5465 13.8364 7.74707 13.8364 10.6801 13.8364 13.6254 13.4602 15.8305 12.7079 17.2955 11.9586 18.7636 10.833 19.4976 9.33133 19.4976ZM9.33133 21.7914C11.7322 21.7914 13.5658 20.8418 14.8319 18.9425 16.0981 17.0463 16.7312 14.2921 16.7312 10.6801 16.7312 7.07727 16.0981 4.32618 14.8319 2.42688 13.5658 0.530642 11.7322-0.417478 9.33133-0.417478 6.93349-0.417478 5.10149 0.530642 3.8353 2.42688 2.5691 4.32618 1.936 7.07727 1.936 10.6801 1.936 14.2921 2.5691 17.0463 3.8353 18.9425 5.10149 20.8418 6.93349 21.7914 9.33133 21.7914Z" fill="#000000" fill-rule="nonzero" fill-opacity="1" transform="matrix(1 0 0 -1.00047 4469.09 2015.02)"/><path d="M2.66544 22.3099 5.31711 22.3099 5.31711 9.13406 13.1896 16.0569 16.5569 16.0569 8.04219 8.54684 16.9193 0 13.4786 0 5.31711 7.84033 5.31711 0 2.66544 0 2.66544 22.3099Z" fill="#000000" fill-rule="nonzero" fill-opacity="1" transform="matrix(1 0 0 -1.00047 4487.77 2015.02)"/><g><path d="M125.328 386.298 1025.29 386.298" stroke="#B0B0B0" stroke-width="2.34889" stroke-linecap="butt" stroke-linejoin="round" stroke-miterlimit="4" stroke-dasharray="8.69089 3.75822" stroke-opacity="0.6" fill="none" fill-rule="nonzero" transform="matrix(1 0 0 1.00047 4400 1503)"/></g><path d="M0 0-10.2764 0" stroke="#000000" stroke-width="2.34889" stroke-linecap="butt" stroke-linejoin="round" stroke-miterlimit="4" stroke-opacity="1" fill="none" fill-rule="nonzero" transform="matrix(1 0 0 1.00047 4525.33 1889.48)"/><path d="M3.64261 2.43605 8.3725 2.43605 8.3725 18.7682 3.22513 17.7359 3.22513 20.3739 8.34498 21.4061 11.2398 21.4061 11.2398 2.43605 15.9697 2.43605 15.9697 0 3.64261 0 3.64261 2.43605Z" fill="#000000" fill-rule="nonzero" fill-opacity="1" transform="matrix(1 0 0 -1.00047 4431.73 1900.64)"/><path d="M2.40853 21.4061 16.1715 21.4061 16.1715 20.172 8.40003 0 5.37675 0 12.6895 18.9654 2.40853 18.9654 2.40853 21.4061Z" fill="#000000" fill-rule="nonzero" fill-opacity="1" transform="matrix(1 0 0 -1.00047 4450.41 1900.64)"/><path d="M3.17008 21.4061 14.5383 21.4061 14.5383 18.9654 5.82176 18.9654 5.82176 13.7217C6.24075 13.8655 6.65979 13.9725 7.07878 14.0429 7.50085 14.1132 7.92291 14.1484 8.34498 14.1484 10.7336 14.1484 12.6253 13.4939 14.0199 12.1849 15.4177 10.8759 16.1165 9.10346 16.1165 6.86775 16.1165 4.56474 15.3993 2.77401 13.9649 1.49558 12.5305 0.220208 10.5088-0.417478 7.89997-0.417478 7.00079-0.417478 6.08477-0.341017 5.15196-0.188095 4.22219-0.0351722 3.26031 0.194211 2.26631 0.500056L2.26631 3.41323C3.12573 2.94529 4.01421 2.59662 4.93175 2.36724 5.84928 2.13786 6.8188 2.02316 7.84033 2.02316 9.49497 2.02316 10.804 2.45747 11.7674 3.32606 12.7339 4.19466 13.2171 5.37524 13.2171 6.86775 13.2171 8.35723 12.7339 9.53626 11.7674 10.4048 10.804 11.2765 9.49497 11.7123 7.84033 11.7123 7.06653 11.7123 6.29429 11.6267 5.52356 11.4554 4.7559 11.2842 3.9714 11.0165 3.17008 10.6526L3.17008 21.4061Z" fill="#000000" fill-rule="nonzero" fill-opacity="1" transform="matrix(1 0 0 -1.00047 4469.09 1900.64)"/><path d="M2.66544 22.3099 5.31711 22.3099 5.31711 9.13406 13.1896 16.0569 16.5569 16.0569 8.04219 8.54684 16.9193 0 13.4786 0 5.31711 7.84033 5.31711 0 2.66544 0 2.66544 22.3099Z" fill="#000000" fill-rule="nonzero" fill-opacity="1" transform="matrix(1 0 0 -1.00047 4487.77 1900.64)"/><g><path d="M125.328 271.978 1025.29 271.978" stroke="#B0B0B0" stroke-width="2.34889" stroke-linecap="butt" stroke-linejoin="round" stroke-miterlimit="4" stroke-dasharray="8.69089 3.75822" stroke-opacity="0.6" fill="none" fill-rule="nonzero" transform="matrix(1 0 0 1.00047 4400 1503)"/></g><path d="M0 0-10.2764 0" stroke="#000000" stroke-width="2.34889" stroke-linecap="butt" stroke-linejoin="round" stroke-miterlimit="4" stroke-opacity="1" fill="none" fill-rule="nonzero" transform="matrix(1 0 0 1.00047 4525.33 1775.11)"/><path d="M5.63366 2.43605 15.7403 2.43605 15.7403 0 2.15162 0 2.15162 2.43605C3.2496 3.5738 4.74673 5.09998 6.64295 7.01455 8.54225 8.9322 9.73504 10.1694 10.2213 10.726 11.148 11.7659 11.7949 12.6467 12.1619 13.3685 12.532 14.0903 12.717 14.7998 12.717 15.4972 12.717 16.6349 12.3179 17.5616 11.5196 18.2773 10.7214 18.996 9.68151 19.3554 8.40003 19.3554 7.49167 19.3554 6.53285 19.1979 5.52356 18.8829 4.51733 18.5678 3.44076 18.0892 2.29384 17.4469L2.29384 20.3739C3.45911 20.8418 4.54791 21.1951 5.56026 21.4336 6.57565 21.6722 7.50392 21.7914 8.34498 21.7914 10.5623 21.7914 12.3302 21.2363 13.6483 20.1261 14.9665 19.019 15.6256 17.5387 15.6256 15.6853 15.6256 14.8044 15.4605 13.9695 15.1301 13.1804 14.8029 12.3944 14.2034 11.4661 13.3318 10.3957 13.0932 10.1173 12.3332 9.31605 11.0517 7.99173 9.77326 6.6674 7.96728 4.81554 5.63366 2.43605Z" fill="#000000" fill-rule="nonzero" fill-opacity="1" transform="matrix(1 0 0 -1.00047 4431.73 1786.27)"/><path d="M9.33133 19.4976C7.84185 19.4976 6.72094 18.7636 5.96856 17.2955 5.21926 15.8305 4.84458 13.6254 4.84458 10.6801 4.84458 7.74707 5.21926 5.5465 5.96856 4.07844 6.72094 2.61039 7.84185 1.87636 9.33133 1.87636 10.833 1.87636 11.9586 2.61039 12.7079 4.07844 13.4602 5.5465 13.8364 7.74707 13.8364 10.6801 13.8364 13.6254 13.4602 15.8305 12.7079 17.2955 11.9586 18.7636 10.833 19.4976 9.33133 19.4976ZM9.33133 21.7914C11.7322 21.7914 13.5658 20.8418 14.8319 18.9425 16.0981 17.0463 16.7312 14.2921 16.7312 10.6801 16.7312 7.07727 16.0981 4.32618 14.8319 2.42688 13.5658 0.530642 11.7322-0.417478 9.33133-0.417478 6.93349-0.417478 5.10149 0.530642 3.8353 2.42688 2.5691 4.32618 1.936 7.07727 1.936 10.6801 1.936 14.2921 2.5691 17.0463 3.8353 18.9425 5.10149 20.8418 6.93349 21.7914 9.33133 21.7914Z" fill="#000000" fill-rule="nonzero" fill-opacity="1" transform="matrix(1 0 0 -1.00047 4450.41 1786.27)"/><path d="M9.33133 19.4976C7.84185 19.4976 6.72094 18.7636 5.96856 17.2955 5.21926 15.8305 4.84458 13.6254 4.84458 10.6801 4.84458 7.74707 5.21926 5.5465 5.96856 4.07844 6.72094 2.61039 7.84185 1.87636 9.33133 1.87636 10.833 1.87636 11.9586 2.61039 12.7079 4.07844 13.4602 5.5465 13.8364 7.74707 13.8364 10.6801 13.8364 13.6254 13.4602 15.8305 12.7079 17.2955 11.9586 18.7636 10.833 19.4976 9.33133 19.4976ZM9.33133 21.7914C11.7322 21.7914 13.5658 20.8418 14.8319 18.9425 16.0981 17.0463 16.7312 14.2921 16.7312 10.6801 16.7312 7.07727 16.0981 4.32618 14.8319 2.42688 13.5658 0.530642 11.7322-0.417478 9.33133-0.417478 6.93349-0.417478 5.10149 0.530642 3.8353 2.42688 2.5691 4.32618 1.936 7.07727 1.936 10.6801 1.936 14.2921 2.5691 17.0463 3.8353 18.9425 5.10149 20.8418 6.93349 21.7914 9.33133 21.7914Z" fill="#000000" fill-rule="nonzero" fill-opacity="1" transform="matrix(1 0 0 -1.00047 4469.09 1786.27)"/><path d="M2.66544 22.3099 5.31711 22.3099 5.31711 9.13406 13.1896 16.0569 16.5569 16.0569 8.04219 8.54684 16.9193 0 13.4786 0 5.31711 7.84033 5.31711 0 2.66544 0 2.66544 22.3099Z" fill="#000000" fill-rule="nonzero" fill-opacity="1" transform="matrix(1 0 0 -1.00047 4487.77 1786.27)"/><g><path d="M125.328 157.657 1025.29 157.657" stroke="#B0B0B0" stroke-width="2.34889" stroke-linecap="butt" stroke-linejoin="round" stroke-miterlimit="4" stroke-dasharray="8.69089 3.75822" stroke-opacity="0.6" fill="none" fill-rule="nonzero" transform="matrix(1 0 0 1.00047 4400 1503)"/></g><path d="M0 0-10.2764 0" stroke="#000000" stroke-width="2.34889" stroke-linecap="butt" stroke-linejoin="round" stroke-miterlimit="4" stroke-opacity="1" fill="none" fill-rule="nonzero" transform="matrix(1 0 0 1.00047 4525.33 1660.73)"/><path d="M5.63366 2.43605 15.7403 2.43605 15.7403 0 2.15162 0 2.15162 2.43605C3.2496 3.5738 4.74673 5.09998 6.64295 7.01455 8.54225 8.9322 9.73504 10.1694 10.2213 10.726 11.148 11.7659 11.7949 12.6467 12.1619 13.3685 12.532 14.0903 12.717 14.7998 12.717 15.4972 12.717 16.6349 12.3179 17.5616 11.5196 18.2773 10.7214 18.996 9.68151 19.3554 8.40003 19.3554 7.49167 19.3554 6.53285 19.1979 5.52356 18.8829 4.51733 18.5678 3.44076 18.0892 2.29384 17.4469L2.29384 20.3739C3.45911 20.8418 4.54791 21.1951 5.56026 21.4336 6.57565 21.6722 7.50392 21.7914 8.34498 21.7914 10.5623 21.7914 12.3302 21.2363 13.6483 20.1261 14.9665 19.019 15.6256 17.5387 15.6256 15.6853 15.6256 14.8044 15.4605 13.9695 15.1301 13.1804 14.8029 12.3944 14.2034 11.4661 13.3318 10.3957 13.0932 10.1173 12.3332 9.31605 11.0517 7.99173 9.77326 6.6674 7.96728 4.81554 5.63366 2.43605Z" fill="#000000" fill-rule="nonzero" fill-opacity="1" transform="matrix(1 0 0 -1.00047 4431.73 1671.89)"/><path d="M5.63366 2.43605 15.7403 2.43605 15.7403 0 2.15162 0 2.15162 2.43605C3.2496 3.5738 4.74673 5.09998 6.64295 7.01455 8.54225 8.9322 9.73504 10.1694 10.2213 10.726 11.148 11.7659 11.7949 12.6467 12.1619 13.3685 12.532 14.0903 12.717 14.7998 12.717 15.4972 12.717 16.6349 12.3179 17.5616 11.5196 18.2773 10.7214 18.996 9.68151 19.3554 8.40003 19.3554 7.49167 19.3554 6.53285 19.1979 5.52356 18.8829 4.51733 18.5678 3.44076 18.0892 2.29384 17.4469L2.29384 20.3739C3.45911 20.8418 4.54791 21.1951 5.56026 21.4336 6.57565 21.6722 7.50392 21.7914 8.34498 21.7914 10.5623 21.7914 12.3302 21.2363 13.6483 20.1261 14.9665 19.019 15.6256 17.5387 15.6256 15.6853 15.6256 14.8044 15.4605 13.9695 15.1301 13.1804 14.8029 12.3944 14.2034 11.4661 13.3318 10.3957 13.0932 10.1173 12.3332 9.31605 11.0517 7.99173 9.77326 6.6674 7.96728 4.81554 5.63366 2.43605Z" fill="#000000" fill-rule="nonzero" fill-opacity="1" transform="matrix(1 0 0 -1.00047 4450.41 1671.89)"/><path d="M3.17008 21.4061 14.5383 21.4061 14.5383 18.9654 5.82176 18.9654 5.82176 13.7217C6.24075 13.8655 6.65979 13.9725 7.07878 14.0429 7.50085 14.1132 7.92291 14.1484 8.34498 14.1484 10.7336 14.1484 12.6253 13.4939 14.0199 12.1849 15.4177 10.8759 16.1165 9.10346 16.1165 6.86775 16.1165 4.56474 15.3993 2.77401 13.9649 1.49558 12.5305 0.220208 10.5088-0.417478 7.89997-0.417478 7.00079-0.417478 6.08477-0.341017 5.15196-0.188095 4.22219-0.0351722 3.26031 0.194211 2.26631 0.500056L2.26631 3.41323C3.12573 2.94529 4.01421 2.59662 4.93175 2.36724 5.84928 2.13786 6.8188 2.02316 7.84033 2.02316 9.49497 2.02316 10.804 2.45747 11.7674 3.32606 12.7339 4.19466 13.2171 5.37524 13.2171 6.86775 13.2171 8.35723 12.7339 9.53626 11.7674 10.4048 10.804 11.2765 9.49497 11.7123 7.84033 11.7123 7.06653 11.7123 6.29429 11.6267 5.52356 11.4554 4.7559 11.2842 3.9714 11.0165 3.17008 10.6526L3.17008 21.4061Z" fill="#000000" fill-rule="nonzero" fill-opacity="1" transform="matrix(1 0 0 -1.00047 4469.09 1671.89)"/><path d="M2.66544 22.3099 5.31711 22.3099 5.31711 9.13406 13.1896 16.0569 16.5569 16.0569 8.04219 8.54684 16.9193 0 13.4786 0 5.31711 7.84033 5.31711 0 2.66544 0 2.66544 22.3099Z" fill="#000000" fill-rule="nonzero" fill-opacity="1" transform="matrix(1 0 0 -1.00047 4487.77 1671.89)"/><g><path d="M125.328 43.337 1025.29 43.337" stroke="#B0B0B0" stroke-width="2.34889" stroke-linecap="butt" stroke-linejoin="round" stroke-miterlimit="4" stroke-dasharray="8.69089 3.75822" stroke-opacity="0.6" fill="none" fill-rule="nonzero" transform="matrix(1 0 0 1.00047 4400 1503)"/></g><path d="M0 0-10.2764 0" stroke="#000000" stroke-width="2.34889" stroke-linecap="butt" stroke-linejoin="round" stroke-miterlimit="4" stroke-opacity="1" fill="none" fill-rule="nonzero" transform="matrix(1 0 0 1.00047 4525.33 1546.36)"/><path d="M5.63366 2.43605 15.7403 2.43605 15.7403 0 2.15162 0 2.15162 2.43605C3.2496 3.5738 4.74673 5.09998 6.64295 7.01455 8.54225 8.9322 9.73504 10.1694 10.2213 10.726 11.148 11.7659 11.7949 12.6467 12.1619 13.3685 12.532 14.0903 12.717 14.7998 12.717 15.4972 12.717 16.6349 12.3179 17.5616 11.5196 18.2773 10.7214 18.996 9.68151 19.3554 8.40003 19.3554 7.49167 19.3554 6.53285 19.1979 5.52356 18.8829 4.51733 18.5678 3.44076 18.0892 2.29384 17.4469L2.29384 20.3739C3.45911 20.8418 4.54791 21.1951 5.56026 21.4336 6.57565 21.6722 7.50392 21.7914 8.34498 21.7914 10.5623 21.7914 12.3302 21.2363 13.6483 20.1261 14.9665 19.019 15.6256 17.5387 15.6256 15.6853 15.6256 14.8044 15.4605 13.9695 15.1301 13.1804 14.8029 12.3944 14.2034 11.4661 13.3318 10.3957 13.0932 10.1173 12.3332 9.31605 11.0517 7.99173 9.77326 6.6674 7.96728 4.81554 5.63366 2.43605Z" fill="#000000" fill-rule="nonzero" fill-opacity="1" transform="matrix(1 0 0 -1.00047 4431.73 1557.52)"/><path d="M3.17008 21.4061 14.5383 21.4061 14.5383 18.9654 5.82176 18.9654 5.82176 13.7217C6.24075 13.8655 6.65979 13.9725 7.07878 14.0429 7.50085 14.1132 7.92291 14.1484 8.34498 14.1484 10.7336 14.1484 12.6253 13.4939 14.0199 12.1849 15.4177 10.8759 16.1165 9.10346 16.1165 6.86775 16.1165 4.56474 15.3993 2.77401 13.9649 1.49558 12.5305 0.220208 10.5088-0.417478 7.89997-0.417478 7.00079-0.417478 6.08477-0.341017 5.15196-0.188095 4.22219-0.0351722 3.26031 0.194211 2.26631 0.500056L2.26631 3.41323C3.12573 2.94529 4.01421 2.59662 4.93175 2.36724 5.84928 2.13786 6.8188 2.02316 7.84033 2.02316 9.49497 2.02316 10.804 2.45747 11.7674 3.32606 12.7339 4.19466 13.2171 5.37524 13.2171 6.86775 13.2171 8.35723 12.7339 9.53626 11.7674 10.4048 10.804 11.2765 9.49497 11.7123 7.84033 11.7123 7.06653 11.7123 6.29429 11.6267 5.52356 11.4554 4.7559 11.2842 3.9714 11.0165 3.17008 10.6526L3.17008 21.4061Z" fill="#000000" fill-rule="nonzero" fill-opacity="1" transform="matrix(1 0 0 -1.00047 4450.41 1557.52)"/><path d="M9.33133 19.4976C7.84185 19.4976 6.72094 18.7636 5.96856 17.2955 5.21926 15.8305 4.84458 13.6254 4.84458 10.6801 4.84458 7.74707 5.21926 5.5465 5.96856 4.07844 6.72094 2.61039 7.84185 1.87636 9.33133 1.87636 10.833 1.87636 11.9586 2.61039 12.7079 4.07844 13.4602 5.5465 13.8364 7.74707 13.8364 10.6801 13.8364 13.6254 13.4602 15.8305 12.7079 17.2955 11.9586 18.7636 10.833 19.4976 9.33133 19.4976ZM9.33133 21.7914C11.7322 21.7914 13.5658 20.8418 14.8319 18.9425 16.0981 17.0463 16.7312 14.2921 16.7312 10.6801 16.7312 7.07727 16.0981 4.32618 14.8319 2.42688 13.5658 0.530642 11.7322-0.417478 9.33133-0.417478 6.93349-0.417478 5.10149 0.530642 3.8353 2.42688 2.5691 4.32618 1.936 7.07727 1.936 10.6801 1.936 14.2921 2.5691 17.0463 3.8353 18.9425 5.10149 20.8418 6.93349 21.7914 9.33133 21.7914Z" fill="#000000" fill-rule="nonzero" fill-opacity="1" transform="matrix(1 0 0 -1.00047 4469.09 1557.52)"/><path d="M2.66544 22.3099 5.31711 22.3099 5.31711 9.13406 13.1896 16.0569 16.5569 16.0569 8.04219 8.54684 16.9193 0 13.4786 0 5.31711 7.84033 5.31711 0 2.66544 0 2.66544 22.3099Z" fill="#000000" fill-rule="nonzero" fill-opacity="1" transform="matrix(1 0 0 -1.00047 4487.77 1557.52)"/><g><path d="M234.414 889.19 404.86 635.53 575.31 423.986 745.758 248.336 916.205 101.083" stroke="#806D9B" stroke-width="5.87222" stroke-linecap="butt" stroke-linejoin="round" stroke-miterlimit="4" stroke-dasharray="21.7272 9.39556" stroke-opacity="1" fill="none" fill-rule="nonzero" transform="matrix(1 0 0 1.00047 4400 1503)"/></g><g><path d="M-11.7444 11.7444 11.7444 11.7444 11.7444-11.7444-11.7444-11.7444Z" stroke="#806D9B" stroke-width="2.93611" stroke-linecap="butt" stroke-linejoin="miter" stroke-miterlimit="4" stroke-opacity="1" fill="#806D9B" fill-rule="nonzero" fill-opacity="1" transform="matrix(1 0 0 1.00047 4634.41 2392.61)"/><path d="M-11.7444 11.7444 11.7444 11.7444 11.7444-11.7444-11.7444-11.7444Z" stroke="#806D9B" stroke-width="2.93611" stroke-linecap="butt" stroke-linejoin="miter" stroke-miterlimit="4" stroke-opacity="1" fill="#806D9B" fill-rule="nonzero" fill-opacity="1" transform="matrix(1 0 0 1.00047 4804.86 2138.83)"/><path d="M-11.7444 11.7444 11.7444 11.7444 11.7444-11.7444-11.7444-11.7444Z" stroke="#806D9B" stroke-width="2.93611" stroke-linecap="butt" stroke-linejoin="miter" stroke-miterlimit="4" stroke-opacity="1" fill="#806D9B" fill-rule="nonzero" fill-opacity="1" transform="matrix(1 0 0 1.00047 4975.31 1927.19)"/><path d="M-11.7444 11.7444 11.7444 11.7444 11.7444-11.7444-11.7444-11.7444Z" stroke="#806D9B" stroke-width="2.93611" stroke-linecap="butt" stroke-linejoin="miter" stroke-miterlimit="4" stroke-opacity="1" fill="#806D9B" fill-rule="nonzero" fill-opacity="1" transform="matrix(1 0 0 1.00047 5145.76 1751.45)"/><path d="M-11.7444 11.7444 11.7444 11.7444 11.7444-11.7444-11.7444-11.7444Z" stroke="#806D9B" stroke-width="2.93611" stroke-linecap="butt" stroke-linejoin="miter" stroke-miterlimit="4" stroke-opacity="1" fill="#806D9B" fill-rule="nonzero" fill-opacity="1" transform="matrix(1 0 0 1.00047 5316.2 1604.13)"/></g><path d="M125.328 1186.54 125.328 43.337" stroke="#000000" stroke-width="2.93611" stroke-linecap="square" stroke-linejoin="miter" stroke-miterlimit="4" stroke-opacity="1" fill="none" fill-rule="nonzero" transform="matrix(1 0 0 1.00047 4400 1503)"/><path d="M125.328 1186.54 1025.29 1186.54" stroke="#000000" stroke-width="2.93611" stroke-linecap="square" stroke-linejoin="miter" stroke-miterlimit="4" stroke-opacity="1" fill="none" fill-rule="nonzero" transform="matrix(1 0 0 1.00047 4400 1503)"/></g></g></g><path d="M4529.5 2231.5 5421.61 2231.5" stroke="#7F7F7F" stroke-width="3.4375" stroke-linecap="butt" stroke-linejoin="miter" stroke-miterlimit="8" stroke-opacity="0.54902" fill="none" fill-rule="evenodd"/><path d="M3450.5 2231.5 4342.61 2231.5" stroke="#7F7F7F" stroke-width="3.4375" stroke-linecap="butt" stroke-linejoin="miter" stroke-miterlimit="8" stroke-opacity="0.54902" fill="none" fill-rule="evenodd"/><text fill="#000000" fill-opacity="1" font-family="Heiti SC,Heiti SC_MSFontService,sans-serif" font-style="normal" font-variant="normal" font-weight="400" font-stretch="normal" font-size="37" text-anchor="start" direction="ltr" writing-mode="lr-tb" unicode-bidi="normal" text-decoration="none" transform="matrix(1 0 0 1 5049.18 2287)">Real</text><text fill="#000000" fill-opacity="1" font-family="Heiti SC,Heiti SC_MSFontService,sans-serif" font-style="normal" font-variant="normal" font-weight="400" font-stretch="normal" font-size="37" text-anchor="start" direction="ltr" writing-mode="lr-tb" unicode-bidi="normal" text-decoration="none" transform="matrix(1 0 0 1 5128.24 2287)">-</text><text fill="#000000" fill-opacity="1" font-family="Heiti SC,Heiti SC_MSFontService,sans-serif" font-style="normal" font-variant="normal" font-weight="400" font-stretch="normal" font-size="37" text-anchor="start" direction="ltr" writing-mode="lr-tb" unicode-bidi="normal" text-decoration="none" transform="matrix(1 0 0 1 5140.28 2287)">World Data Size</text><text fill="#000000" fill-opacity="1" font-family="Heiti SC,Heiti SC_MSFontService,sans-serif" font-style="normal" font-variant="normal" font-weight="300" font-stretch="normal" font-size="48" text-anchor="start" direction="ltr" writing-mode="lr-tb" unicode-bidi="normal" text-decoration="none" transform="matrix(1 0 0 1 3481.46 2452)">45 K</text><text fill="#000000" fill-opacity="1" font-family="Heiti SC,Heiti SC_MSFontService,sans-serif" font-style="normal" font-variant="normal" font-weight="300" font-stretch="normal" font-size="48" text-anchor="start" direction="ltr" writing-mode="lr-tb" unicode-bidi="normal" text-decoration="none" transform="matrix(1 0 0 1 3632.29 2296)">80 K</text><text fill="#000000" fill-opacity="1" font-family="Heiti SC,Heiti SC_MSFontService,sans-serif" font-style="normal" font-variant="normal" font-weight="300" font-stretch="normal" font-size="48" text-anchor="start" direction="ltr" writing-mode="lr-tb" unicode-bidi="normal" text-decoration="none" transform="matrix(1 0 0 1 3779.25 2170)">109 K</text><text fill="#000000" fill-opacity="1" font-family="Heiti SC,Heiti SC_MSFontService,sans-serif" font-style="normal" font-variant="normal" font-weight="300" font-stretch="normal" font-size="48" text-anchor="start" direction="ltr" writing-mode="lr-tb" unicode-bidi="normal" text-decoration="none" transform="matrix(1 0 0 1 3948.65 2071)">130 K</text><text fill="#000000" fill-opacity="1" font-family="Heiti SC,Heiti SC_MSFontService,sans-serif" font-style="normal" font-variant="normal" font-weight="300" font-stretch="normal" font-size="48" text-anchor="start" direction="ltr" writing-mode="lr-tb" unicode-bidi="normal" text-decoration="none" transform="matrix(1 0 0 1 4117.79 1992)">147 K</text><text fill="#000000" fill-opacity="1" font-family="Heiti SC,Heiti SC_MSFontService,sans-serif" font-style="normal" font-variant="normal" font-weight="300" font-stretch="normal" font-size="48" text-anchor="start" direction="ltr" writing-mode="lr-tb" unicode-bidi="normal" text-decoration="none" transform="matrix(1 0 0 1 4545.8 2368)">65 K</text><text fill="#000000" fill-opacity="1" font-family="Heiti SC,Heiti SC_MSFontService,sans-serif" font-style="normal" font-variant="normal" font-weight="300" font-stretch="normal" font-size="48" text-anchor="start" direction="ltr" writing-mode="lr-tb" unicode-bidi="normal" text-decoration="none" transform="matrix(1 0 0 1 4663.19 2128)">120 K</text><text fill="#000000" fill-opacity="1" font-family="Heiti SC,Heiti SC_MSFontService,sans-serif" font-style="normal" font-variant="normal" font-weight="300" font-stretch="normal" font-size="48" text-anchor="start" direction="ltr" writing-mode="lr-tb" unicode-bidi="normal" text-decoration="none" transform="matrix(1 0 0 1 4837.2 1916)">167 K</text><text fill="#000000" fill-opacity="1" font-family="Heiti SC,Heiti SC_MSFontService,sans-serif" font-style="normal" font-variant="normal" font-weight="300" font-stretch="normal" font-size="48" text-anchor="start" direction="ltr" writing-mode="lr-tb" unicode-bidi="normal" text-decoration="none" transform="matrix(1 0 0 1 5008.44 1736)">205 K</text><text fill="#000000" fill-opacity="1" font-family="Heiti SC,Heiti SC_MSFontService,sans-serif" font-style="normal" font-variant="normal" font-weight="300" font-stretch="normal" font-size="48" text-anchor="start" direction="ltr" writing-mode="lr-tb" unicode-bidi="normal" text-decoration="none" transform="matrix(1 0 0 1 5178.11 1588)">237 K</text><text fill="#000000" fill-opacity="1" font-family="Heiti SC,Heiti SC_MSFontService,sans-serif" font-style="normal" font-variant="normal" font-weight="300" font-stretch="normal" font-size="55" text-anchor="start" direction="ltr" writing-mode="lr-tb" unicode-bidi="normal" text-decoration="none" transform="matrix(1 0 0 1 3550.8 2819)">(a) Recovery</text><text fill="#000000" fill-opacity="1" font-family="Heiti SC,Heiti SC_MSFontService,sans-serif" font-style="normal" font-variant="normal" font-weight="300" font-stretch="normal" font-size="55" text-anchor="start" direction="ltr" writing-mode="lr-tb" unicode-bidi="normal" text-decoration="none" transform="matrix(1 0 0 1 3894.55 2819)">-</text><text fill="#000000" fill-opacity="1" font-family="Heiti SC,Heiti SC_MSFontService,sans-serif" font-style="normal" font-variant="normal" font-weight="300" font-stretch="normal" font-size="55" text-anchor="start" direction="ltr" writing-mode="lr-tb" unicode-bidi="normal" text-decoration="none" transform="matrix(1 0 0 1 3912.88 2819)">based Expert</text><text fill="#000000" fill-opacity="1" font-family="Heiti SC,Heiti SC_MSFontService,sans-serif" font-style="normal" font-variant="normal" font-weight="300" font-stretch="normal" font-size="55" text-anchor="start" direction="ltr" writing-mode="lr-tb" unicode-bidi="normal" text-decoration="none" transform="matrix(1 0 0 1 4595.57 2819)">(b) Planner</text><text fill="#000000" fill-opacity="1" font-family="Heiti SC,Heiti SC_MSFontService,sans-serif" font-style="normal" font-variant="normal" font-weight="300" font-stretch="normal" font-size="55" text-anchor="start" direction="ltr" writing-mode="lr-tb" unicode-bidi="normal" text-decoration="none" transform="matrix(1 0 0 1 4887.76 2819)">-</text><text fill="#000000" fill-opacity="1" font-family="Heiti SC,Heiti SC_MSFontService,sans-serif" font-style="normal" font-variant="normal" font-weight="300" font-stretch="normal" font-size="55" text-anchor="start" direction="ltr" writing-mode="lr-tb" unicode-bidi="normal" text-decoration="none" transform="matrix(1 0 0 1 4906.09 2819)">based Expert</text><text fill="#000000" fill-opacity="1" font-family="Heiti SC,Heiti SC_MSFontService,sans-serif" font-style="normal" font-variant="normal" font-weight="400" font-stretch="normal" font-size="37" text-anchor="start" direction="ltr" writing-mode="lr-tb" unicode-bidi="normal" text-decoration="none" transform="matrix(1 0 0 1 3994.59 1621)">Cumulative Data</text><text fill="#000000" fill-opacity="1" font-family="Heiti SC,Heiti SC_MSFontService,sans-serif" font-style="normal" font-variant="normal" font-weight="400" font-stretch="normal" font-size="37" text-anchor="start" direction="ltr" writing-mode="lr-tb" unicode-bidi="normal" text-decoration="none" transform="matrix(1 0 0 1 3593.57 1620)">Increment Data</text><path d="M3932.5 1587.5 3981.08 1587.5" stroke="#7F7F7F" stroke-width="4.58333" stroke-linecap="butt" stroke-linejoin="miter" stroke-miterlimit="8" stroke-opacity="1" fill="none" fill-rule="evenodd"/><path d="M3944 1587.5C3944 1580.04 3950.04 1574 3957.5 1574 3964.96 1574 3971 1580.04 3971 1587.5 3971 1594.96 3964.96 1601 3957.5 1601 3950.04 1601 3944 1594.96 3944 1587.5Z" fill="#7F7F7F" fill-rule="evenodd" fill-opacity="1"/><rect x="3944" y="1606" width="27.0002" height="26.0001" fill="#806D9A" fill-opacity="1"/><path d="M3932.5 1619.5 3981.08 1619.5" stroke="#806D9A" stroke-width="4.58333" stroke-linecap="butt" stroke-linejoin="miter" stroke-miterlimit="8" stroke-opacity="1" fill="none" fill-rule="evenodd"/><rect x="3526" y="1574" width="49.0002" height="24.0001" fill="#DADADA" fill-opacity="1"/><rect x="3526" y="1607" width="49.0002" height="24.0001" fill="#DAD3E2" fill-opacity="1"/><path d="M3489 1571 3489 1635.96" stroke="#7030A0" stroke-width="10.3125" stroke-linecap="butt" stroke-linejoin="miter" stroke-miterlimit="8" stroke-opacity="1" fill="none" fill-rule="evenodd"/><text fill="#000000" fill-opacity="1" font-family="Heiti SC,Heiti SC_MSFontService,sans-serif" font-style="normal" font-variant="normal" font-weight="400" font-stretch="normal" font-size="37" text-anchor="start" direction="ltr" writing-mode="lr-tb" unicode-bidi="normal" text-decoration="none" transform="matrix(1 0 0 1 5332.4 2673)">Rounds</text><text fill="#000000" fill-opacity="1" font-family="Heiti SC,Heiti SC_MSFontService,sans-serif" font-style="normal" font-variant="normal" font-weight="400" font-stretch="normal" font-size="37" text-anchor="start" direction="ltr" writing-mode="lr-tb" unicode-bidi="normal" text-decoration="none" transform="matrix(1 0 0 1 4272.27 2673)">Rounds</text></g></g></svg>